<?xml version="1.0" encoding="UTF-8"?>
<svg version="1.1" xmlns="http://www.w3.org/2000/svg" width="180" height="180">
<path d="M0 0 C0.79935471 -0.00189835 1.59870941 -0.00379669 2.42228699 -0.00575256 C5.03626649 -0.00942573 7.6499617 0.00118881 10.26391602 0.01245117 C12.08854642 0.01364439 13.91317745 0.01409583 15.73780823 0.01383972 C19.54627369 0.01539826 23.35464431 0.02364403 27.16308594 0.03710938 C32.05483996 0.05418302 36.9464908 0.05792098 41.83827114 0.05716419 C45.5982004 0.05743532 49.35810692 0.06290588 53.11802864 0.07016563 C54.92303356 0.07335496 56.72804105 0.07532032 58.53304863 0.07605934 C61.04421316 0.07821534 63.55526561 0.08694088 66.06640625 0.09765625 C66.81700317 0.09720306 67.5676001 0.09674988 68.34094238 0.09628296 C73.46583953 0.12843718 73.46583953 0.12843718 74.58032227 1.24291992 C74.6934951 3.59520311 74.74448764 5.9170394 74.74829102 8.27026367 C74.75328362 9.32643639 74.75328362 9.32643639 74.75837708 10.40394592 C74.76344882 11.89608098 74.76578532 13.38822742 74.765625 14.88037109 C74.76780985 17.167426 74.78595775 19.45399745 74.80493164 21.7409668 C74.8078658 23.18823077 74.80985045 24.63549703 74.81079102 26.08276367 C74.81797653 26.76926498 74.82516205 27.4557663 74.83256531 28.16307068 C74.80914596 33.01409623 74.80914596 33.01409623 72.58032227 35.24291992 C69.5463562 35.50120544 69.5463562 35.50120544 65.59545898 35.51416016 C64.87649948 35.5193869 64.15753998 35.52461365 63.41679382 35.52999878 C61.85244815 35.54025347 60.28806821 35.54602174 58.72369003 35.54788017 C56.24280621 35.55153904 53.76232392 35.56825531 51.28152466 35.58863831 C44.22690324 35.64407512 37.17222073 35.67463929 30.11743164 35.69921875 C25.80318354 35.71515674 21.4892159 35.74544947 17.17511368 35.78398323 C15.53501505 35.79558785 13.89486609 35.80156318 12.25472641 35.80166435 C9.95004073 35.80185793 7.64611886 35.82023676 5.34155273 35.84228516 C4.03298309 35.8473558 2.72441345 35.85242645 1.37619019 35.85765076 C-2.98384866 36.30018157 -6.41511633 37.56920735 -10.41967773 39.24291992 C-11.40967773 39.57291992 -12.39967773 39.90291992 -13.41967773 40.24291992 C-14.53902847 41.88922185 -14.53902847 41.88922185 -15.41967773 44.24291992 C-15.6684668 44.84749023 -15.91725586 45.45206055 -16.17358398 46.07495117 C-20.35135862 56.63039144 -20.42484753 67.30885582 -17.41967773 78.24291992 C-15.12185124 82.60086672 -12.6113288 85.63478148 -8.41967773 88.24291992 C0.06797677 90.78498616 8.61801664 90.57442137 17.39282227 90.62182617 C19.01425151 90.63802318 20.63567118 90.65520545 22.25708008 90.67332458 C26.49802237 90.71874141 30.73897775 90.75370022 34.9800415 90.78552246 C41.79566787 90.83767593 48.61115519 90.90240299 55.42660522 90.97373772 C57.80701415 90.99660229 60.18740497 91.01284258 62.56787109 91.02845764 C64.01473196 91.04185478 65.46159083 91.05546874 66.90844727 91.06933594 C68.80965332 91.08360374 68.80965332 91.08360374 70.74926758 91.09815979 C73.58032227 91.24291992 73.58032227 91.24291992 74.58032227 92.24291992 C74.68125105 94.7288149 74.72003724 97.18630841 74.71313477 99.67260742 C74.71409149 100.41874298 74.71504822 101.16487854 74.71603394 101.93362427 C74.71671581 103.51572758 74.71486099 105.09783367 74.71069336 106.67993164 C74.70536013 109.10073156 74.71063028 111.52134467 74.71704102 113.94213867 C74.71637994 115.47729533 74.71509817 117.01245188 74.71313477 118.54760742 C74.715159 119.27269501 74.71718323 119.99778259 74.7192688 120.74484253 C74.70481135 123.85106976 74.57039747 126.27269432 73.58032227 129.24291992 C68.11193451 130.16954846 62.87004731 130.370388 57.33032227 130.32104492 C55.9742688 130.31442841 55.9742688 130.31442841 54.59082031 130.30767822 C52.62490306 130.29683952 50.65899892 130.28337284 48.69311523 130.26757812 C45.50058019 130.24228824 42.3080727 130.22568692 39.11547852 130.2097168 C33.43194757 130.17665367 27.74924708 130.11311916 22.06616211 130.03540039 C19.72802385 130.00690648 17.38978416 129.98583633 15.05151367 129.97192383 C-3.91722619 129.85331979 -20.87972463 128.95229291 -35.41967773 115.24291992 C-50.75567156 96.7087796 -53.16844336 75.09994735 -51.21313477 51.77954102 C-49.3944997 35.7624885 -44.40438728 21.51362693 -32.12866211 10.59985352 C-22.88653716 3.26160631 -11.66647056 -0.08902414 0 0 Z " fill="#F28B1C" transform="translate(74.419677734375,26.757080078125)"/>
<path d="M0 0 C1.82177067 0.00306205 3.64354368 0.00493478 5.46531677 0.00567627 C9.26188268 0.01025543 13.05823364 0.02459787 16.85473633 0.046875 C21.73074394 0.07533757 26.60658414 0.08610724 31.48266697 0.0905571 C35.23402081 0.09470109 38.98534063 0.10450702 42.73667717 0.11643219 C44.53609889 0.12214049 46.33552388 0.12689734 48.13495064 0.13069916 C50.63633195 0.13753473 53.13757762 0.15114924 55.63891602 0.16699219 C56.38637085 0.16811005 57.13382568 0.16922791 57.90393066 0.17037964 C63.0063924 0.21342365 63.0063924 0.21342365 64.12109375 1.328125 C64.23426659 3.68040819 64.28525912 6.00224448 64.2890625 8.35546875 C64.2940551 9.41164146 64.2940551 9.41164146 64.29914856 10.489151 C64.3042203 11.98128606 64.30655681 13.4734325 64.30639648 14.96557617 C64.30858134 17.25263107 64.32672924 19.53920253 64.34570312 21.82617188 C64.34863729 23.27343584 64.35062193 24.72070211 64.3515625 26.16796875 C64.35874802 26.85447006 64.36593353 27.54097137 64.37333679 28.24827576 C64.34991744 33.09930131 64.34991744 33.09930131 62.12109375 35.328125 C59.08712769 35.58641052 59.08712769 35.58641052 55.13623047 35.59936523 C54.41727097 35.60459198 53.69831146 35.60981873 52.95756531 35.61520386 C51.39321963 35.62545855 49.8288397 35.63122682 48.26446152 35.63308525 C45.78357769 35.63674412 43.3030954 35.65346038 40.82229614 35.67384338 C33.76767473 35.7292802 26.71299221 35.75984437 19.65820312 35.78442383 C15.34395503 35.80036182 11.02998739 35.83065454 6.71588516 35.86918831 C5.07578654 35.88079293 3.43563757 35.88676826 1.79549789 35.88686943 C-0.50918779 35.88706301 -2.81310965 35.90544184 -5.11767578 35.92749023 C-6.42624542 35.93256088 -7.73481506 35.93763153 -9.08303833 35.94285583 C-13.44307717 36.38538665 -16.87434485 37.65441243 -20.87890625 39.328125 C-21.86890625 39.658125 -22.85890625 39.988125 -23.87890625 40.328125 C-24.99825698 41.97442693 -24.99825698 41.97442693 -25.87890625 44.328125 C-26.12769531 44.93269531 -26.37648437 45.53726563 -26.6328125 46.16015625 C-30.81058714 56.71559652 -30.88407604 67.3940609 -27.87890625 78.328125 C-25.58107976 82.6860718 -23.07055732 85.71998656 -18.87890625 88.328125 C-10.39125175 90.87019124 -1.84121188 90.65962645 6.93359375 90.70703125 C8.55502299 90.72322826 10.17644266 90.74041052 11.79785156 90.75852966 C16.03879386 90.80394648 20.27974924 90.8389053 24.52081299 90.87072754 C31.33643935 90.92288101 38.15192668 90.98760807 44.96737671 91.05894279 C47.34778564 91.08180737 49.72817646 91.09804766 52.10864258 91.11366272 C53.55550344 91.12705986 55.00236232 91.14067382 56.44921875 91.15454102 C58.3504248 91.16880882 58.3504248 91.16880882 60.29003906 91.18336487 C63.12109375 91.328125 63.12109375 91.328125 64.12109375 92.328125 C64.22202253 94.81401998 64.26080873 97.27151349 64.25390625 99.7578125 C64.25486298 100.50394806 64.2558197 101.25008362 64.25680542 102.01882935 C64.2574873 103.60093266 64.25563248 105.18303875 64.25146484 106.76513672 C64.24613162 109.18593664 64.25140176 111.60654975 64.2578125 114.02734375 C64.25715142 115.56250041 64.25586966 117.09765695 64.25390625 118.6328125 C64.25593048 119.35790009 64.25795471 120.08298767 64.26004028 120.83004761 C64.24558283 123.93627484 64.11116895 126.35789939 63.12109375 129.328125 C57.65270599 130.25475354 52.41081879 130.45559308 46.87109375 130.40625 C45.51504028 130.39963348 45.51504028 130.39963348 44.1315918 130.3928833 C42.16567454 130.38204459 40.1997704 130.36857792 38.23388672 130.3527832 C35.04135168 130.32749332 31.84884418 130.310892 28.65625 130.29492188 C22.97271905 130.26185875 17.29001857 130.19832424 11.60693359 130.12060547 C9.26879533 130.09211156 6.93055565 130.07104141 4.59228516 130.05712891 C-14.37645471 129.93852486 -31.33895315 129.03749798 -45.87890625 115.328125 C-61.21490008 96.79398468 -63.62767188 75.18515243 -61.67236328 51.86474609 C-59.74682915 34.90621396 -54.10998863 20.55018673 -40.87890625 9.328125 C-33.82187977 4.328125 -33.82187977 4.328125 -29.87890625 4.328125 C-30.50390625 7.203125 -30.50390625 7.203125 -31.87890625 10.328125 C-34.62890625 11.453125 -34.62890625 11.453125 -37.87890625 12.328125 C-41.83812152 14.61228766 -44.06696124 16.14671343 -45.87890625 20.328125 C-46.86890625 20.988125 -47.85890625 21.648125 -48.87890625 22.328125 C-51.86398699 25.98566898 -53.8411671 29.52843925 -53.94140625 34.30859375 C-53.7337288 36.35681261 -53.49037975 38.40173901 -53.2109375 40.44140625 C-52.77008319 44.27424547 -53.22373744 47.54270519 -53.87890625 51.328125 C-55.36390625 51.823125 -55.36390625 51.823125 -56.87890625 52.328125 C-56.79511719 52.96878906 -56.71132813 53.60945313 -56.625 54.26953125 C-56.0022602 59.55887814 -55.8557344 64.09857999 -56.87890625 69.328125 C-55.88890625 69.658125 -54.89890625 69.988125 -53.87890625 70.328125 C-54.37390625 71.318125 -54.37390625 71.318125 -54.87890625 72.328125 C-54.94983467 74.5354173 -54.9630565 76.74479952 -54.94140625 78.953125 C-54.93238281 80.14164062 -54.92335938 81.33015625 -54.9140625 82.5546875 C-54.90246094 83.46992187 -54.89085937 84.38515625 -54.87890625 85.328125 C-54.21890625 85.328125 -53.55890625 85.328125 -52.87890625 85.328125 C-53.08515625 86.33875 -53.29140625 87.349375 -53.50390625 88.390625 C-53.90980761 92.65258924 -53.15168058 95.28519478 -51.87890625 99.328125 C-51.75390625 102.265625 -51.75390625 102.265625 -51.87890625 104.328125 C-51.21890625 104.328125 -50.55890625 104.328125 -49.87890625 104.328125 C-49.21890625 106.308125 -48.55890625 108.288125 -47.87890625 110.328125 C-47.21890625 110.328125 -46.55890625 110.328125 -45.87890625 110.328125 C-45.87890625 110.988125 -45.87890625 111.648125 -45.87890625 112.328125 C-44.88890625 112.328125 -43.89890625 112.328125 -42.87890625 112.328125 C-42.21890625 113.318125 -41.55890625 114.308125 -40.87890625 115.328125 C-39.55890625 115.328125 -38.23890625 115.328125 -36.87890625 115.328125 C-35.84623563 116.29435033 -34.84900066 117.29908815 -33.87890625 118.328125 C-31.6186328 119.5329399 -31.6186328 119.5329399 -29.19140625 120.515625 C-27.97904297 121.03189453 -27.97904297 121.03189453 -26.7421875 121.55859375 C-26.12730469 121.81253906 -25.51242188 122.06648438 -24.87890625 122.328125 C-24.87890625 122.988125 -24.87890625 123.648125 -24.87890625 124.328125 C17.13629942 127.01064374 17.13629942 127.01064374 59.12109375 125.328125 C60.9807445 123.46847425 60.36196924 120.37923381 60.4375 117.88671875 C60.47939453 116.58154297 60.52128906 115.27636719 60.56445312 113.93164062 C60.60426983 112.5429717 60.643982 111.15429978 60.68359375 109.765625 C60.72677364 108.37303317 60.77038775 106.98045472 60.81445312 105.58789062 C60.92095251 102.16807699 61.02296298 98.74818737 61.12109375 95.328125 C60.18814987 95.33256622 59.25520599 95.33700745 58.29399109 95.34158325 C49.50940286 95.3820958 40.72483354 95.41209326 31.94017315 95.43174934 C27.42369893 95.44219438 22.90730002 95.45636669 18.39086914 95.47900391 C14.03369721 95.50070665 9.6765978 95.5126882 5.31937599 95.51787949 C3.65556509 95.52157987 1.99175823 95.52880563 0.32797813 95.53958511 C-1.99929054 95.55406599 -4.3262581 95.55610439 -6.65356445 95.55517578 C-7.34408401 95.56236633 -8.03460358 95.56955688 -8.74604797 95.57696533 C-12.36478966 95.56130202 -13.77316671 95.39861803 -16.87890625 93.328125 C-18.37249009 92.90873099 -19.87328797 92.51452021 -21.37890625 92.140625 C-25.51529704 90.8333378 -25.51529704 90.8333378 -27.0625 88.68359375 C-27.77208435 86.9372074 -28.33133685 85.13188302 -28.87890625 83.328125 C-29.53890625 82.338125 -30.19890625 81.348125 -30.87890625 80.328125 C-30.87890625 79.338125 -30.87890625 78.348125 -30.87890625 77.328125 C-31.53890625 77.328125 -32.19890625 77.328125 -32.87890625 77.328125 C-32.54890625 74.688125 -32.21890625 72.048125 -31.87890625 69.328125 C-32.53890625 69.328125 -33.19890625 69.328125 -33.87890625 69.328125 C-34.16525366 60.96041737 -33.53640851 53.30063179 -30.87890625 45.328125 C-30.21890625 45.328125 -29.55890625 45.328125 -28.87890625 45.328125 C-28.81703125 44.77125 -28.75515625 44.214375 -28.69140625 43.640625 C-27.10496513 39.12536951 -23.83514455 36.81385267 -19.67918396 34.70280457 C-15.83361884 33.13129712 -12.3641087 32.93086701 -8.19946289 32.89575195 C-7.10065292 32.88046448 -7.10065292 32.88046448 -5.97964478 32.86486816 C-3.58270441 32.8349176 -1.18616482 32.82550014 1.2109375 32.81640625 C2.88246469 32.79954619 4.55397931 32.78139416 6.22547913 32.76200867 C10.60657826 32.71464646 14.98762639 32.68474824 19.36889648 32.65856934 C23.84694488 32.628694 28.32481778 32.58218773 32.80273438 32.53710938 C41.57543432 32.45123316 50.3481505 32.38381849 59.12109375 32.328125 C60.50418156 29.56194937 60.23319571 27.317945 60.21875 24.2265625 C60.21552734 23.01484375 60.21230469 21.803125 60.20898438 20.5546875 C60.20060547 19.28367187 60.19222656 18.01265625 60.18359375 16.703125 C60.17908203 15.424375 60.17457031 14.145625 60.16992188 12.828125 C60.15810578 9.66141208 60.1416319 6.49479144 60.12109375 3.328125 C50.59351764 3.43586121 41.06601636 3.54854122 31.53857327 3.66746426 C27.11420006 3.72253608 22.68982008 3.77593009 18.26538086 3.82543945 C13.99243261 3.87331621 9.71956006 3.9256659 5.44670296 3.98106575 C3.81972206 4.00138416 2.1927205 4.02011387 0.56570244 4.03719902 C-1.72002725 4.06147753 -4.00561696 4.09149758 -6.29125977 4.12280273 C-8.23984642 4.14611916 -8.23984642 4.14611916 -10.22779846 4.16990662 C-13.83927267 4.3264075 -17.30934569 4.77405598 -20.87890625 5.328125 C-23.55830105 5.43564486 -26.19522674 5.3752071 -28.87890625 5.328125 C-28.87890625 4.668125 -28.87890625 4.008125 -28.87890625 3.328125 C-19.52506965 -0.62947996 -9.94680415 -0.07323794 0 0 Z " fill="#D88A35" transform="translate(84.87890625,26.671875)"/>
<path d="M0 0 C-0.625 2.875 -0.625 2.875 -2 6 C-4.75 7.125 -4.75 7.125 -8 8 C-11.95921527 10.28416266 -14.18805499 11.81858843 -16 16 C-16.99 16.66 -17.98 17.32 -19 18 C-21.98508074 21.65754398 -23.96226085 25.20031425 -24.0625 29.98046875 C-23.85482255 32.02868761 -23.6114735 34.07361401 -23.33203125 36.11328125 C-22.89117694 39.94612047 -23.34483119 43.21458019 -24 47 C-25.485 47.495 -25.485 47.495 -27 48 C-26.91621094 48.64066406 -26.83242188 49.28132813 -26.74609375 49.94140625 C-26.12335395 55.23075314 -25.97682815 59.77045499 -27 65 C-26.01 65.33 -25.02 65.66 -24 66 C-24.495 66.99 -24.495 66.99 -25 68 C-25.07092842 70.2072923 -25.08415025 72.41667452 -25.0625 74.625 C-25.05347656 75.81351562 -25.04445313 77.00203125 -25.03515625 78.2265625 C-25.02355469 79.14179687 -25.01195312 80.05703125 -25 81 C-24.34 81 -23.68 81 -23 81 C-23.20625 82.010625 -23.4125 83.02125 -23.625 84.0625 C-24.03090136 88.32446424 -23.27277433 90.95706978 -22 95 C-21.875 97.9375 -21.875 97.9375 -22 100 C-21.34 100 -20.68 100 -20 100 C-19.34 101.98 -18.68 103.96 -18 106 C-17.34 106 -16.68 106 -16 106 C-16 106.66 -16 107.32 -16 108 C-15.01 108 -14.02 108 -13 108 C-12.34 108.99 -11.68 109.98 -11 111 C-9.68 111 -8.36 111 -7 111 C-5.96732938 111.96622533 -4.97009441 112.97096315 -4 114 C-1.73972655 115.2048149 -1.73972655 115.2048149 0.6875 116.1875 C1.89986328 116.70376953 1.89986328 116.70376953 3.13671875 117.23046875 C3.75160156 117.48441406 4.36648437 117.73835938 5 118 C5 118.66 5 119.32 5 120 C31.235 120.99 31.235 120.99 58 122 C58 122.33 58 122.66 58 123 C51.93515185 123.04980923 45.87042542 123.08591175 39.80541992 123.10986328 C37.74647952 123.11985892 35.68755309 123.13345992 33.62866211 123.15087891 C30.6521457 123.17541262 27.67581859 123.18654775 24.69921875 123.1953125 C23.7935466 123.20563507 22.88787445 123.21595764 21.95475769 123.22659302 C13.04059869 123.22812309 4.92581093 122.23938724 -3 118 C-3.969375 117.896875 -4.93875 117.79375 -5.9375 117.6875 C-13.98402329 115.88113763 -18.66082485 108.04216082 -22.91796875 101.5 C-34.34255015 82.96530282 -34.66126544 57.72661094 -30.01953125 36.921875 C-26.48371468 22.80658749 -20.37342964 11.6412034 -8.29296875 3.08203125 C-2.94905462 0 -2.94905462 0 0 0 Z " fill="#F4752C" transform="translate(55,31)"/>
<path d="M0 0 C1.82177067 0.00306205 3.64354368 0.00493478 5.46531677 0.00567627 C9.26188268 0.01025543 13.05823364 0.02459787 16.85473633 0.046875 C21.73074394 0.07533757 26.60658414 0.08610724 31.48266697 0.0905571 C35.23402081 0.09470109 38.98534063 0.10450702 42.73667717 0.11643219 C44.53609889 0.12214049 46.33552388 0.12689734 48.13495064 0.13069916 C50.63633195 0.13753473 53.13757762 0.15114924 55.63891602 0.16699219 C56.38637085 0.16811005 57.13382568 0.16922791 57.90393066 0.17037964 C63.0063924 0.21342365 63.0063924 0.21342365 64.12109375 1.328125 C64.23426659 3.68040819 64.28525912 6.00224448 64.2890625 8.35546875 C64.2940551 9.41164146 64.2940551 9.41164146 64.29914856 10.489151 C64.3042203 11.98128606 64.30655681 13.4734325 64.30639648 14.96557617 C64.30858134 17.25263107 64.32672924 19.53920253 64.34570312 21.82617188 C64.34863729 23.27343584 64.35062193 24.72070211 64.3515625 26.16796875 C64.35874802 26.85447006 64.36593353 27.54097137 64.37333679 28.24827576 C64.34991744 33.09930131 64.34991744 33.09930131 62.12109375 35.328125 C59.59363234 35.54537949 57.17233596 35.63950079 54.64208984 35.64697266 C53.87126572 35.65701828 53.10044159 35.6670639 52.30625916 35.67741394 C49.75235761 35.7083635 47.19856143 35.72531351 44.64453125 35.7421875 C42.87618089 35.76088971 41.10783953 35.7804624 39.33950806 35.8008728 C34.68051455 35.85230021 30.02149206 35.89186898 25.36236572 35.92901611 C20.60999321 35.96898943 15.85774229 36.02011212 11.10546875 36.0703125 C1.77742904 36.16719731 -7.55067917 36.25156174 -16.87890625 36.328125 C-14.87890625 34.328125 -14.87890625 34.328125 -11.82907104 34.08761597 C-10.51891022 34.09205719 -9.20874939 34.09649841 -7.85888672 34.10107422 C-7.13683044 34.10078217 -6.41477417 34.10049011 -5.6708374 34.10018921 C-3.27913483 34.10158492 -0.88774204 34.11715717 1.50390625 34.1328125 C3.16014435 34.13654178 4.81638464 34.13938915 6.47262573 34.14138794 C10.83581615 34.14903111 15.19887382 34.1686854 19.56201172 34.1907959 C24.01267704 34.21123965 28.46336378 34.2203865 32.9140625 34.23046875 C41.64980056 34.25193071 50.38543065 34.28607482 59.12109375 34.328125 C60.18997899 30.85147405 60.23585142 27.65675022 60.21875 24.03125 C60.21552734 22.82597656 60.21230469 21.62070312 60.20898438 20.37890625 C60.20060547 19.12464844 60.19222656 17.87039062 60.18359375 16.578125 C60.17908203 15.30839844 60.17457031 14.03867187 60.16992188 12.73046875 C60.15813931 9.59630664 60.14168791 6.46223959 60.12109375 3.328125 C50.59351764 3.43586121 41.06601636 3.54854122 31.53857327 3.66746426 C27.11420006 3.72253608 22.68982008 3.77593009 18.26538086 3.82543945 C13.99243261 3.87331621 9.71956006 3.9256659 5.44670296 3.98106575 C3.81972206 4.00138416 2.1927205 4.02011387 0.56570244 4.03719902 C-1.72002725 4.06147753 -4.00561696 4.09149758 -6.29125977 4.12280273 C-7.59031754 4.13834702 -8.88937531 4.1538913 -10.22779846 4.16990662 C-13.83927267 4.3264075 -17.30934569 4.77405598 -20.87890625 5.328125 C-23.55830105 5.43564486 -26.19522674 5.3752071 -28.87890625 5.328125 C-28.87890625 4.668125 -28.87890625 4.008125 -28.87890625 3.328125 C-19.52506965 -0.62947996 -9.94680415 -0.07323794 0 0 Z " fill="#CF9F59" transform="translate(84.87890625,26.671875)"/>
<path d="M0 0 C-0.39908864 5.78678534 -1.02207045 9.49865867 -5 14 C-9.16827223 16.66769423 -11.85561857 17.32419735 -16.75 16.625 C-22.83560657 15.14572948 -28.14796475 11.91114628 -33 8 C-33 7.34 -33 6.68 -33 6 C-25.08339543 3.97458299 -17.15895432 1.98669972 -9.1875 0.1875 C-7.50720703 -0.19341797 -7.50720703 -0.19341797 -5.79296875 -0.58203125 C-3 -1 -3 -1 0 0 Z " fill="#514D4D" transform="translate(143,85)"/>
<path d="M0 0 C7.30191376 0.60030831 14.42867584 1.70298082 21.625 3.0625 C22.62917969 3.24876953 23.63335937 3.43503906 24.66796875 3.62695312 C27.11268755 4.08097233 29.55664548 4.53870544 32 5 C32 8 32 8 30.6015625 9.5 C25.49228877 13.3773935 20.46306441 16.23963948 14 17 C8.08171008 15.54468281 5.37397204 12.81996006 2 8 C0.52787222 4.98564312 0 3.36369412 0 0 Z " fill="#413E3E" transform="translate(66,85)"/>
<path d="M0 0 C2.36051217 1.80738885 2.95756254 2.68096332 3.35644531 5.6796875 C3.34709961 6.73414063 3.33775391 7.78859375 3.328125 8.875 C3.32296875 10.02484375 3.3178125 11.1746875 3.3125 12.359375 C3.291875 13.56078125 3.27125 14.7621875 3.25 16 C3.24484375 17.20140625 3.2396875 18.4028125 3.234375 19.640625 C3.15459389 28.53621832 3.15459389 28.53621832 2 32 C-3.46838776 32.92662854 -8.71027496 33.12746808 -14.25 33.078125 C-15.60605347 33.07150848 -15.60605347 33.07150848 -16.98950195 33.0647583 C-18.95541921 33.05391959 -20.92132335 33.04045292 -22.88720703 33.0246582 C-26.07974207 32.99936832 -29.27224957 32.982767 -32.46484375 32.96679688 C-38.1483747 32.93373375 -43.83107518 32.87019924 -49.51416016 32.79248047 C-51.85229842 32.76398656 -54.1905381 32.74291641 -56.52880859 32.72900391 C-83.33376734 32.56140308 -83.33376734 32.56140308 -96 26 C-96 25.34 -96 24.68 -96 24 C-90 26 -90 26 -87.0625 27.0625 C-80.28134581 29.13836353 -73.53273079 29.14738684 -66.51171875 29.1328125 C-65.50293167 29.13417709 -64.49414459 29.13554169 -63.45478821 29.13694763 C-60.19899141 29.13896331 -56.94328738 29.13268777 -53.6875 29.125 C-52.58639893 29.12378143 -51.48529785 29.12256287 -50.35083008 29.12130737 C-37.56233589 29.10460337 -24.78042045 29.04939106 -12 28.5625 C-10.95932373 28.52334473 -9.91864746 28.48418945 -8.84643555 28.44384766 C-4.59021804 28.62125046 -4.59021804 28.62125046 -1 27 C-0.84174742 25.00217874 -0.74880829 22.99911166 -0.68359375 20.99609375 C-0.64169922 19.78115234 -0.59980469 18.56621094 -0.55664062 17.31445312 C-0.51732422 16.03505859 -0.47800781 14.75566406 -0.4375 13.4375 C-0.37272461 11.51260742 -0.37272461 11.51260742 -0.30664062 9.54882812 C-0.200152 6.36600147 -0.09814038 3.18309326 0 0 Z " fill="#C58733" transform="translate(146,124)"/>
<path d="M0 0 C0.33 0.66 0.66 1.32 1 2 C1.87801773 1.85789093 2.75603546 1.71578186 3.66065979 1.56936646 C13.71866965 0.06941681 23.49616978 -0.26474742 33.65234375 -0.1953125 C35.29000168 -0.19157029 36.92766188 -0.18872905 38.56532288 -0.18673706 C42.82146675 -0.17919554 47.07746843 -0.15963175 51.33355713 -0.1373291 C55.69826333 -0.11666317 60.06299308 -0.10769154 64.42773438 -0.09765625 C72.9518873 -0.07637426 81.47592583 -0.04235696 90 0 C92.10978822 4.21957643 91.18492875 9.80154459 91.1875 14.4375 C91.19974609 15.59572266 91.21199219 16.75394531 91.22460938 17.94726562 C91.22654297 19.05650391 91.22847656 20.16574219 91.23046875 21.30859375 C91.23457764 22.32751709 91.23868652 23.34644043 91.24291992 24.39624023 C91 27 91 27 89 30 C85.98812866 30.36076355 85.98812866 30.36076355 82.07177734 30.34057617 C81.35947464 30.34101425 80.64717194 30.34145233 79.9132843 30.34190369 C77.55389188 30.3398101 75.19520609 30.31645325 72.8359375 30.29296875 C71.20212187 30.2873748 69.56830122 30.28310375 67.93447876 30.28010559 C63.63039298 30.26864094 59.32661002 30.23916008 55.02264404 30.20599365 C50.63232521 30.17532751 46.24195753 30.16160767 41.8515625 30.14648438 C33.2342359 30.11429171 24.6171556 30.06307608 16 30 C16 29.67 16 29.34 16 29 C21.31596506 28.24057642 26.44168287 27.95384905 31.8125 28 C43.04501482 28.05257858 54.27111228 27.75430981 65.5 27.5 C67.69140272 27.45166262 69.88280896 27.40348444 72.07421875 27.35546875 C77.38285438 27.23881121 82.69144348 27.12020102 88 27 C89.12298921 18.53438902 88.80542989 10.48799189 88 2 C79.57517195 1.95319481 71.15040026 1.9178905 62.7254734 1.89637566 C58.81140095 1.88603795 54.89741889 1.87206753 50.98339844 1.84912109 C23.87951629 0.38085551 23.87951629 0.38085551 -2 6 C-1.34 4.02 -0.68 2.04 0 0 Z " fill="#E39726" transform="translate(55,30)"/>
<path d="M0 0 C-0.625 2.875 -0.625 2.875 -2 6 C-4.75 7.125 -4.75 7.125 -8 8 C-11.95921527 10.28416266 -14.18805499 11.81858843 -16 16 C-16.99 16.66 -17.98 17.32 -19 18 C-22.48076268 22.90248265 -24.4249407 26.90918332 -24 33 C-24.63839522 34.34709828 -25.30920508 35.67900621 -26 37 C-32.4670028 53.49382366 -29.41875642 73.89593675 -27 91 C-33.2151366 84.7848634 -32.33382175 69.86060297 -32.375 61.5625 C-32.21770252 42.35490503 -29.36038908 23.56669008 -15.61791992 9.23852539 C-11.4792012 5.17330938 -6.12869159 0 0 0 Z " fill="#BB6E40" transform="translate(55,31)"/>
<path d="M0 0 C10.28311864 0.10733485 20.56616467 0.21993378 30.84915066 0.33933926 C35.62344948 0.39461088 40.39775438 0.44803752 45.17211914 0.49731445 C49.77571693 0.54489565 54.37923781 0.59723593 58.98274422 0.65294075 C60.74307413 0.6733927 62.50342515 0.69210098 64.26379204 0.70907402 C66.72077988 0.73305544 69.17762099 0.76311809 71.63452148 0.79467773 C72.73719109 0.80331093 72.73719109 0.80331093 73.86213684 0.81211853 C78.88594784 0.88594784 78.88594784 0.88594784 80 2 C80.14115161 4.67058851 80.04247107 7.32432238 80 10 C78.5 8.75 78.5 8.75 77 7 C77 5.68 77 4.36 77 3 C76.43133209 3.00222061 75.86266418 3.00444122 75.27676392 3.00672913 C22.60907913 3.20289108 22.60907913 3.20289108 1 2 C0.67 1.34 0.34 0.68 0 0 Z " fill="#D5A160" transform="translate(69,117)"/>
<path d="M0 0 C0 0.99 0 1.98 0 3 C-1.4609375 4.38671875 -1.4609375 4.38671875 -3.375 5.6875 C-4.31472656 6.34298828 -4.31472656 6.34298828 -5.2734375 7.01171875 C-7 8 -7 8 -9 8 C-8.67 9.65 -8.34 11.3 -8 13 C-8.99 13.495 -8.99 13.495 -10 14 C-10.33 13.34 -10.66 12.68 -11 12 C-11.99 13.485 -11.99 13.485 -13 15 C-13.99 15.33 -14.98 15.66 -16 16 C-16.45375 16.99 -16.9075 17.98 -17.375 19 C-19 22 -19 22 -21.6875 22.875 C-22.450625 22.91625 -23.21375 22.9575 -24 23 C-24.66 24.98 -25.32 26.96 -26 29 C-26.66 29 -27.32 29 -28 29 C-27.69306887 23.01484303 -24.77089394 18.50106704 -21 14 C-20.34 14 -19.68 14 -19 14 C-18.814375 13.278125 -18.62875 12.55625 -18.4375 11.8125 C-15.65347573 6.36549599 -10.77404488 4.10598604 -5.125 2.25 C-4.36445312 2.02828125 -3.60390625 1.8065625 -2.8203125 1.578125 C-1.00044064 1.15373897 -1.00044064 1.15373897 0 0 Z " fill="#F47C23" transform="translate(58,33)"/>
<path d="M0 0 C0.73253998 -0.00043808 1.46507996 -0.00087616 2.21981812 -0.00132751 C4.61695959 0.0007458 7.01338263 0.02400651 9.41040039 0.04760742 C11.08191038 0.05320859 12.75342532 0.05747623 14.42494202 0.06047058 C18.80622152 0.0718784 23.18719864 0.10131016 27.56835938 0.13458252 C32.04626374 0.16537141 36.52421737 0.1789947 41.00219727 0.1940918 C49.77512187 0.22618414 58.54780155 0.27733076 67.32055664 0.34057617 C67.32055664 0.67057617 67.32055664 1.00057617 67.32055664 1.34057617 C29.70055664 1.83557617 29.70055664 1.83557617 -8.67944336 2.34057617 C-8.67944336 3.00057617 -8.67944336 3.66057617 -8.67944336 4.34057617 C-13.06405874 7.34057617 -13.06405874 7.34057617 -15.67944336 7.34057617 C-15.67944336 8.00057617 -15.67944336 8.66057617 -15.67944336 9.34057617 C-17.32944336 10.00057617 -18.97944336 10.66057617 -20.67944336 11.34057617 C-18.35316984 5.91260462 -15.0663312 3.20574419 -9.62994194 0.96323204 C-6.41249113 -0.06387182 -3.35992487 -0.01699793 0 0 Z " fill="#C0871F" transform="translate(76.679443359375,59.659423828125)"/>
<path d="M0 0 C0.66 0 1.32 0 2 0 C2.65935547 0.67482422 2.65935547 0.67482422 3.33203125 1.36328125 C5.30357075 3.29788324 7.14942285 4.12077192 9.6875 5.1875 C10.49574219 5.53167969 11.30398437 5.87585938 12.13671875 6.23046875 C13.05904297 6.61138672 13.05904297 6.61138672 14 7 C14 7.66 14 8.32 14 9 C40.235 9.99 40.235 9.99 67 11 C67 11.33 67 11.66 67 12 C60.93515185 12.04980923 54.87042542 12.08591175 48.80541992 12.10986328 C46.74647952 12.11985892 44.68755309 12.13345992 42.62866211 12.15087891 C39.6521457 12.17541262 36.67581859 12.18654775 33.69921875 12.1953125 C32.7935466 12.20563507 31.88787445 12.21595764 30.95475769 12.22659302 C22.04452166 12.22812242 13.92071401 11.25013922 6 7 C4.68 7 3.36 7 2 7 C2 5.68 2 4.36 2 3 C1.01 2.67 0.02 2.34 -1 2 C-0.67 1.34 -0.34 0.68 0 0 Z " fill="#E5872C" transform="translate(46,142)"/>
<path d="M0 0 C0.66 0 1.32 0 2 0 C1.690625 0.598125 1.38125 1.19625 1.0625 1.8125 C-0.10209704 4.08956772 -0.10209704 4.08956772 -1 7 C-1.66 7 -2.32 7 -3 7 C-3.99 14.92 -4.98 22.84 -6 31 C-5.34 31 -4.68 31 -4 31 C-4.33 33.64 -4.66 36.28 -5 39 C-4.34 39 -3.68 39 -3 39 C-2.67 40.65 -2.34 42.3 -2 44 C-2.99 44 -3.98 44 -5 44 C-8.95832535 36.08334931 -8.06719974 27.16398717 -7.3190918 18.62182617 C-7.00903071 14.84205596 -7.193482 11.68981987 -8 8 C-7.67 7.34 -7.34 6.68 -7 6 C-7 5.01 -7 4.02 -7 3 C-3.535 2.505 -3.535 2.505 0 2 C0 1.34 0 0.68 0 0 Z " fill="#F28029" transform="translate(57,65)"/>
<path d="M0 0 C-0.625 2.875 -0.625 2.875 -2 6 C-4.75 7.125 -4.75 7.125 -8 8 C-11.95921527 10.28416266 -14.18805499 11.81858843 -16 16 C-16.99 16.66 -17.98 17.32 -19 18 C-20.33647844 19.971582 -20.33647844 19.971582 -21.5 22.25 C-21.92667969 23.04792969 -22.35335937 23.84585938 -22.79296875 24.66796875 C-24.2235623 27.43193104 -25.63690231 30.20206263 -27 33 C-28.5983074 28.2050778 -26.18558972 24.96703086 -24.06640625 20.56640625 C-19.67235857 12.52926174 -9.97259373 0 0 0 Z " fill="#C57644" transform="translate(55,31)"/>
<path d="M0 0 C2.04426774 1.6682522 2.92260527 2.54496972 3.37231445 5.18896484 C3.3693335 6.02121582 3.36635254 6.8534668 3.36328125 7.7109375 C3.36263672 8.62617188 3.36199219 9.54140625 3.36132812 10.484375 C3.34521484 11.43828125 3.32910156 12.3921875 3.3125 13.375 C3.31733398 14.79425781 3.31733398 14.79425781 3.32226562 16.2421875 C3.25007572 25.58749845 3.25007572 25.58749845 1 29 C-2.73342012 30.88844938 -5.59296904 31.19823695 -9.73828125 30.9765625 C-10.80498047 30.925 -11.87167969 30.8734375 -12.97070312 30.8203125 C-14.07349609 30.75585938 -15.17628906 30.69140625 -16.3125 30.625 C-17.43462891 30.56828125 -18.55675781 30.5115625 -19.71289062 30.453125 C-22.47594074 30.31203308 -25.23802985 30.16065719 -28 30 C-28 29.67 -28 29.34 -28 29 C-27.21761963 28.97494385 -26.43523926 28.9498877 -25.62915039 28.92407227 C-22.10675051 28.80850212 -18.5846444 28.68560051 -15.0625 28.5625 C-13.21495117 28.50352539 -13.21495117 28.50352539 -11.33007812 28.44335938 C-10.16025391 28.40146484 -8.99042969 28.35957031 -7.78515625 28.31640625 C-6.70113525 28.27974854 -5.61711426 28.24309082 -4.50024414 28.20532227 C-2.060737 28.27635735 -2.060737 28.27635735 -1 27 C-0.84174742 25.00217874 -0.74880829 22.99911166 -0.68359375 20.99609375 C-0.64169922 19.78115234 -0.59980469 18.56621094 -0.55664062 17.31445312 C-0.51732422 16.03505859 -0.47800781 14.75566406 -0.4375 13.4375 C-0.39431641 12.15423828 -0.35113281 10.87097656 -0.30664062 9.54882812 C-0.200152 6.36600147 -0.09814038 3.18309326 0 0 Z " fill="#DC941D" transform="translate(146,124)"/>
<path d="M0 0 C1.32 0 2.64 0 4 0 C4.33 2.97 4.66 5.94 5 9 C5.66 9 6.32 9 7 9 C7.66 10.98 8.32 12.96 9 15 C9.66 15 10.32 15 11 15 C11 15.66 11 16.32 11 17 C11.99 17 12.98 17 14 17 C15.37868281 18.62935241 16.71274093 20.29749607 18 22 C18.66 22.33 19.32 22.66 20 23 C20 23.99 20 24.98 20 26 C13.81818378 23.25252612 10.00548983 19.04892169 6.3125 13.5 C5.92255859 12.93152344 5.53261719 12.36304688 5.13085938 11.77734375 C0 4.21700053 0 4.21700053 0 0 Z " fill="#D2783F" transform="translate(28,122)"/>
<path d="M0 0 C-3.75440468 5.97291653 -9.96087808 8.91969993 -16.62890625 10.703125 C-19 11 -19 11 -22 10 C-22 9.34 -22 8.68 -22 8 C-20.95199219 7.85304688 -20.95199219 7.85304688 -19.8828125 7.703125 C-18.97273438 7.55359375 -18.06265625 7.4040625 -17.125 7.25 C-16.22007813 7.11078125 -15.31515625 6.9715625 -14.3828125 6.828125 C-11.83785757 6.22016157 -11.83785757 6.22016157 -10.6796875 3.921875 C-10.45539063 3.28765625 -10.23109375 2.6534375 -10 2 C-9.01 2.33 -8.02 2.66 -7 3 C-7 2.34 -7 1.68 -7 1 C-7.66 0.34 -8.32 -0.32 -9 -1 C-5.79937313 -2.60031344 -3.27728194 -1.03173691 0 0 Z " fill="#3C3635" transform="translate(99,91)"/>
<path d="M0 0 C0.99 0.33 1.98 0.66 3 1 C2.67 1.33 2.34 1.66 2 2 C2.99 2.33 3.98 2.66 5 3 C5.33 3.33 5.66 3.66 6 4 C6.66 3.01 7.32 2.02 8 1 C10.97 1.495 10.97 1.495 14 2 C13.01 3.32 12.02 4.64 11 6 C12.32 6.66 13.64 7.32 15 8 C15 8.33 15 8.66 15 9 C6.27487631 9.44365036 6.27487631 9.44365036 2 6 C-0.3125 3.3125 -0.3125 3.3125 -2 1 C-1.34 0.67 -0.68 0.34 0 0 Z " fill="#352E2E" transform="translate(114,91)"/>
<path d="M0 0 C0.33 0 0.66 0 1 0 C1.01981934 0.56396484 1.03963867 1.12792969 1.06005859 1.70898438 C1.15631811 4.30639574 1.26558052 6.90311103 1.375 9.5 C1.4059375 10.386875 1.436875 11.27375 1.46875 12.1875 C1.65127103 16.32464332 1.93516827 20.18441889 3.03125 24.1875 C4.03178788 28.12510068 4.20288441 31.45001062 4.125 35.5 C4.10695313 36.7271875 4.08890625 37.954375 4.0703125 39.21875 C4.03550781 40.59546875 4.03550781 40.59546875 4 42 C-2.66297265 30.24181297 -0.20815669 12.99217989 0 0 Z " fill="#E1722E" transform="translate(25,80)"/>
<path d="M0 0 C0.66 0.99 1.32 1.98 2 3 C1.34430785 5.00158657 0.67309292 6.99903419 -0.0625 8.97265625 C-2.07427334 15.46900767 -2.91495314 22.29733463 -4 29 C-4.33 29 -4.66 29 -5 29 C-5.2144997 20.72984476 -5.07422976 13.03764031 -3 5 C-2.34 5 -1.68 5 -1 5 C-0.67 3.35 -0.34 1.7 0 0 Z " fill="#C96C3C" transform="translate(29,59)"/>
<path d="M0 0 C2 2 2 2 2.22705078 4.52197266 C2.21657715 5.5588623 2.20610352 6.59575195 2.1953125 7.6640625 C2.18886719 8.78554688 2.18242187 9.90703125 2.17578125 11.0625 C2.15902344 12.238125 2.14226562 13.41375 2.125 14.625 C2.11597656 15.80835938 2.10695312 16.99171875 2.09765625 18.2109375 C2.07402812 21.14082523 2.04108514 24.0703134 2 27 C0.68 27.33 -0.64 27.66 -2 28 C-1.505 26.515 -1.505 26.515 -1 25 C-0.85060226 23.08234406 -0.75189717 21.16053478 -0.68359375 19.23828125 C-0.64169922 18.12001953 -0.59980469 17.00175781 -0.55664062 15.84960938 C-0.51732422 14.68236328 -0.47800781 13.51511719 -0.4375 12.3125 C-0.39431641 11.13365234 -0.35113281 9.95480469 -0.30664062 8.74023438 C-0.20048824 5.82694117 -0.09843758 2.91356243 0 0 Z " fill="#C78A2B" transform="translate(146,32)"/>
<path d="M0 0 C0.66 0 1.32 0 2 0 C3.40318642 4.20955927 1.88224523 6.09608396 0 10 C-0.99 11.485 -0.99 11.485 -2 13 C-5.625 13.6875 -5.625 13.6875 -9 14 C-8.34 13.34 -7.68 12.68 -7 12 C-6.01 12 -5.02 12 -4 12 C-3.67 10.35 -3.34 8.7 -3 7 C-3.99 6.34 -4.98 5.68 -6 5 C-5.01 5 -4.02 5 -3 5 C-3 4.34 -3 3.68 -3 3 C-2.34 3 -1.68 3 -1 3 C-0.67 2.01 -0.34 1.02 0 0 Z " fill="#322D2E" transform="translate(140,86)"/>
<path d="M0 0 C2.62905573 2.28805939 2.97227631 2.71286182 3.328125 6.3984375 C3.30234375 7.71070313 3.2765625 9.02296875 3.25 10.375 C3.23453125 11.68210938 3.2190625 12.98921875 3.203125 14.3359375 C3.03588651 17.3526625 2.70114901 20.07100655 2 23 C0.27793812 20.00873681 -0.24179923 17.89314287 -0.1953125 14.453125 C-0.18886719 13.60878906 -0.18242187 12.76445312 -0.17578125 11.89453125 C-0.15902344 11.02183594 -0.14226562 10.14914063 -0.125 9.25 C-0.11597656 8.36183594 -0.10695312 7.47367188 -0.09765625 6.55859375 C-0.07414577 4.37211942 -0.04128499 2.18619906 0 0 Z " fill="#BF7B1E" transform="translate(146,124)"/>
<path d="M0 0 C0.66 0.33 1.32 0.66 2 1 C1.73445313 1.47566406 1.46890625 1.95132813 1.1953125 2.44140625 C-2.48828031 9.74137302 -3.19404235 16.95102822 -4 25 C-4.33 25 -4.66 25 -5 25 C-5.74098632 8.03964636 -5.74098632 8.03964636 -1 1 C-0.67 0.67 -0.34 0.34 0 0 Z " fill="#C38C5F" transform="translate(58,69)"/>
<path d="M0 0 C2.31 0 4.62 0 7 0 C6.67 0.66 6.34 1.32 6 2 C6.28241883 4.3400417 6.61250787 6.67504723 7 9 C6.01 9 5.02 9 4 9 C3.34 7.02 2.68 5.04 2 3 C1.34 3 0.68 3 0 3 C0 2.01 0 1.02 0 0 Z " fill="#F37829" transform="translate(33,128)"/>
<path d="M0 0 C3.31248187 -0.02888146 6.62493167 -0.04675799 9.9375 -0.0625 C10.88302734 -0.07087891 11.82855469 -0.07925781 12.80273438 -0.08789062 C14.15141602 -0.09272461 14.15141602 -0.09272461 15.52734375 -0.09765625 C16.77632446 -0.10551147 16.77632446 -0.10551147 18.05053711 -0.11352539 C20 0 20 0 21 1 C21.14115161 3.67058851 21.04247107 6.32432238 21 9 C18.23609263 6.59660228 17.95934081 5.83736322 17 2 C11.39 1.67 5.78 1.34 0 1 C0 0.67 0 0.34 0 0 Z " fill="#C29D65" transform="translate(128,118)"/>
<path d="M0 0 C0.66 0.33 1.32 0.66 2 1 C1.01 1.33 0.02 1.66 -1 2 C-1 2.66 -1 3.32 -1 4 C-5.38461538 7 -5.38461538 7 -8 7 C-8 7.66 -8 8.32 -8 9 C-9.65 9.66 -11.3 10.32 -13 11 C-10.94111753 6.19594091 -8.10368505 3.35030813 -3.375 1.1875 C-2.26125 0.795625 -1.1475 0.40375 0 0 Z " fill="#C67A34" transform="translate(69,60)"/>
<path d="M0 0 C0.66 0 1.32 0 2 0 C2 1.65 2 3.3 2 5 C1.401875 5.165 0.80375 5.33 0.1875 5.5 C-3.18527798 7.81276204 -3.8331548 11.19891337 -5 15 C-5.66 15 -6.32 15 -7 15 C-6.69306887 9.01484303 -3.77089394 4.50106704 0 0 Z " fill="#EE7836" transform="translate(37,47)"/>
<path d="M0 0 C-0.33 0.99 -0.66 1.98 -1 3 C-1 2.34 -1 1.68 -1 1 C-1.66 1 -2.32 1 -3 1 C-3.33 2.32 -3.66 3.64 -4 5 C-6.31 4.34 -8.62 3.68 -11 3 C-11 2.34 -11 1.68 -11 1 C-3.375 -1.125 -3.375 -1.125 0 0 Z " fill="#655F61" transform="translate(143,85)"/>
<path d="M0 0 C0.66 0 1.32 0 2 0 C2.1921227 5.47549707 1.99186369 9.86308839 0 15 C-0.99 15.33 -1.98 15.66 -3 16 C-2.01 10.72 -1.02 5.44 0 0 Z " fill="#F37322" transform="translate(30,64)"/>
<path d="M0 0 C-3.46719674 3.17826368 -7.39338378 4.43244975 -12 5 C-12.99 4.67 -13.98 4.34 -15 4 C-15 3.34 -15 2.68 -15 2 C-13.43883181 1.66048381 -11.87598662 1.32867456 -10.3125 1 C-9.44238281 0.814375 -8.57226562 0.62875 -7.67578125 0.4375 C-5.06287036 0.01027953 -2.64186962 -0.07616201 0 0 Z " fill="#312C2C" transform="translate(92,97)"/>
<path d="M0 0 C0 0.66 0 1.32 0 2 C-1.74951568 2.95921722 -3.49963244 3.91733817 -5.25 4.875 C-6.71179688 5.67550781 -6.71179688 5.67550781 -8.203125 6.4921875 C-10.45130408 7.70419466 -12.7072805 8.87547567 -15 10 C-11.91546928 5.3061489 -5.97868281 0 0 0 Z " fill="#C08F65" transform="translate(55,31)"/>
<path d="M0 0 C3.3 0.33 6.6 0.66 10 1 C10 1.33 10 1.66 10 2 C8.35 2 6.7 2 5 2 C5 3.32 5 4.64 5 6 C3.68 6 2.36 6 1 6 C0.67 4.02 0.34 2.04 0 0 Z " fill="#4C4548" transform="translate(66,85)"/>
<path d="M0 0 C5.19644079 1.59890486 10.06612142 3.74138003 15 6 C13 7 13 7 10.46875 6.2578125 C9.4890625 5.88398438 8.509375 5.51015625 7.5 5.125 C6.5203125 4.75632813 5.540625 4.38765625 4.53125 4.0078125 C2 3 2 3 0 2 C0 1.34 0 0.68 0 0 Z " fill="#BA7B3C" transform="translate(50,148)"/>
<path d="M0 0 C0.54269531 0.42152344 1.08539063 0.84304687 1.64453125 1.27734375 C2.35996094 1.82519531 3.07539062 2.37304688 3.8125 2.9375 C4.87404297 3.75541016 4.87404297 3.75541016 5.95703125 4.58984375 C8.04125052 6.16856248 8.04125052 6.16856248 11 7 C11 7.66 11 8.32 11 9 C7.75 8.875 7.75 8.875 4 8 C0 3.17948718 0 3.17948718 0 0 Z " fill="#BD8A51" transform="translate(58,109)"/>
<path d="M0 0 C0.99 1.485 0.99 1.485 2 3 C2.53625 3.515625 3.0725 4.03125 3.625 4.5625 C5 6 5 6 5 8 C5.99 8.33 6.98 8.66 8 9 C8 9.66 8 10.32 8 11 C4.94602429 10.67278832 3.96883223 9.96883223 1.75 7.75 C-0.13357065 4.79010327 -0.39141851 3.42491198 0 0 Z " fill="#322A2C" transform="translate(68,88)"/>
<path d="M0 0 C0.33 0 0.66 0 1 0 C1.99 4.62 2.98 9.24 4 14 C0 12 0 12 -0.8125 9.8125 C-1.03891298 6.41630536 -0.59013922 3.34412227 0 0 Z " fill="#B87F48" transform="translate(54,95)"/>
<path d="M0 0 C0.66 0.33 1.32 0.66 2 1 C2 2.32 2 3.64 2 5 C2.99 5 3.98 5 5 5 C4.67 5.99 4.34 6.98 4 8 C4 7.34 4 6.68 4 6 C3.34 6 2.68 6 2 6 C2 6.66 2 7.32 2 8 C1.34 8 0.68 8 0 8 C-0.38063221 5.6739143 -0.71269945 3.33944736 -1 1 C-0.67 0.67 -0.34 0.34 0 0 Z " fill="#F67A20" transform="translate(50,104)"/>
<path d="M0 0 C0.33 0 0.66 0 1 0 C1 3.96 1 7.92 1 12 C1.66 12 2.32 12 3 12 C3 13.65 3 15.3 3 17 C0.9375 15.25 0.9375 15.25 -1 12 C-1.05803885 7.94255681 -0.58843822 4.01033439 0 0 Z " fill="#E27B28" transform="translate(50,84)"/>
<path d="M0 0 C0 0.99 0 1.98 0 3 C1.65 3 3.3 3 5 3 C4.67 3.66 4.34 4.32 4 5 C-2.04275534 6.36817102 -2.04275534 6.36817102 -5.4375 5.0625 C-5.953125 4.711875 -6.46875 4.36125 -7 4 C-5.35 4 -3.7 4 -2 4 C-2 3.01 -2 2.02 -2 1 C-1.34 0.67 -0.68 0.34 0 0 Z " fill="#4D4747" transform="translate(131,96)"/>
<path d="M0 0 C0.66 0 1.32 0 2 0 C1.690625 0.598125 1.38125 1.19625 1.0625 1.8125 C-0.10209704 4.08956772 -0.10209704 4.08956772 -1 7 C-1.99 7 -2.98 7 -4 7 C-4.33 5.68 -4.66 4.36 -5 3 C-3.35 2.67 -1.7 2.34 0 2 C0 1.34 0 0.68 0 0 Z " fill="#E8852F" transform="translate(57,65)"/>
<path d="M0 0 C0.33 0 0.66 0 1 0 C0.67 2.64 0.34 5.28 0 8 C-1.65 8 -3.3 8 -5 8 C-5 7.34 -5 6.68 -5 6 C-3.68 5.67 -2.36 5.34 -1 5 C-0.67 3.35 -0.34 1.7 0 0 Z " fill="#B28034" transform="translate(148,148)"/>
<path d="M0 0 C0.66 0.33 1.32 0.66 2 1 C-1.12621626 4.39417765 -3.56541027 6.6062718 -8 8 C-6.88333826 4.65001479 -6.25305075 4.20659778 -3.4375 2.3125 C-2.79683594 1.87550781 -2.15617187 1.43851563 -1.49609375 0.98828125 C-1.00238281 0.66214844 -0.50867187 0.33601563 0 0 Z " fill="#E78233" transform="translate(48,37)"/>
<path d="M0 0 C0 2.64 0 5.28 0 8 C-1.5 6.75 -1.5 6.75 -3 5 C-3 3.68 -3 2.36 -3 1 C-1 0 -1 0 0 0 Z " fill="#BE9D4E" transform="translate(149,119)"/>
<path d="M0 0 C-0.33 0.66 -0.66 1.32 -1 2 C-3.97 2 -6.94 2 -10 2 C-5.86678317 -0.75547789 -4.77928863 -1.13193678 0 0 Z " fill="#F78729" transform="translate(77,56)"/>
</svg>
