<?xml version="1.0" encoding="UTF-8"?>
<svg version="1.1" xmlns="http://www.w3.org/2000/svg" width="348" height="180">
<path d="M0 0 C8.94382983 5.39620128 16.34936755 13.29611999 20.0625 23.125 C19.87483317 32.69600842 14.39072109 39.96138578 9.0769043 47.47583008 C2.88477851 56.24184774 -0.44050146 64.40316302 -3.01953125 74.79296875 C-4.20055271 79.03241233 -5.82385073 82.50423877 -8 86.3125 C-11.37726989 85.02136673 -14.51139429 83.53442177 -17.6875 81.8125 C-27.4626317 76.9104739 -38.67481097 75.5806274 -49.25 78.625 C-53.26831875 79.9729983 -57.14554616 81.55285803 -61 83.3125 C-64.29601802 80.01648198 -65.35970765 75.62165087 -67 71.3125 C-67.42152344 70.24515625 -67.84304687 69.1778125 -68.27734375 68.078125 C-71.72325262 59.18176194 -74.84061742 50.16914089 -77.875 41.125 C-78.28065186 39.96178223 -78.68630371 38.79856445 -79.10424805 37.60009766 C-81.78234585 29.46755177 -84.27320169 20.12311067 -81.01708984 11.80004883 C-76.73028043 3.9079377 -69.16857758 0.63070752 -60.9375 -1.875 C-59.77250977 -2.2452832 -59.77250977 -2.2452832 -58.58398438 -2.62304688 C-57.0678385 -3.10446491 -55.54906733 -3.57770568 -54.02758789 -4.04199219 C-52.36666842 -4.57076655 -50.73572866 -5.19286592 -49.1171875 -5.83984375 C-33.79264665 -10.00704345 -14.08997648 -6.98660436 0 0 Z " fill="#E3DACA" transform="translate(208,25.6875)"/>
<path d="M0 0 C0.98613281 -0.00773437 1.97226563 -0.01546875 2.98828125 -0.0234375 C9.46553168 -0.00636965 15.45480449 0.72903642 21.75 2.25 C21.75 2.58 21.75 2.91 21.75 3.25 C11.28020529 3.42321352 11.28020529 3.42321352 6.3125 2.625 C2.63205345 2.23758457 1.74180098 2.35519271 -1.25 4.25 C-3.24220557 4.93960962 -5.24105606 5.61079057 -7.25 6.25 C-7.91 4.93 -8.57 3.61 -9.25 2.25 C-12.5540794 2.96172937 -12.5540794 2.96172937 -13.8125 6.3125 C-16.14162409 12.99340858 -16.52815682 20.25236728 -17.25 27.25 C-18.05824219 27.53617188 -18.86648437 27.82234375 -19.69921875 28.1171875 C-20.96185547 28.67792969 -20.96185547 28.67792969 -22.25 29.25 C-23.13693303 31.29105639 -23.13693303 31.29105639 -23.25 33.25 C-24.57 31.6 -25.89 29.95 -27.25 28.25 C-26.54340553 44.76907817 -26.54340553 44.76907817 -25.25 61.25 C-26.24 61.25 -27.23 61.25 -28.25 61.25 C-28.58 62.24 -28.91 63.23 -29.25 64.25 C-31.92927341 60.23108988 -31.40601248 58.00838077 -31.25 53.25 C-31.91 53.25 -32.57 53.25 -33.25 53.25 C-33.33564209 52.5887915 -33.42128418 51.92758301 -33.50952148 51.24633789 C-33.89779828 48.26780129 -34.2925605 45.29016015 -34.6875 42.3125 C-34.82220703 41.27158203 -34.95691406 40.23066406 -35.09570312 39.15820312 C-35.22783203 38.16884766 -35.35996094 37.17949219 -35.49609375 36.16015625 C-35.61654053 35.24371338 -35.7369873 34.32727051 -35.86108398 33.38305664 C-36.03675073 31.27364788 -36.03675073 31.27364788 -37.25 30.25 C-37.29063832 28.58382885 -37.292721 26.91611905 -37.25 25.25 C-37.91 25.25 -38.57 25.25 -39.25 25.25 C-41.54648649 22.6885343 -42.25 21.77032428 -42.25 18.25 C-42.91 18.25 -43.57 18.25 -44.25 18.25 C-43.816875 19.24 -43.38375 20.23 -42.9375 21.25 C-42.35746321 22.57579838 -41.79951538 23.91126295 -41.25 25.25 C-40.89035156 26.10948242 -40.89035156 26.10948242 -40.5234375 26.98632812 C-38.56447852 31.88372557 -37.57994307 36.53930064 -36.875 41.75 C-35.92143011 48.07974262 -34.60486089 54.14025307 -32.6875 60.25 C-32.47754395 60.92611328 -32.26758789 61.60222656 -32.05126953 62.29882812 C-31.10436566 65.19418321 -30.43338424 67.06661576 -28.25 69.25 C-26.18125966 69.8925235 -26.18125966 69.8925235 -24.25 70.25 C-24.58 71.57 -24.91 72.89 -25.25 74.25 C-23.27 73.26 -21.29 72.27 -19.25 71.25 C-18.59 71.91 -17.93 72.57 -17.25 73.25 C-18.013125 73.930625 -18.77625 74.61125 -19.5625 75.3125 C-22.57843331 78.60898525 -23.70879017 81.11306835 -25.25 85.25 C-24.26386719 84.79947266 -24.26386719 84.79947266 -23.2578125 84.33984375 C-12.08206375 79.87257291 -0.86692049 81.12945102 10.75 83.25 C10.75 83.91 10.75 84.57 10.75 85.25 C9.491875 85.085 8.23375 84.92 6.9375 84.75 C-5.44168695 83.43058823 -14.95856752 85.09521561 -26.25 90.25 C-29.54601802 86.95398198 -30.60970765 82.55915087 -32.25 78.25 C-32.67152344 77.18265625 -33.09304687 76.1153125 -33.52734375 75.015625 C-36.97325262 66.11926194 -40.09061742 57.10664089 -43.125 48.0625 C-43.53065186 46.89928223 -43.93630371 45.73606445 -44.35424805 44.53759766 C-47.03234585 36.40505177 -49.52320169 27.06061067 -46.26708984 18.73754883 C-41.98028043 10.8454377 -34.41857758 7.56820752 -26.1875 5.0625 C-25.02250977 4.6922168 -25.02250977 4.6922168 -23.83398438 4.31445312 C-22.3173662 3.83288512 -20.79802275 3.35980267 -19.27587891 2.89599609 C-17.62295232 2.36892406 -16.00185905 1.74288938 -14.39453125 1.08984375 C-9.61247585 -0.18735117 -4.92656917 -0.03804301 0 0 Z " fill="#F3F0E3" transform="translate(173.25,18.75)"/>
<path d="M0 0 C5.08614535 2.61180437 7.03566547 5.29986331 8.9375 10.625 C9.1402057 21.57110804 1.60932071 30.89006557 -5 39 C-8 41 -8 41 -11 41 C-11.66 44.96 -12.32 48.92 -13 53 C-13.66 53 -14.32 53 -15 53 C-18.32212382 48.87765658 -18.42826177 44.95925704 -18.3125 39.875 C-18.31572266 39.15957031 -18.31894531 38.44414063 -18.32226562 37.70703125 C-18.28362916 33.94875678 -18.13079933 32.19619899 -16 29 C-15.40929986 27.05396726 -15.40929986 27.05396726 -15 25 C-14.35821579 21.97444588 -13.79672498 20.69508748 -12 18 C-11.71125 16.741875 -11.4225 15.48375 -11.125 14.1875 C-9.89083098 8.98294227 -7.82531212 5.23102445 -3.3125 2.1875 C-2.549375 1.795625 -1.78625 1.40375 -1 1 C-0.67 0.67 -0.34 0.34 0 0 Z " fill="#C0B5A2" transform="translate(219,38)"/>
<path d="M0 0 C2.97851562 0.390625 2.97851562 0.390625 5.95703125 0.78125 C8.15471706 1.053233 8.15471706 1.053233 11 1 C11 1.99 11 2.98 11 4 C19.00904244 7.62792048 25.25613919 9.99352131 34 8 C34.50338797 13.28557366 33.34676996 15.90950339 30 20 C25.55194112 22.77061295 21.0812429 22.61706248 16 22 C11.74361827 20.67658719 8.82169439 18.97109337 5.9375 15.5625 C4.84419745 12.5741397 5.05680229 11.00108364 6 8 C5.01 7.4225 4.02 6.845 3 6.25 C2.01 5.5075 1.02 4.765 0 4 C0 2.68 0 1.36 0 0 Z " fill="#59493D" transform="translate(169,139)"/>
<path d="M0 0 C2.0625 1.0625 2.0625 1.0625 3 3 C3.06296404 6.40005838 2.97060406 8.86424839 0.69140625 11.53125 C-4.18656733 15.71584579 -8.23513958 16.34847079 -14.421875 16.28515625 C-18.50996901 15.83298828 -20.71290525 14.46532106 -24 12 C-26.42330559 8.83916662 -26.1768414 5.8905109 -26 2 C-25.28714844 2.10699219 -24.57429687 2.21398437 -23.83984375 2.32421875 C-15.01586683 3.42870038 -8.64453676 -0.86445368 0 0 Z " fill="#6E5D51" transform="translate(170,145)"/>
<path d="M0 0 C4.09803036 2.42273493 4.92630965 4.87589646 6.1875 9.375 C6.67283203 11.05722656 6.67283203 11.05722656 7.16796875 12.7734375 C8.76663918 18.97297633 9.46901803 25.0762525 10.0625 31.4375 C10.15337891 32.36626953 10.24425781 33.29503906 10.33789062 34.25195312 C10.77339307 38.85256166 11.11588172 43.3724565 11 48 C10.01 48 9.02 48 8 48 C7.67 48.99 7.34 49.98 7 51 C4.32072659 46.98108988 4.84398752 44.75838077 5 40 C4.34 40 3.68 40 3 40 C0.86713362 26.57126153 -0.45334685 13.60040553 0 0 Z " fill="#FAF5E5" transform="translate(137,32)"/>
<path d="M0 0 C0.6875 1.8125 0.6875 1.8125 1 4 C-1.04218599 6.51345969 -3.28990287 7.80995382 -6.1875 9.1875 C-6.90292969 9.53167969 -7.61835938 9.87585938 -8.35546875 10.23046875 C-8.89816406 10.48441406 -9.44085938 10.73835938 -10 11 C-9.14535156 11.39832031 -8.29070312 11.79664063 -7.41015625 12.20703125 C-5.75306641 13.00173828 -5.75306641 13.00173828 -4.0625 13.8125 C-2.96035156 14.33457031 -1.85820312 14.85664063 -0.72265625 15.39453125 C2 17 2 17 3 20 C2.34 20.99 1.68 21.98 1 23 C-4.39026228 22.47104903 -8.24229489 20.53666304 -12.875 17.9375 C-13.56335938 17.56044922 -14.25171875 17.18339844 -14.9609375 16.79492188 C-16.6449213 15.87106965 -18.32307467 14.93660333 -20 14 C-19.25 9.25 -19.25 9.25 -17 7 C-5.93569132 -0.37620579 -5.93569132 -0.37620579 0 0 Z " fill="#584F45" transform="translate(141,117)"/>
<path d="M0 0 C-0.20496094 0.82242187 -0.40992188 1.64484375 -0.62109375 2.4921875 C-2.27158004 9.33104455 -3.54023916 15.97675688 -4 23 C-4.804375 23.2475 -5.60875 23.495 -6.4375 23.75 C-9.171081 24.72238859 -9.171081 24.72238859 -9.8125 27.125 C-9.874375 27.74375 -9.93625 28.3625 -10 29 C-11.89955317 27.17959488 -12.94970691 25.74830019 -13.12890625 23.08203125 C-13.08321882 21.56359616 -13.03074985 20.04535482 -12.97265625 18.52734375 C-13.0189829 14.24543784 -14.02851973 10.15481296 -15 6 C-12.35261084 4.5393715 -11.10551666 4 -8 4 C-8 3.34 -8 2.68 -8 2 C-2.25 0 -2.25 0 0 0 Z " fill="#F9F6E9" transform="translate(160,23)"/>
<path d="M0 0 C9.95537651 3.62381094 9.95537651 3.62381094 13.57421875 7.36328125 C13.90421875 8.35328125 14.23421875 9.34328125 14.57421875 10.36328125 C11.61320633 13.45698055 8.4973724 16.10371388 5.07421875 18.67578125 C4.13578125 19.39378906 3.19734375 20.11179688 2.23046875 20.8515625 C-0.42578125 22.36328125 -0.42578125 22.36328125 -2.76953125 22.09375 C-3.31609375 21.85269531 -3.86265625 21.61164063 -4.42578125 21.36328125 C-4.05508417 18.64483602 -3.66838346 17.5776739 -1.578125 15.73046875 C-0.84722656 15.23804688 -0.11632812 14.745625 0.63671875 14.23828125 C2.8118506 12.80431928 2.8118506 12.80431928 4.57421875 11.36328125 C4.57421875 10.70328125 4.57421875 10.04328125 4.57421875 9.36328125 C1.27421875 7.71328125 -2.02578125 6.06328125 -5.42578125 4.36328125 C-5.09578125 3.04328125 -4.76578125 1.72328125 -4.42578125 0.36328125 C-2.42578125 -0.63671875 -2.42578125 -0.63671875 0 0 Z " fill="#655E58" transform="translate(207.42578125,116.63671875)"/>
<path d="M0 0 C2.97851562 0.390625 2.97851562 0.390625 5.95703125 0.78125 C8.15471706 1.053233 8.15471706 1.053233 11 1 C11 1.99 11 2.98 11 4 C19.00904244 7.62792048 25.25613919 9.99352131 34 8 C34 9.98 34 11.96 34 14 C33.67 14 33.34 14 33 14 C33 12.35 33 10.7 33 9 C32.01 9.66 31.02 10.32 30 11 C25.09863361 11.36991444 21.60338712 10.53446237 17 9 C14.63439792 9.32855584 13.12997359 9.93501321 11 11 C12.07401108 13.91517292 12.77810176 15.77810176 15 18 C15.66 18.66 16.32 19.32 17 20 C19.66949409 20.24315656 19.66949409 20.24315656 22.625 20.125 C23.62789062 20.10695312 24.63078125 20.08890625 25.6640625 20.0703125 C26.43492187 20.04710937 27.20578125 20.02390625 28 20 C25.55049379 22.44950621 24.75276979 22.32271254 21.375 22.375 C16.15851396 22.26176224 12.21540986 21.10609147 8 18 C5.9375 15.5625 5.9375 15.5625 5 13 C5.3125 10.1875 5.3125 10.1875 6 8 C5.01 7.4225 4.02 6.845 3 6.25 C2.01 5.5075 1.02 4.765 0 4 C0 2.68 0 1.36 0 0 Z " fill="#6F6156" transform="translate(169,139)"/>
<path d="M0 0 C0.99515625 -0.01224609 1.9903125 -0.02449219 3.015625 -0.03710938 C9.53745539 -0.04988058 15.53776612 0.64471134 21.875 2.1875 C21.875 2.5175 21.875 2.8475 21.875 3.1875 C11.40520529 3.36071352 11.40520529 3.36071352 6.4375 2.5625 C2.75705345 2.17508457 1.86680098 2.29269271 -1.125 4.1875 C-3.11720557 4.87710962 -5.11605606 5.54829057 -7.125 6.1875 C-7.785 4.8675 -8.445 3.5475 -9.125 2.1875 C-9.73988281 2.47625 -10.35476562 2.765 -10.98828125 3.0625 C-12.20064453 3.619375 -12.20064453 3.619375 -13.4375 4.1875 C-14.23800781 4.55875 -15.03851563 4.93 -15.86328125 5.3125 C-18.125 6.1875 -18.125 6.1875 -21.125 6.1875 C-21.125 6.8475 -21.125 7.5075 -21.125 8.1875 C-23.105 8.8475 -25.085 9.5075 -27.125 10.1875 C-26.980625 10.86296875 -26.83625 11.5384375 -26.6875 12.234375 C-26.501875 13.12640625 -26.31625 14.0184375 -26.125 14.9375 C-25.939375 15.81921875 -25.75375 16.7009375 -25.5625 17.609375 C-25.125 20.1875 -25.125 20.1875 -25.125 24.1875 C-26.115 23.8575 -27.105 23.5275 -28.125 23.1875 C-29.14453125 21.0078125 -29.14453125 21.0078125 -29.9375 18.3125 C-30.21207031 17.42820312 -30.48664063 16.54390625 -30.76953125 15.6328125 C-31.125 13.1875 -31.125 13.1875 -29.125 10.1875 C-30.775 10.1875 -32.425 10.1875 -34.125 10.1875 C-31.41944257 8.38379505 -29.12848838 7.35625833 -26.125 6.1875 C-23.32363424 4.91198453 -20.53459709 3.611958 -17.74609375 2.30859375 C-11.86623119 -0.20634001 -6.3155856 0.00399721 0 0 Z " fill="#EDE9E1" transform="translate(173.125,18.8125)"/>
<path d="M0 0 C1.65 0.33 3.3 0.66 5 1 C4.731875 1.515625 4.46375 2.03125 4.1875 2.5625 C1.12435691 8.85000424 -1.00063967 15.09388686 -2.9375 21.81640625 C-4 25 -4 25 -5.58984375 28.1640625 C-7.22092095 31.44428977 -7.50533281 34.39599617 -8 38 C-8.99 38.495 -8.99 38.495 -10 39 C-10.54188497 30.07696088 -10.5494943 23.54985361 -6.3046875 15.50390625 C-4.69767676 12.41979282 -3.68648584 9.28999954 -2.67578125 5.97265625 C-1.95565241 3.87054606 -1.0329775 1.96485507 0 0 Z " fill="#BFB29F" transform="translate(200,25)"/>
<path d="M0 0 C2 2 2 2 2.25 5.4375 C2 9 2 9 0 12 C-2.3125 13 -2.3125 13 -5 13 C-8.38234053 10.51961695 -9.81263427 9.04092073 -10.5625 4.875 C-10 2 -10 2 -8.375 0.0625 C-5.18435542 -1.36489363 -3.32060787 -0.93843266 0 0 Z " fill="#CAC1BB" transform="translate(164,123)"/>
<path d="M0 0 C1.9375 2.125 1.9375 2.125 3 5 C2.78233633 8.70028236 2.64508959 10.35491041 0 13 C-3.07108055 13.3267107 -5.15050101 13.48138276 -7.875 11.9375 C-9.64273274 8.8930714 -9.36823916 6.4368988 -9 3 C-6.85785743 -0.68924553 -3.99112428 -0.66518738 0 0 Z " fill="#A29890" transform="translate(190,122)"/>
<path d="M0 0 C0.66 0 1.32 0 2 0 C1.68872484 1.58357459 1.37592711 3.16684993 1.0625 4.75 C0.88847656 5.63171875 0.71445313 6.5134375 0.53515625 7.421875 C0.2225728 8.92775148 -0.11549836 10.42951712 -0.51487732 11.91473389 C-1.3385207 15.45510769 -1.3628329 19.08323285 -1.53515625 22.703125 C-1.57813339 23.54091492 -1.62111053 24.37870483 -1.66539001 25.24188232 C-1.80146415 27.91108274 -1.93205291 30.58051925 -2.0625 33.25 C-2.15393507 35.06251829 -2.24572778 36.87501857 -2.33789062 38.6875 C-2.56274025 43.12480196 -2.78267153 47.56232357 -3 52 C-5 50 -5 50 -5.24291992 47.19360352 C-5.23881104 46.01725342 -5.23470215 44.84090332 -5.23046875 43.62890625 C-5.22853516 42.33146484 -5.22660156 41.03402344 -5.22460938 39.69726562 C-5.21840576 39.01704346 -5.21220215 38.33682129 -5.20581055 37.63598633 C-5.18784523 35.60159395 -5.18529904 33.56766562 -5.18554688 31.53320312 C-5.09019825 10.01619655 -5.09019825 10.01619655 -1.9375 3.8125 C-1.57527344 3.07644531 -1.21304688 2.34039063 -0.83984375 1.58203125 C-0.56269531 1.05996094 -0.28554687 0.53789062 0 0 Z " fill="#CDC5AF" transform="translate(180,26)"/>
<path d="M0 0 C1 3 1 3 0 6 C-1.23438941 19.27351698 0.54803254 32.13180031 3.125 45.12109375 C3.84287983 48.80513524 4.20134246 52.23112076 4 56 C2 55 2 55 0.9765625 51.93359375 C-2.01638031 40.40402835 -3.28183749 29.09086832 -3.3125 17.1875 C-3.31781738 16.15568604 -3.32313477 15.12387207 -3.32861328 14.06079102 C-3.22658107 3.22658107 -3.22658107 3.22658107 0 0 Z " fill="#B3A995" transform="translate(160,24)"/>
<path d="M0 0 C0.66 0 1.32 0 2 0 C5 4.38461538 5 4.38461538 5 7 C5.66 7 6.32 7 7 7 C9.13608796 12.51667934 9.86058247 18.04826636 10.625 23.875 C10.7590625 24.83019531 10.893125 25.78539063 11.03125 26.76953125 C11.76587018 32.23420582 12.14335624 37.48730103 12 43 C9.74214042 40.74214042 9.59613656 39.90436954 9.03515625 36.8515625 C8.876521 36.01633057 8.71788574 35.18109863 8.55444336 34.32055664 C8.39210205 33.43102295 8.22976074 32.54148926 8.0625 31.625 C7.71286223 29.80301501 7.36130441 27.98139741 7.0078125 26.16015625 C6.83668945 25.27473145 6.66556641 24.38930664 6.48925781 23.47705078 C5.86631812 20.32318546 5.18122621 17.19006444 4.4375 14.0625 C4.22996094 13.18722656 4.02242187 12.31195313 3.80859375 11.41015625 C3.06308791 8.88315697 3.06308791 8.88315697 1.41015625 6.43359375 C0 4 0 4 0 0 Z " fill="#B8B4A0" transform="translate(129,37)"/>
<path d="M0 0 C0.6875 1.8125 0.6875 1.8125 1 4 C-1.04218599 6.51345969 -3.28990287 7.80995382 -6.1875 9.1875 C-6.90292969 9.53167969 -7.61835938 9.87585938 -8.35546875 10.23046875 C-8.89816406 10.48441406 -9.44085938 10.73835938 -10 11 C-9.01 11.99 -8.02 12.98 -7 14 C-8.65 13.67 -10.3 13.34 -12 13 C-12 11.33333333 -12 9.66666667 -12 8 C-15.25543229 8.34879632 -16.01873107 9.02133261 -18.25 11.5625 C-18.8275 12.366875 -19.405 13.17125 -20 14 C-19.73077143 10.76925722 -19.32256093 9.32256093 -17 7 C-5.93569132 -0.37620579 -5.93569132 -0.37620579 0 0 Z " fill="#BBB3AA" transform="translate(141,117)"/>
<path d="M0 0 C1 1 1 1 1.1875 3.9375 C1 7 1 7 -1 9 C-3.375 9.8125 -3.375 9.8125 -6 10 C-8.0625 8.6875 -8.0625 8.6875 -10 7 C-11.31836295 6.30419733 -12.64791086 5.62775567 -14 5 C-14 4.34 -14 3.68 -14 3 C-12.35 3 -10.7 3 -9 3 C-8.67 2.01 -8.34 1.02 -8 0 C-5.11795733 -1.44102133 -3.08226581 -0.65580124 0 0 Z " fill="#554234" transform="translate(170,147)"/>
<path d="M0 0 C2.97851562 0.390625 2.97851562 0.390625 5.95703125 0.78125 C8.15471706 1.053233 8.15471706 1.053233 11 1 C11 1.99 11 2.98 11 4 C19.00904244 7.62792048 25.25613919 9.99352131 34 8 C34 9.98 34 11.96 34 14 C33.67 14 33.34 14 33 14 C33 12.35 33 10.7 33 9 C32.01 9.66 31.02 10.32 30 11 C24.94755414 11.49533783 21.58583441 10.55423643 17.04296875 8.65625 C14.8351714 7.94705315 13.18103524 7.89458125 10.875 8 C6.60836424 8 4.47168912 7.45558499 1 5 C0.125 2.3125 0.125 2.3125 0 0 Z " fill="#C7C3BF" transform="translate(169,139)"/>
<path d="M0 0 C0 0.66 0 1.32 0 2 C-1.8871875 1.7525 -1.8871875 1.7525 -3.8125 1.5 C-16.19168695 0.18058823 -25.70856752 1.84521561 -37 7 C-39.5654594 4.4345406 -39.54046087 2.52313332 -40 -1 C-39.34 -1 -38.68 -1 -38 -1 C-38 -0.01 -38 0.98 -38 2 C-37.28199219 1.69964844 -36.56398437 1.39929688 -35.82421875 1.08984375 C-24.00021986 -3.25396655 -12.24039259 -2.25946252 0 0 Z " fill="#F3F1EB" transform="translate(184,102)"/>
<path d="M0 0 C5.28 0 10.56 0 16 0 C16.66 1.65 17.32 3.3 18 5 C14.79226388 6.06924537 12.37015182 6.16684956 9 6.1875 C7.948125 6.20167969 6.89625 6.21585937 5.8125 6.23046875 C3 6 3 6 0 4 C0 2.68 0 1.36 0 0 Z " fill="#E2E0DF" transform="translate(150,114)"/>
<path d="M0 0 C0.33 0 0.66 0 1 0 C0.97679688 0.81984375 0.95359375 1.6396875 0.9296875 2.484375 C0.91164063 3.56203125 0.89359375 4.6396875 0.875 5.75 C0.85179688 6.81734375 0.82859375 7.8846875 0.8046875 8.984375 C1.00410326 12.0633543 1.50646468 13.3723904 3 16 C6.05146607 23.63341825 8.57370325 30.75826274 9 39 C7 36 7 36 7 34 C6.34 34 5.68 34 5 34 C-2.43680161 13.0397288 -2.43680161 13.0397288 -1 2 C-0.67 1.34 -0.34 0.68 0 0 Z " fill="#E9E6DF" transform="translate(127,38)"/>
<path d="M0 0 C-0.66 0.66 -1.32 1.32 -2 2 C-2.99 2 -3.98 2 -5 2 C-5 2.66 -5 3.32 -5 4 C-6.98 4.66 -8.96 5.32 -11 6 C-10.855625 6.67546875 -10.71125 7.3509375 -10.5625 8.046875 C-10.376875 8.93890625 -10.19125 9.8309375 -10 10.75 C-9.814375 11.63171875 -9.62875 12.5134375 -9.4375 13.421875 C-9 16 -9 16 -9 20 C-9.99 19.67 -10.98 19.34 -12 19 C-13.01953125 16.8203125 -13.01953125 16.8203125 -13.8125 14.125 C-14.08707031 13.24070312 -14.36164063 12.35640625 -14.64453125 11.4453125 C-15 9 -15 9 -13 6 C-14.65 6 -16.3 6 -18 6 C-15.30800971 4.20533981 -12.98674972 3.16556086 -10 2 C-9.360625 1.62875 -8.72125 1.2575 -8.0625 0.875 C-5.31563094 -0.29033839 -2.94998931 -0.13409042 0 0 Z " fill="#E8E7DC" transform="translate(157,23)"/>
<path d="M0 0 C9.95537651 3.62381094 9.95537651 3.62381094 13.57421875 7.36328125 C13.90421875 8.35328125 14.23421875 9.34328125 14.57421875 10.36328125 C14.24421875 11.02328125 13.91421875 11.68328125 13.57421875 12.36328125 C12.91421875 12.03328125 12.25421875 11.70328125 11.57421875 11.36328125 C11.24421875 10.04328125 10.91421875 8.72328125 10.57421875 7.36328125 C7.93421875 6.70328125 5.29421875 6.04328125 2.57421875 5.36328125 C2.57421875 6.02328125 2.57421875 6.68328125 2.57421875 7.36328125 C-0.8004084 6.81604442 -2.50813125 6.30838125 -5.42578125 4.36328125 C-5.05078125 2.42578125 -5.05078125 2.42578125 -4.42578125 0.36328125 C-2.42578125 -0.63671875 -2.42578125 -0.63671875 0 0 Z " fill="#A29C98" transform="translate(207.42578125,116.63671875)"/>
<path d="M0 0 C3.46755485 3.46755485 3.23777559 7.15685436 3.53515625 11.85546875 C3.59962196 12.84792351 3.59962196 12.84792351 3.66539001 13.86042786 C3.80150665 15.9692317 3.93207347 18.07833734 4.0625 20.1875 C4.15393101 21.61916404 4.24572364 23.05080503 4.33789062 24.48242188 C4.56278709 27.98802377 4.78270829 31.49391758 5 35 C-0.47741326 29.52258674 0.5970069 18.14572601 0.375 10.875 C0.33632812 9.823125 0.29765625 8.77125 0.2578125 7.6875 C0.16463659 5.12516244 0.07882618 2.56281221 0 0 Z " fill="#B5AE9D" transform="translate(145,45)"/>
<path d="M0 0 C3.68266103 0.59950296 7.34543185 1.24758891 11 2 C11 2.33 11 2.66 11 3 C8.69 3 6.38 3 4 3 C4 4.65 4 6.3 4 8 C4.66 8 5.32 8 6 8 C6 8.99 6 9.98 6 11 C9.46222615 12.06723961 12.64039266 12.10173486 16.25 12.0625 C17.86648437 12.04896484 17.86648437 12.04896484 19.515625 12.03515625 C20.74539062 12.01775391 20.74539062 12.01775391 22 12 C17.73057217 14.84628522 14.01158164 14.62265105 9 14 C5.52241569 12.76888439 2.84318266 11.09980347 0.5625 8.125 C-0.16760207 5.36683664 -0.1290279 2.83861378 0 0 Z " fill="#988D85" transform="translate(144,147)"/>
<path d="M0 0 C0.33 0 0.66 0 1 0 C1.10815225 1.76949095 1.18566083 3.54087487 1.25 5.3125 C1.29640625 6.29863281 1.3428125 7.28476562 1.390625 8.30078125 C1 11 1 11 -0.96875 12.6875 C-1.6390625 13.120625 -2.309375 13.55375 -3 14 C-3.8042208 16.59855733 -3.8042208 16.59855733 -4 19 C-4.33 19 -4.66 19 -5 19 C-5.95498418 14.2250791 -6.24243031 9.84860624 -6 5 C-5.34 4.34 -4.68 3.68 -4 3 C-3.67 3.99 -3.34 4.98 -3 6 C-0.8614515 3.8614515 -0.57344937 2.86724686 0 0 Z " fill="#F3EDDA" transform="translate(145,53)"/>
<path d="M0 0 C1.32 0 2.64 0 4 0 C4.33 1.32 4.66 2.64 5 4 C4.195625 4.61875 3.39125 5.2375 2.5625 5.875 C-0.03874519 7.74164041 -0.03874519 7.74164041 -1 10 C0.65 9.67 2.3 9.34 4 9 C1.74259377 11.33524782 -0.2805761 13.18705073 -3 15 C-5.1875 14.625 -5.1875 14.625 -7 14 C-6.62930292 11.28155477 -6.24260221 10.21439265 -4.15234375 8.3671875 C-3.42144531 7.87476563 -2.69054687 7.38234375 -1.9375 6.875 C0.23763185 5.44103803 0.23763185 5.44103803 2 4 C2 3.34 2 2.68 2 2 C1.34 1.34 0.68 0.68 0 0 Z " fill="#A5A19E" transform="translate(210,124)"/>
<path d="M0 0 C1.485 0.99 1.485 0.99 3 2 C3 2.66 3 3.32 3 4 C3.99 3.67 4.98 3.34 6 3 C7.0625 4.875 7.0625 4.875 8 7 C7.67 7.66 7.34 8.32 7 9 C6.34 9 5.68 9 5 9 C4.67 11.64 4.34 14.28 4 17 C3.01 17 2.02 17 1 17 C0.91995518 13.4780279 0.95994298 10.38018531 2 7 C1.34 6.67 0.68 6.34 0 6 C0 4.02 0 2.04 0 0 Z " fill="#C1B5A3" transform="translate(196,93)"/>
<path d="M0 0 C1.125 3.75 1.125 3.75 0 6 C0.66 6 1.32 6 2 6 C2.33 5.34 2.66 4.68 3 4 C2.55171782 6.61497941 2.03223556 8.92344056 1 11.375 C-0.16259091 14.12515947 -0.16259091 14.12515947 -0.5 17.75 C-0.665 18.8225 -0.83 19.895 -1 21 C-1.66 21.33 -2.32 21.66 -3 22 C-3.55353075 6.07061503 -3.55353075 6.07061503 0 0 Z " fill="#D0C7B3" transform="translate(193,42)"/>
<path d="M0 0 C1.65 0 3.3 0 5 0 C4.7525 0.639375 4.505 1.27875 4.25 1.9375 C3.92103169 5.96736184 5.33432912 8.29903915 7.1875 11.81640625 C8.13883952 14.37313121 8.04772535 15.50619539 7 18 C6.34 18.33 5.68 18.66 5 19 C4.72285156 18.07316406 4.44570312 17.14632812 4.16015625 16.19140625 C3.61681641 14.39509766 3.61681641 14.39509766 3.0625 12.5625 C2.70285156 11.36753906 2.34320313 10.17257813 1.97265625 8.94140625 C1.29110858 6.14132455 1.29110858 6.14132455 0 5 C-0.04063832 3.33382885 -0.042721 1.66611905 0 0 Z " fill="#DDD5C4" transform="translate(139,29)"/>
<path d="M0 0 C1.4835001 0.42257276 2.96176424 0.86356322 4.4375 1.3125 C5.67306641 1.67794922 5.67306641 1.67794922 6.93359375 2.05078125 C7.95646484 2.52064453 7.95646484 2.52064453 9 3 C9.33 3.99 9.66 4.98 10 6 C9.01 7.485 9.01 7.485 8 9 C3.43545749 8.45660208 0.0271824 7.20536179 -4 5 C-0.98968256 4.06576355 -0.13349732 3.95550089 3 5 C3.22609337 2.87635519 3.22609337 2.87635519 1.5 1.375 C1.005 0.92125 0.51 0.4675 0 0 Z " fill="#9E9692" transform="translate(134,131)"/>
<path d="M0 0 C2.31 0 4.62 0 7 0 C5.68 0.33 4.36 0.66 3 1 C3 2.32 3 3.64 3 5 C3.99 5 4.98 5 6 5 C6 4.01 6 3.02 6 2 C6.66 2 7.32 2 8 2 C8.04254356 3.99954746 8.04080783 6.00041636 8 8 C7 9 7 9 4.5625 9.25 C3.716875 9.1675 2.87125 9.085 2 9 C-0.29013653 5.5647952 -0.17842973 4.014669 0 0 Z " fill="#524741" transform="translate(156,125)"/>
<path d="M0 0 C0.721875 0.103125 1.44375 0.20625 2.1875 0.3125 C2.875 2.125 2.875 2.125 3.1875 4.3125 C2.25 6.0625 2.25 6.0625 0.1875 7.3125 C-2.53146511 7.5640578 -5.07061768 7.44734667 -7.8125 7.3125 C-7.8125 5.3125 -7.8125 5.3125 -5.625 2.6875 C-2.8125 0.3125 -2.8125 0.3125 0 0 Z " fill="#87817B" transform="translate(138.8125,116.6875)"/>
<path d="M0 0 C0.66 0 1.32 0 2 0 C5 4.38461538 5 4.38461538 5 7 C5.66 7 6.32 7 7 7 C7.33 11.29 7.66 15.58 8 20 C6 19 6 19 5 16.3828125 C4.67 15.30773437 4.34 14.23265625 4 13.125 C2.91783854 9.61642963 2.04716833 7.07075249 0 4 C0 2.68 0 1.36 0 0 Z " fill="#ABA28F" transform="translate(129,37)"/>
<path d="M0 0 C0.99 0.33 1.98 0.66 3 1 C3.33 3.97 3.66 6.94 4 10 C2 8.1875 2 8.1875 0 6 C0 5.01 0 4.02 0 3 C-0.66 3 -1.32 3 -2 3 C-1.01 5.97 -0.02 8.94 1 12 C0.01 12 -0.98 12 -2 12 C-2.33 13.65 -2.66 15.3 -3 17 C-3.33 17 -3.66 17 -4 17 C-4.08950818 11.89803399 -4.10279554 7.01270702 -3 2 C-2.01 1.34 -1.02 0.68 0 0 Z " fill="#DBD3C5" transform="translate(131,34)"/>
<path d="M0 0 C0 3 0 3 -1.5 4.6875 C-1.995 5.120625 -2.49 5.55375 -3 6 C-1.35 6 0.3 6 2 6 C2.33 5.34 2.66 4.68 3 4 C3 5.65 3 7.3 3 9 C0.69 9 -1.62 9 -4 9 C-5.35439668 6.29120665 -5.06501451 3.99066732 -5 1 C-2 0 -2 0 0 0 Z " fill="#544A42" transform="translate(187,124)"/>
<path d="M0 0 C0.99 0.495 0.99 0.495 2 1 C2.81640625 3.58203125 2.81640625 3.58203125 3.5625 6.8125 C3.81128906 7.87082031 4.06007812 8.92914063 4.31640625 10.01953125 C4.54199219 11.00308594 4.76757812 11.98664063 5 13 C5.32973547 14.33422764 5.66135727 15.66800526 6 17 C3 16 3 16 2.05078125 14.1796875 C0.46995165 9.24482262 -0.33070393 5.18102823 0 0 Z " fill="#E5E2DB" transform="translate(136,77)"/>
<path d="M0 0 C1.96054405 3.45978362 2.11484213 5.99417284 2.00390625 9.98046875 C1.99861127 12.71797549 2.52176911 15.30995122 3 18 C3.03622333 19.66627298 3.04899842 21.33405374 3 23 C2.01 23 1.02 23 0 23 C-1.125 18.25 -1.125 18.25 0 16 C0.07181821 13.28239892 0.09299506 10.59140612 0.0625 7.875 C0.05798828 7.12089844 0.05347656 6.36679688 0.04882812 5.58984375 C0.03703499 3.72652873 0.01909942 1.86325445 0 0 Z " fill="#ECE7DA" transform="translate(149,60)"/>
<path d="M0 0 C0.66 0.33 1.32 0.66 2 1 C3.0149136 6.68351614 3.12001711 12.23917868 3 18 C2.67 18 2.34 18 2 18 C1.01 13.38 0.02 8.76 -1 4 C-2.32 4.33 -3.64 4.66 -5 5 C-4 2 -4 2 -2.0625 0.75 C-1.381875 0.5025 -0.70125 0.255 0 0 Z " fill="#EAE3D6" transform="translate(134,31)"/>
<path d="M0 0 C6.15234375 -0.09765625 6.15234375 -0.09765625 8 0 C9 1 9 1 9.0625 4.5625 C9.041875 5.696875 9.02125 6.83125 9 8 C8.34 8 7.68 8 7 8 C7 6.35 7 4.7 7 3 C6.34 3 5.68 3 5 3 C5 3.99 5 4.98 5 6 C4.01 6 3.02 6 2 6 C2 4.68 2 3.36 2 2 C1.34 1.34 0.68 0.68 0 0 Z " fill="#A0988F" transform="translate(157,124)"/>
<path d="M0 0 C0.99 0.33 1.98 0.66 3 1 C4.39044898 4.87862084 5 7.86462003 5 12 C4.01 11.67 3.02 11.34 2 11 C1.05078125 8.71484375 1.05078125 8.71484375 0.3125 5.9375 C0.06113281 5.01839844 -0.19023437 4.09929688 -0.44921875 3.15234375 C-0.63097656 2.44207031 -0.81273437 1.73179688 -1 1 C-0.67 0.67 -0.34 0.34 0 0 Z " fill="#ECE4D1" transform="translate(143,31)"/>
<path d="M0 0 C0.598125 0.226875 1.19625 0.45375 1.8125 0.6875 C1.4825 1.285625 1.1525 1.88375 0.8125 2.5 C-0.39537988 4.74136471 -0.39537988 4.74136471 -0.1875 7.6875 C-3.1575 7.1925 -3.1575 7.1925 -6.1875 6.6875 C-5.78066505 4.32785727 -5.28935661 2.82815912 -3.875 0.875 C-2.1875 -0.3125 -2.1875 -0.3125 0 0 Z " fill="#4F453A" transform="translate(128.1875,124.3125)"/>
<path d="M0 0 C2.03219488 3.40351338 2.36891039 6.3232927 2.625 10.25 C2.69976562 11.32765625 2.77453125 12.4053125 2.8515625 13.515625 C2.92503906 14.74539062 2.92503906 14.74539062 3 16 C1 15 1 15 -0.1875 11.9375 C-1.31225083 7.73494264 -0.74541559 4.24886887 0 0 Z " fill="#C2BAAA" transform="translate(161,64)"/>
<path d="M0 0 C1 3 1 3 0 6 C-0.14492123 7.40664926 -0.24628931 8.8181133 -0.31640625 10.23046875 C-0.35830078 11.03291016 -0.40019531 11.83535156 -0.44335938 12.66210938 C-0.50233398 13.91217773 -0.50233398 13.91217773 -0.5625 15.1875 C-0.60568359 16.03248047 -0.64886719 16.87746094 -0.69335938 17.74804688 C-0.79931518 19.83184433 -0.9001502 21.91590103 -1 24 C-1.33 24 -1.66 24 -2 24 C-2.2224897 21.10462723 -2.42843154 18.20965101 -2.625 15.3125 C-2.68945312 14.49587891 -2.75390625 13.67925781 -2.8203125 12.83789062 C-3.10873057 8.38543673 -3.21334872 5.03657482 -1 1 C-0.67 0.67 -0.34 0.34 0 0 Z " fill="#C1B8A3" transform="translate(160,24)"/>
<path d="M0 0 C1.2065625 0.2475 1.2065625 0.2475 2.4375 0.5 C6.65887352 1.09247348 10.74664545 1.08506709 15 1 C14.67 1.66 14.34 2.32 14 3 C11.27734375 3.4140625 11.27734375 3.4140625 7.9375 3.625 C6.83277344 3.69976562 5.72804687 3.77453125 4.58984375 3.8515625 C3.73519531 3.90054688 2.88054687 3.94953125 2 4 C1.34 2.68 0.68 1.36 0 0 Z " fill="#8D8A88" transform="translate(151,115)"/>
<path d="M0 0 C0.33 0 0.66 0 1 0 C1 2.97 1 5.94 1 9 C-0.32 9.33 -1.64 9.66 -3 10 C-4 9 -4 9 -4.0625 5.4375 C-4.041875 4.303125 -4.02125 3.16875 -4 2 C-3.34 1.67 -2.68 1.34 -2 1 C-1.67 2.32 -1.34 3.64 -1 5 C-0.67 3.35 -0.34 1.7 0 0 Z " fill="#F1E8D6" transform="translate(165,47)"/>
<path d="M0 0 C0.33 0 0.66 0 1 0 C0.97679688 0.81984375 0.95359375 1.6396875 0.9296875 2.484375 C0.91164063 3.56203125 0.89359375 4.6396875 0.875 5.75 C0.85179688 6.81734375 0.82859375 7.8846875 0.8046875 8.984375 C0.99841099 11.97546575 1.60005067 13.42589961 3 16 C2.625 18.75 2.625 18.75 2 21 C-0.91921605 16.62117593 -1.1365455 13.604113 -1.125 8.4375 C-1.12757812 7.28121094 -1.13015625 6.12492187 -1.1328125 4.93359375 C-1 2 -1 2 0 0 Z " fill="#EDECEA" transform="translate(127,38)"/>
<path d="M0 0 C2.31 0 4.62 0 7 0 C7 0.66 7 1.32 7 2 C9.64458379 3.32229189 11.67761301 3.09677194 14.625 3.0625 C15.62789062 3.05347656 16.63078125 3.04445312 17.6640625 3.03515625 C18.82035156 3.01775391 18.82035156 3.01775391 20 3 C17.55049379 5.44950621 16.75276979 5.32271254 13.375 5.375 C7.97561119 5.29652051 4.60476686 3.72875073 0 1 C0 0.67 0 0.34 0 0 Z " fill="#999189" transform="translate(177,156)"/>
<path d="M0 0 C3.36704285 -0.2295711 5.41370268 -0.33943529 8.375 1.375 C8.91125 1.91125 9.4475 2.4475 10 3 C10 3.66 10 4.32 10 5 C8.68 5.33 7.36 5.66 6 6 C6 5.34 6 4.68 6 4 C5.34 4 4.68 4 4 4 C4 3.34 4 2.68 4 2 C2.68 2 1.36 2 0 2 C0 1.34 0 0.68 0 0 Z " fill="#574A43" transform="translate(210,122)"/>
<path d="M0 0 C0.33 0.66 0.66 1.32 1 2 C1.66 2.33 2.32 2.66 3 3 C2.67 5.31 2.34 7.62 2 10 C0.02 10 -1.96 10 -4 10 C-4 9.34 -4 8.68 -4 8 C-3.34 8 -2.68 8 -2 8 C-1.10869587 5.3260876 -0.52268466 2.76276177 0 0 Z " fill="#F2EDDF" transform="translate(165,78)"/>
<path d="M0 0 C2.31 0.33 4.62 0.66 7 1 C6.67 2.65 6.34 4.3 6 6 C0.25 4.25 0.25 4.25 -2 2 C-0.35 2 1.3 2 3 2 C2.01 1.34 1.02 0.68 0 0 Z " fill="#83786E" transform="translate(124,129)"/>
<path d="M0 0 C0.66 0.33 1.32 0.66 2 1 C2.4140625 3.72265625 2.4140625 3.72265625 2.625 7.0625 C2.69976562 8.16722656 2.77453125 9.27195312 2.8515625 10.41015625 C2.90054688 11.26480469 2.94953125 12.11945312 3 13 C2.01 13 1.02 13 0 13 C-1.125 7.375 -1.125 7.375 0 4 C0 2.68 0 1.36 0 0 Z " fill="#C4BCA6" transform="translate(136,49)"/>
<path d="M0 0 C0.33 0.66 0.66 1.32 1 2 C0.22265625 3.7265625 0.22265625 3.7265625 -0.9375 5.625 C-1.618125 6.73875 -2.29875 7.8525 -3 9 C-3.66 9 -4.32 9 -5 9 C-4.75 5.625 -4.75 5.625 -4 2 C-1.9375 0.5625 -1.9375 0.5625 0 0 Z " fill="#D9D5CE" transform="translate(212,77)"/>
<path d="M0 0 C1.125 3.75 1.125 3.75 0 6 C0.66 6 1.32 6 2 6 C2.33 5.34 2.66 4.68 3 4 C2.125 8.75 2.125 8.75 1 11 C0.34 11 -0.32 11 -1 11 C-1.125 3.375 -1.125 3.375 0 0 Z " fill="#CBC0AD" transform="translate(193,42)"/>
<path d="M0 0 C0.33 0.99 0.66 1.98 1 3 C1.66 3.33 2.32 3.66 3 4 C2.67 5.65 2.34 7.3 2 9 C1.34 9 0.68 9 0 9 C-0.66 8.34 -1.32 7.68 -2 7 C-1.60467975 4.54901444 -0.78698574 2.36095721 0 0 Z " fill="#CAC2B0" transform="translate(204,82)"/>
<path d="M0 0 C2.46278801 2.46278801 2.99771255 4.70676982 4 8 C3.01 8.99 2.02 9.98 1 11 C-0.28317892 7.15046324 -0.06643637 4.05261865 0 0 Z " fill="#F7F1E4" transform="translate(163,66)"/>
<path d="M0 0 C2.31 0.33 4.62 0.66 7 1 C6 3 5 5 4 7 C3.34 7 2.68 7 2 7 C2.33 5.35 2.66 3.7 3 2 C2.01 1.34 1.02 0.68 0 0 Z " fill="#5E4D42" transform="translate(193,150)"/>
<path d="M0 0 C-0.33 1.32 -0.66 2.64 -1 4 C-3.97 3.505 -3.97 3.505 -7 3 C-7 2.34 -7 1.68 -7 1 C-4.53721199 -0.231394 -2.7204945 -0.07159196 0 0 Z " fill="#83746C" transform="translate(162,147)"/>
<path d="M0 0 C1.32 0 2.64 0 4 0 C3.67 2.64 3.34 5.28 3 8 C2.01 7.34 1.02 6.68 0 6 C-0.1875 2.875 -0.1875 2.875 0 0 Z " fill="#F2EBDB" transform="translate(154,28)"/>
<path d="M0 0 C0.66 0 1.32 0 2 0 C1.34 3.3 0.68 6.6 0 10 C-2.08120514 5.83758971 -2.24191133 5.17733811 -1 1 C-0.67 0.67 -0.34 0.34 0 0 Z " fill="#D5CDBA" transform="translate(180,26)"/>
<path d="M0 0 C1.485 0.99 1.485 0.99 3 2 C2.67 3.32 2.34 4.64 2 6 C1.34 6 0.68 6 0 6 C-0.33 6.66 -0.66 7.32 -1 8 C-1.04241723 5.66705225 -1.04092937 3.33297433 -1 1 C-0.67 0.67 -0.34 0.34 0 0 Z " fill="#CCC2B3" transform="translate(201,96)"/>
<path d="M0 0 C1.32 0.33 2.64 0.66 4 1 C1.6875 3.5 1.6875 3.5 -1 6 C-1.99 6 -2.98 6 -4 6 C-4 5.34 -4 4.68 -4 4 C-2.35 3.67 -0.7 3.34 1 3 C0.67 2.01 0.34 1.02 0 0 Z " fill="#CCC2B7" transform="translate(212,73)"/>
<path d="M0 0 C1.98 0 3.96 0 6 0 C5.34 1.65 4.68 3.3 4 5 C2.68 4.34 1.36 3.68 0 3 C0 2.01 0 1.02 0 0 Z " fill="#4F4034" transform="translate(179,147)"/>
<path d="M0 0 C4.24822374 0.47202486 6.19989709 2.96655518 9 6 C8.67 6.66 8.34 7.32 8 8 C6.66372225 6.85760183 5.33104612 5.71098945 4 4.5625 C3.2575 3.92441406 2.515 3.28632812 1.75 2.62890625 C1.1725 2.09136719 0.595 1.55382813 0 1 C0 0.67 0 0.34 0 0 Z " fill="#D4CEC3" transform="translate(213,32)"/>
<path d="M0 0 C2.475 0.495 2.475 0.495 5 1 C3.84826645 3.46800047 2.95216435 5.04783565 1 7 C0.67 4.69 0.34 2.38 0 0 Z " fill="#C8BEB0" transform="translate(200,25)"/>
<path d="M0 0 C0.33 0.66 0.66 1.32 1 2 C-3.455 2.495 -3.455 2.495 -8 3 C-8 2.34 -8 1.68 -8 1 C-5.29120665 -0.35439668 -2.99066732 -0.06501451 0 0 Z " fill="#C5C0BB" transform="translate(190,122)"/>
<path d="M0 0 C2.0625 2.25 2.0625 2.25 4 5 C3.875 7.25 3.875 7.25 3 9 C2.01 9.495 2.01 9.495 1 10 C0.67 6.7 0.34 3.4 0 0 Z " fill="#C6BFAC" transform="translate(143,38)"/>
<path d="M0 0 C0.33 1.32 0.66 2.64 1 4 C1.66 4 2.32 4 3 4 C2.34 5.32 1.68 6.64 1 8 C0.01 8 -0.98 8 -2 8 C-1.33333333 5.33333333 -0.66666667 2.66666667 0 0 Z " fill="#C5B8A5" transform="translate(196,34)"/>
<path d="M0 0 C1.65 0 3.3 0 5 0 C4.67 0.99 4.34 1.98 4 3 C3.34 3 2.68 3 2 3 C2 3.66 2 4.32 2 5 C1.34 5 0.68 5 0 5 C0 3.35 0 1.7 0 0 Z " fill="#D2CDBC" transform="translate(139,29)"/>
<path d="M0 0 C1.98 0.495 1.98 0.495 4 1 C3.34 2.32 2.68 3.64 2 5 C1.01 4.34 0.02 3.68 -1 3 C-0.67 2.01 -0.34 1.02 0 0 Z " fill="#5A4F43" transform="translate(126,124)"/>
<path d="M0 0 C1.32 0.66 2.64 1.32 4 2 C3.67 3.32 3.34 4.64 3 6 C1.68 5.67 0.36 5.34 -1 5 C-0.67 3.35 -0.34 1.7 0 0 Z " fill="#C3BDA8" transform="translate(204,79)"/>
<path d="M0 0 C0.99 0.495 0.99 0.495 2 1 C2.94934202 3.92713788 3.23176473 5.42831368 2.0625 8.3125 C1.5365625 9.1478125 1.5365625 9.1478125 1 10 C-0.1577506 6.52674819 -0.06866652 3.63932552 0 0 Z " fill="#EBE7E3" transform="translate(136,77)"/>
<path d="M0 0 C1.32 0.66 2.64 1.32 4 2 C3.67 2.66 3.34 3.32 3 4 C2.34 4 1.68 4 1 4 C0.67 5.65 0.34 7.3 0 9 C-0.33 9 -0.66 9 -1 9 C-1.09765625 2.84765625 -1.09765625 2.84765625 -1 1 C-0.67 0.67 -0.34 0.34 0 0 Z " fill="#E5E0D5" transform="translate(128,42)"/>
</svg>
