<?xml version="1.0" encoding="UTF-8"?>
<svg version="1.1" xmlns="http://www.w3.org/2000/svg" width="512" height="512">
<path d="M0 0 C5.54925847 3.41212611 10.01934883 8.66909156 13.0625 14.375 C14.47335719 23.36921461 14.21653742 30.61485164 9.5625 38.5625 C6.54804532 42.2177679 3.20188821 45.48361126 -0.19921875 48.77734375 C-1.15634559 49.72257793 -2.11228406 50.66901679 -3.0670929 51.61659241 C-5.56295887 54.08790061 -8.07304961 56.54421477 -10.58703613 58.99707031 C-14.1423045 62.47135114 -17.67745344 65.96612589 -21.21504211 69.45838928 C-23.09529941 71.31444071 -24.98132519 73.16395956 -26.87077332 75.01072693 C-27.71867935 75.84241898 -28.56658539 76.67411102 -29.44018555 77.53100586 C-30.1897905 78.26330917 -30.93939545 78.99561249 -31.7117157 79.75010681 C-33.50796135 81.45932454 -33.50796135 81.45932454 -34.4375 83.5625 C-33.2825 83.7275 -32.1275 83.8925 -30.9375 84.0625 C-12.62799863 88.1184022 5.07280409 102.0319961 17.5625 115.5625 C17.5625 116.2225 17.5625 116.8825 17.5625 117.5625 C18.2225 117.5625 18.8825 117.5625 19.5625 117.5625 C21.28428323 119.19382176 22.92251944 120.85244906 24.5625 122.5625 C25.59682889 123.58032189 26.6346954 124.5945593 27.67578125 125.60546875 C28.74223223 126.65360033 29.80863804 127.70177786 30.875 128.75 C31.42478516 129.28302734 31.97457031 129.81605469 32.54101562 130.36523438 C33.91965678 131.72674956 35.24589727 133.14090502 36.5625 134.5625 C36.5625 135.2225 36.5625 135.8825 36.5625 136.5625 C37.2225 136.5625 37.8825 136.5625 38.5625 136.5625 C38.5625 137.2225 38.5625 137.8825 38.5625 138.5625 C39.15417969 138.81773437 39.74585938 139.07296875 40.35546875 139.3359375 C42.78842458 140.68805809 44.09745057 142.05783457 45.875 144.1875 C47.70195102 146.36412552 49.51801628 148.51518466 51.46484375 150.5859375 C56.68799326 156.17349279 59.56523665 161.20686414 60 168.9375 C59.70848183 175.98252236 57.14433734 182.24668634 52.375 187.4375 C46.06722051 193.10244846 39.64000595 195.26633361 31.1875 194.8671875 C18.18862198 193.35838916 9.7880344 181.93206664 1.1796875 172.99609375 C-0.5822423 171.19229302 -2.34529874 169.38959222 -4.109375 167.58789062 C-6.83777313 164.79803989 -9.55955486 162.0030663 -12.26269531 159.1887207 C-25.73457189 145.18596294 -38.09822266 132.94299394 -58.4375 131.5625 C-60.3865625 131.4078125 -60.3865625 131.4078125 -62.375 131.25 C-77.06615766 131.76708008 -90.34133775 138.05966221 -100.4375 148.5625 C-101.36012301 149.6567077 -102.28225322 150.75133098 -103.20410156 151.84619141 C-108.29364432 157.67438584 -113.88113754 163.00130911 -119.41523552 168.40144348 C-122.85524626 171.7638951 -126.27669503 175.14517963 -129.70117188 178.5234375 C-134.03295711 182.79546972 -138.36990381 187.06173835 -142.72924805 191.30566406 C-146.27598582 194.75948141 -149.80202476 198.23332094 -153.31576729 201.72068787 C-154.64440782 203.03225213 -155.98012154 204.33669729 -157.32346916 205.63319397 C-168.32591088 216.26337454 -178.24507562 228.63700996 -179.4375 244.5625 C-179.50582031 245.43003906 -179.57414062 246.29757813 -179.64453125 247.19140625 C-180.22906921 262.4110427 -174.39001908 275.39054222 -164.32299805 286.47058105 C-153.88112748 297.74418852 -142.87708908 308.5141535 -132.04760742 319.41235352 C-128.84866683 322.6336051 -125.65979172 325.86434432 -122.47924805 329.10375977 C-118.60714865 333.04733251 -114.71776719 336.97307797 -110.81589317 340.88718605 C-109.34483924 342.36855958 -107.87974592 343.85587991 -106.42115211 345.34952354 C-93.30262925 358.76704137 -80.99724088 367.56582048 -61.625 367.875 C-41.98426937 367.76766112 -30.16369408 358.37367103 -16.75732422 344.93237305 C-15.16676192 343.31513276 -13.5784516 341.69567513 -11.9921875 340.07421875 C-10.2387242 338.29839064 -8.48480453 336.52301306 -6.73046875 334.74804688 C-4.00943572 331.98983049 -1.29163752 329.22868432 1.41845703 326.4597168 C4.06408612 323.75951654 6.72232111 321.07226584 9.3828125 318.38671875 C10.18510284 317.56064621 10.98739319 316.73457367 11.81399536 315.88346863 C17.29067036 310.38162053 22.20796501 306.21186048 30.125 305.03125 C39.60262045 305.11741019 45.24048855 306.38968769 52.3125 312.6875 C56.93862938 317.63121263 59.67510617 323.829304 60 330.625 C59.18868066 337.92687402 57.62659078 342.71547084 52.57080078 348.19726562 C51.76346497 349.07278076 50.95612915 349.9482959 50.12432861 350.8503418 C43.03590642 358.35471672 35.7589234 365.67345925 28.48144531 372.99365234 C26.45576104 375.0326512 24.43759739 377.07866587 22.42578125 379.13134766 C-1.56616554 403.59874923 -25.77611167 420.08125017 -61.0625 420.75 C-77.68373885 420.57166053 -92.79371661 417.04081521 -107.6875 409.8125 C-108.28812256 409.52616699 -108.88874512 409.23983398 -109.50756836 408.94482422 C-121.08858062 403.03395756 -130.36197504 394.06245954 -139.37109375 384.88671875 C-140.46223316 383.78741315 -141.55413261 382.68886149 -142.64674377 381.59101868 C-145.48715451 378.73369714 -148.31882634 375.86788562 -151.14813232 372.99957275 C-155.69686122 368.39103659 -160.25885386 363.79563593 -164.82127571 359.20066261 C-166.40217834 357.6059094 -167.97914749 356.00734991 -169.55552673 354.40812683 C-170.52708562 353.42654123 -171.4987254 352.44503569 -172.47045898 351.46362305 C-173.3114061 350.61140671 -174.15235321 349.75919037 -175.01878357 348.88114929 C-177.38741313 346.61051468 -179.86222023 344.59216084 -182.4375 342.5625 C-183.63913834 341.28194049 -184.80832464 339.96989047 -185.9375 338.625 C-189.58648341 334.29613525 -193.582172 330.37707419 -197.671875 326.46875 C-218.52276702 306.39644857 -231.06945637 281.83858344 -231.72290039 252.56835938 C-232.08196302 214.39773761 -214.06226432 189.61349337 -188.55197525 163.57575417 C-184.32802387 159.29226236 -180.07873001 155.03411393 -175.82861328 150.77661133 C-174.21375625 149.15547013 -172.5990817 147.53414715 -170.98457336 145.91265869 C-165.74581433 140.65312649 -160.50196331 135.39868652 -155.2578125 130.14453125 C-153.4420758 128.32473995 -151.62637039 126.50491743 -149.81069565 124.68506432 C-142.26313755 117.12069237 -134.71449601 109.55740614 -127.16217232 101.99779224 C-125.21650354 100.05021436 -123.27084046 98.10263079 -121.32519531 96.1550293 C-120.84175938 95.67110962 -120.35832345 95.18718995 -119.86023794 94.68860605 C-111.99959798 86.81963499 -104.14753667 78.94216054 -96.29893292 71.06118623 C-88.21053495 62.93970389 -80.11445548 54.82595946 -72.01126087 46.71923655 C-67.47349724 42.17912442 -62.9390891 37.63577713 -58.41275406 33.08426857 C-54.16472438 28.81298538 -49.90730349 24.55129336 -45.64249229 20.29676819 C-44.08137468 18.73614632 -42.52366593 17.17210578 -40.96967125 15.6043911 C-38.84538926 13.4624079 -36.70907611 11.33317547 -34.56936646 9.20661926 C-33.96021239 8.58649596 -33.35105833 7.96637265 -32.72344506 7.32745773 C-23.94432206 -1.32223982 -11.96538354 -5.14156085 0 0 Z " fill="#080807" transform="translate(317.4375,6.4375)"/>
<path d="M0 0 C1.12884676 -0.00701996 1.12884676 -0.00701996 2.2804985 -0.01418173 C4.77995647 -0.02606324 7.27885915 -0.01670172 9.77832031 -0.00723267 C11.57930825 -0.01130142 13.38029368 -0.016645 15.18127441 -0.02316284 C20.05727798 -0.03680609 24.93309051 -0.03155014 29.80909729 -0.02202559 C34.91961164 -0.01441349 40.03010998 -0.0214789 45.140625 -0.02618408 C53.72170946 -0.03163712 62.30271638 -0.02446187 70.88378906 -0.01016235 C80.79497365 0.00616327 90.70597307 0.00087444 100.61715317 -0.01564157 C109.13713029 -0.0292693 117.65705178 -0.03116979 126.17703629 -0.02332556 C131.26108077 -0.01865614 136.3450383 -0.01800411 141.42907715 -0.02793503 C146.20949441 -0.03662113 150.98967367 -0.03055273 155.77006531 -0.01325226 C157.5211701 -0.0092962 159.27229503 -0.01040633 161.02339172 -0.01704025 C163.42015889 -0.02528093 165.8161711 -0.01490448 168.21289062 0 C168.90006542 -0.00669217 169.58724022 -0.01338433 170.29523849 -0.02027929 C177.53995642 0.06665696 183.88953942 2.30504249 189.10644531 7.38095093 C194.811736 14.18086134 196.65794171 20.38838239 196.48144531 29.27938843 C195.57919658 36.7417373 191.86684418 42.40623758 186.14550781 47.12704468 C180.52166769 50.58538314 175.80071793 51.82532556 169.22598267 51.77536011 C168.46272749 51.78145121 167.69947232 51.78754231 166.9130882 51.793818 C164.37142957 51.81038426 161.83027543 51.80568143 159.28857422 51.8008728 C157.459798 51.80821685 155.63102641 51.81680405 153.80226135 51.82653809 C148.84557691 51.8487275 143.88905885 51.85168605 138.93233156 51.84979057 C134.7897715 51.84967075 130.64724653 51.8582396 126.50469625 51.86656809 C116.7290184 51.88579292 106.95342595 51.88868933 97.17773438 51.88192749 C87.10348027 51.87528719 77.02959235 51.8981528 66.95541251 51.93524122 C58.29615759 51.96596013 49.63702034 51.97729587 40.97771204 51.97340441 C35.8102613 51.97133918 30.64309555 51.97678129 25.47569656 52.001297 C20.61474412 52.02359771 15.75438614 52.0216586 10.89343071 52.00136948 C9.11371204 51.99796532 7.33395309 52.00302285 5.55428886 52.01735306 C-4.59374947 52.09340225 -13.05338371 52.083349 -20.72138023 44.59624481 C-26.88617477 38.01060434 -28.51999793 31.84261133 -28.30371094 22.92782593 C-27.41296087 15.22495869 -23.89555742 9.58415222 -18.03027344 4.63485718 C-12.18592531 1.20517574 -6.71544173 -0.06539944 0 0 Z " fill="#B4B2B1" transform="translate(244.8935546875,230.61904907226563)"/>
<path d="M0 0 C6.89625471 3.10533107 11.98956821 8.39196107 15.00390625 15.27734375 C17.37161253 22.03347115 17.36484434 28.12291971 14.81149292 34.8770752 C13.38878168 37.69118331 11.7119349 39.65729702 9.57470703 41.97460938 C8.76737122 42.85012451 7.9600354 43.72563965 7.12823486 44.62768555 C0.03981267 52.13206047 -7.23717035 59.450803 -14.51464844 66.77099609 C-16.54033271 68.80999495 -18.55849636 70.85600962 -20.5703125 72.90869141 C-44.56225929 97.37609298 -68.77220542 113.85859392 -104.05859375 114.52734375 C-126.42585399 114.28735169 -149.02615456 107.84604307 -166.43359375 93.33984375 C-163.43359375 92.33984375 -163.43359375 92.33984375 -160.43359375 93.33984375 C-151.60280314 94.15547627 -145.0756276 92.70076966 -138.12109375 87.15234375 C-132.52392102 81.87406691 -131.31003839 76.90305564 -130.99609375 69.33984375 C-131.11850209 63.65145641 -132.55899675 60.19072619 -135.43359375 55.33984375 C-135.43359375 54.67984375 -135.43359375 54.01984375 -135.43359375 53.33984375 C-133.06005667 54.2586323 -130.71621787 55.20645829 -128.4140625 56.29296875 C-115.46835599 62.36906217 -100.95648649 63.39585028 -87.16796875 59.37109375 C-74.08978156 54.43874887 -64.55498621 43.63051088 -54.98828125 33.8515625 C-53.23481795 32.07573439 -51.48089828 30.30035681 -49.7265625 28.52539062 C-47.00552947 25.76717424 -44.28773127 23.00602807 -41.57763672 20.23706055 C-38.93200763 17.53686029 -36.27377264 14.84960959 -33.61328125 12.1640625 C-32.40984573 10.92495369 -32.40984573 10.92495369 -31.18209839 9.66081238 C-22.21028439 0.64776016 -12.89738772 -3.49864932 0 0 Z " fill="#EAA340" transform="translate(360.43359375,312.66015625)"/>
<path d="M0 0 C1.74567829 0.45785013 3.49005836 0.92065172 5.23388672 1.38549805 C6.69119705 1.77127266 6.69119705 1.77127266 8.177948 2.1648407 C12.06053884 3.31385633 15.54854445 4.93704713 19.125 6.8125 C19.81311768 7.16723389 20.50123535 7.52196777 21.21020508 7.88745117 C33.39248431 14.25987525 44.65137956 22.87232786 54 33 C54 33.66 54 34.32 54 35 C54.66 35 55.32 35 56 35 C57.72178323 36.63132176 59.36001944 38.28994906 61 40 C62.03432889 41.01782189 63.0721954 42.0320593 64.11328125 43.04296875 C65.17973223 44.09110033 66.24613804 45.13927786 67.3125 46.1875 C67.86228516 46.72052734 68.41207031 47.25355469 68.97851562 47.80273438 C70.35715678 49.16424956 71.68339727 50.57840502 73 52 C73 52.66 73 53.32 73 54 C73.66 54 74.32 54 75 54 C75 54.66 75 55.32 75 56 C75.59167969 56.25523437 76.18335938 56.51046875 76.79296875 56.7734375 C79.22592458 58.12555809 80.53495057 59.49533457 82.3125 61.625 C84.13945102 63.80162552 85.95551628 65.95268466 87.90234375 68.0234375 C93.12549326 73.61099279 96.00273665 78.64436414 96.4375 86.375 C96.14598183 93.42002236 93.58183734 99.68418634 88.8125 104.875 C82.50472051 110.53994846 76.07750595 112.70383361 67.625 112.3046875 C54.62612198 110.79588916 46.2255344 99.36956664 37.6171875 90.43359375 C35.8552577 88.62979302 34.09220126 86.82709222 32.328125 85.02539062 C29.59972687 82.23553989 26.87794514 79.4405663 24.17480469 76.6262207 C10.70292811 62.62346294 -1.66072266 50.38049394 -22 49 C-23.299375 48.896875 -24.59875 48.79375 -25.9375 48.6875 C-36.56696836 49.06162207 -45.82152329 52.93287401 -55 58 C-55.99 58.495 -55.99 58.495 -57 59 C-55.43106252 55.14897164 -52.94874642 52.88149249 -50 50 C-48.76276436 48.76276436 -48.76276436 48.76276436 -47.50053406 47.50053406 C-31.66702271 31.66702271 -15.83351135 15.83351135 0 0 Z " fill="#EAA241" transform="translate(281,89)"/>
<path d="M0 0 C62.04 0 124.08 0 188 0 C188 0.33 188 0.66 188 1 C125.96 1 63.92 1 0 1 C0 0.67 0 0.34 0 0 Z " fill="#FBFBFB" transform="translate(235,283)"/>
<path d="M0 0 C60.72 0 121.44 0 184 0 C184 0.33 184 0.66 184 1 C123.28 1 62.56 1 0 1 C0 0.67 0 0.34 0 0 Z " fill="#828282" transform="translate(237,229)"/>
<path d="M0 0 C0.33 0 0.66 0 1 0 C0.93821733 1.33450557 0.84901934 2.66773974 0.75 4 C0.70359375 4.7425 0.6571875 5.485 0.609375 6.25 C-1.55044621 15.99688544 -8.47747298 22.00255902 -15.328125 28.71875 C-16.4442954 29.82744826 -17.55957721 30.93704174 -18.67401123 32.04748535 C-21.59147539 34.94976991 -24.52075356 37.83983305 -27.45275879 40.72741699 C-30.44977144 43.68331054 -33.43531355 46.65074128 -36.421875 49.6171875 C-42.2701584 55.42273566 -48.13098806 61.21540811 -54 67 C-54.66 66.34 -55.32 65.68 -56 65 C-55.06705612 64.07371796 -55.06705612 64.07371796 -54.11526489 63.12872314 C-48.25385392 57.30739146 -42.39727002 51.4812558 -36.54605293 45.64967728 C-33.53773944 42.65179956 -30.52759445 39.65581015 -27.51318359 36.6640625 C-24.604016 33.77663043 -21.69976562 30.8843358 -18.79885483 27.98860931 C-17.6914213 26.88487025 -16.58222934 25.78289261 -15.47125626 24.68271637 C-13.91510587 23.14109014 -12.36533376 21.59331129 -10.81689453 20.04394531 C-9.93309113 19.16458313 -9.04928772 18.28522095 -8.13870239 17.37921143 C-6.25428635 15.28288227 -5.07124089 13.58214751 -4 11 C-3.34 11 -2.68 11 -2 11 C-1.90912109 10.06027344 -1.90912109 10.06027344 -1.81640625 9.1015625 C-1.73261719 8.28429687 -1.64882813 7.46703125 -1.5625 6.625 C-1.48128906 5.81289063 -1.40007812 5.00078125 -1.31640625 4.1640625 C-1 2 -1 2 0 0 Z " fill="#EEA849" transform="translate(376,336)"/>
<path d="M0 0 C10.7903823 3.18354542 20.24868965 7.42584671 30 13 C30 13.66 30 14.32 30 15 C27.09325931 14.3588072 24.57468666 13.43337318 21.890625 12.15234375 C21.13652344 11.79462891 20.38242187 11.43691406 19.60546875 11.06835938 C18.82816406 10.69517578 18.05085938 10.32199219 17.25 9.9375 C16.06083984 9.37192383 16.06083984 9.37192383 14.84765625 8.79492188 C12.89688254 7.86654161 10.94823094 6.93370456 9 6 C9 5.34 9 4.68 9 4 C7.3603125 4.061875 7.3603125 4.061875 5.6875 4.125 C2 4 2 4 -1 2 C-0.67 1.34 -0.34 0.68 0 0 Z " fill="#EEAB52" transform="translate(282,89)"/>
<path d="M0 0 C1.60433809 0.47859241 3.20846416 0.95789558 4.8125 1.4375 C6.15248047 1.83775391 6.15248047 1.83775391 7.51953125 2.24609375 C9.35473055 2.80387873 11.18033726 3.39344575 13 4 C13 4.66 13 5.32 13 6 C13.9178125 6.04898437 14.835625 6.09796875 15.78125 6.1484375 C22.42864086 6.5534256 28.61387859 7.08416358 35 9 C34.67 9.66 34.34 10.32 34 11 C21.34434867 9.78171172 9.76735457 6.86925017 -2 2 C-1.34 1.34 -0.68 0.68 0 0 Z " fill="#EAAB51" transform="translate(215,416)"/>
<path d="M0 0 C2 3 2 3 3.8125 6.4375 C7.17840293 12.31545548 11.90192489 14.608598 18 17 C17.67 17.99 17.34 18.98 17 20 C8.75510575 16.46414614 2.61331305 12.48268254 -1 4 C-0.625 1.75 -0.625 1.75 0 0 Z " fill="#BAB8B7" transform="translate(219,262)"/>
<path d="M0 0 C0 3 0 3 -2.1875 5.48046875 C-3.115625 6.37378906 -4.04375 7.26710937 -5 8.1875 C-5.928125 9.08855469 -6.85625 9.98960937 -7.8125 10.91796875 C-8.534375 11.60503906 -9.25625 12.29210937 -10 13 C-9.01 14.485 -9.01 14.485 -8 16 C-11.96 17.98 -15.92 19.96 -20 22 C-17.98474835 17.9694967 -16.219974 16.07626525 -13 13 C-11.8866474 11.89200489 -10.77610933 10.78117656 -9.66796875 9.66796875 C-6.4453125 6.4453125 -3.22265625 3.22265625 0 0 Z " fill="#C5903F" transform="translate(244,126)"/>
<path d="M0 0 C0.66 0.66 1.32 1.32 2 2 C-1.78796453 8.68464329 -5.90091023 13.70860383 -13 17 C-14.32 17 -15.64 17 -17 17 C-17 16.34 -17 15.68 -17 15 C-16.35933594 14.75507813 -15.71867187 14.51015625 -15.05859375 14.2578125 C-7.624257 11.04476085 -4.05949453 6.92264796 0 0 Z " fill="#BCBBBA" transform="translate(438,264)"/>
<path d="M0 0 C2.37353708 0.91878855 4.71737588 1.86661454 7.01953125 2.953125 C12.26823542 5.41661487 17.29456049 6.97490921 23 8 C22.67 8.66 22.34 9.32 22 10 C15.80261135 9.74600866 11.00581605 8.95621785 5.59375 5.83984375 C4.0053545 4.84460226 4.0053545 4.84460226 2 5 C1.34 3.35 0.68 1.7 0 0 Z " fill="#E8A953" transform="translate(225,366)"/>
<path d="M0 0 C-4.53189792 2.53954651 -8.48704623 3.66454146 -13.625 4.375 C-15.56246094 4.66503906 -15.56246094 4.66503906 -17.5390625 4.9609375 C-21 5 -21 5 -23.4609375 3.5390625 C-23.96882813 3.03117187 -24.47671875 2.52328125 -25 2 C-23.24623047 1.92652344 -23.24623047 1.92652344 -21.45703125 1.8515625 C-19.90883196 1.77649829 -18.36065599 1.70095205 -16.8125 1.625 C-16.04357422 1.5940625 -15.27464844 1.563125 -14.48242188 1.53125 C-9.56371689 1.27792614 -4.42815735 -1.47605245 0 0 Z " fill="#F1AA4A" transform="translate(283,422)"/>
<path d="M0 0 C-2.036994 1.29956591 -4.07907615 2.5896261 -6.125 3.875 C-6.69476563 4.23980469 -7.26453125 4.60460937 -7.8515625 4.98046875 C-11.46472705 7.2386966 -14.90886041 8.8186679 -19 10 C-19 9.01 -19 8.02 -19 7 C-15.535 6.505 -15.535 6.505 -12 6 C-12 5.34 -12 4.68 -12 4 C-10.390625 2.67578125 -10.390625 2.67578125 -8.25 1.3125 C-7.55390625 0.85488281 -6.8578125 0.39726562 -6.140625 -0.07421875 C-3.60909275 -1.16906025 -2.53899138 -0.9435441 0 0 Z " fill="#E7AB55" transform="translate(314,409)"/>
<path d="M0 0 C5.04806914 0.35991718 7.52239866 3.04398041 10.8125 6.5625 C11.31458984 7.08263672 11.81667969 7.60277344 12.33398438 8.13867188 C13.56529127 9.4168857 14.7839407 10.70727147 16 12 C15.67 12.99 15.34 13.98 15 15 C10 10 5 5 0 0 Z " fill="#EDAA57" transform="translate(284,145)"/>
<path d="M0 0 C0.33 0.99 0.66 1.98 1 3 C-0.375 4.5 -0.375 4.5 -2 6 C-2.66 6 -3.32 6 -4 6 C-4.3403125 6.86625 -4.3403125 6.86625 -4.6875 7.75 C-6.38050483 10.652294 -8.18146859 12.18808695 -11 14 C-13.1640625 13.60546875 -13.1640625 13.60546875 -15 13 C-14.12988281 12.34644531 -14.12988281 12.34644531 -13.2421875 11.6796875 C-8.47732349 8.0470684 -4.1295269 4.34129751 0 0 Z " fill="#EBA950" transform="translate(298,354)"/>
<path d="M0 0 C0.66 0.33 1.32 0.66 2 1 C-4.6 7.6 -11.2 14.2 -18 21 C-18 18 -18 18 -16.34765625 16.00708008 C-15.21650391 14.89949341 -15.21650391 14.89949341 -14.0625 13.76953125 C-13.25039063 12.96708984 -12.43828125 12.16464844 -11.6015625 11.33789062 C-10.74304688 10.50451172 -9.88453125 9.67113281 -9 8.8125 C-7.71222656 7.5450293 -7.71222656 7.5450293 -6.3984375 6.25195312 C-4.2721635 4.16111702 -2.13921536 2.07758017 0 0 Z " fill="#FF5A00" transform="translate(313,336)"/>
<path d="M0 0 C0.33 0 0.66 0 1 0 C1 11.88 1 23.76 1 36 C0.67 36 0.34 36 0 36 C-0.83659804 32.35743386 -1.12852756 28.98823165 -1.1328125 25.25390625 C-1.13410156 24.16916016 -1.13539062 23.08441406 -1.13671875 21.96679688 C-1.13285156 20.84337891 -1.12898438 19.71996094 -1.125 18.5625 C-1.12886719 17.44294922 -1.13273437 16.32339844 -1.13671875 15.16992188 C-1.13542969 14.08388672 -1.13414063 12.99785156 -1.1328125 11.87890625 C-1.13168457 10.8947876 -1.13055664 9.91066895 -1.12939453 8.89672852 C-0.99389421 5.86331103 -0.55704884 2.98245167 0 0 Z " fill="#070400" transform="translate(85,238)"/>
<path d="M0 0 C0.66 0 1.32 0 2 0 C1.47253972 3.97830213 -0.34871784 5.60207301 -3.3125 8.1875 C-4.48232422 9.22970703 -4.48232422 9.22970703 -5.67578125 10.29296875 C-7.89285641 11.92130798 -9.31613331 12.58851472 -12 13 C-12 12.34 -12 11.68 -12 11 C-11.01 11 -10.02 11 -9 11 C-8.67 10.01 -8.34 9.02 -8 8 C-6.40625 6.46484375 -6.40625 6.46484375 -4.5 4.9375 C-1.81893599 2.82278233 -1.81893599 2.82278233 0 0 Z " fill="#ECAB54" transform="translate(371,187)"/>
<path d="M0 0 C5.28 0.66 10.56 1.32 16 2 C16 2.33 16 2.66 16 3 C13.69 3 11.38 3 9 3 C9 3.66 9 4.32 9 5 C4.21519067 4.46835452 3.76888381 3.76888381 0 0 Z " fill="#D2943E" transform="translate(194,405)"/>
<path d="M0 0 C3.4821773 2.69077337 4.17095955 5.78571104 5 10 C4.87517318 12.7461901 4.47688925 15.28173125 4 18 C3.67 18 3.34 18 3 18 C2 12 1 6 0 0 Z " fill="#150E07" transform="translate(225,368)"/>
<path d="M0 0 C0 0.33 0 0.66 0 1 C-2.10320063 1.50404808 -4.20759791 2.00310508 -6.3125 2.5 C-8.07013672 2.91765625 -8.07013672 2.91765625 -9.86328125 3.34375 C-13 4 -13 4 -16 4 C-16 3.34 -16 2.68 -16 2 C-9.97658059 -0.68902652 -6.474138 -1.27170568 0 0 Z " fill="#E3A34F" transform="translate(251,137)"/>
<path d="M0 0 C-2.14926381 2.39105598 -3.99036913 3.63278854 -7 4.75 C-7.680625 5.01296875 -8.36125 5.2759375 -9.0625 5.546875 C-11 6 -11 6 -14 5 C-12.61217515 4.1533966 -11.21430603 3.32324661 -9.8125 2.5 C-9.03519531 2.0359375 -8.25789063 1.571875 -7.45703125 1.09375 C-4.75896614 -0.10729647 -2.9193018 -0.20741043 0 0 Z " fill="#E5A45A" transform="translate(349,312)"/>
<path d="M0 0 C3.63 1.65 7.26 3.3 11 5 C10.67 5.99 10.34 6.98 10 8 C6.7 6.35 3.4 4.7 0 3 C0 2.01 0 1.02 0 0 Z " fill="#BFBEBD" transform="translate(226,274)"/>
<path d="M0 0 C0.66 0.33 1.32 0.66 2 1 C0.50902342 4.7952131 -1.75700849 6.61042731 -5 9 C-5 4.61031544 -2.87194899 3.23094261 0 0 Z " fill="#ACACAC" transform="translate(226,236)"/>
<path d="M0 0 C5.84615385 4.30769231 5.84615385 4.30769231 7 8 C6.625 10.25 6.625 10.25 6 12 C0 3 0 3 0 0 Z " fill="#EEAA4D" transform="translate(368,157)"/>
<path d="M0 0 C0.33 0.99 0.66 1.98 1 3 C-2.3 5.97 -5.6 8.94 -9 12 C-9.66 11.67 -10.32 11.34 -11 11 C-7.37 7.37 -3.74 3.74 0 0 Z " fill="#EEAC55" transform="translate(318,334)"/>
<path d="M0 0 C0.99 0.33 1.98 0.66 3 1 C-0.1254959 3.64465038 -3.08788267 4.84414715 -7 6 C-7 5.01 -7 4.02 -7 3 C-3.535 2.505 -3.535 2.505 0 2 C0 1.34 0 0.68 0 0 Z " fill="#D09D5F" transform="translate(302,413)"/>
<path d="M0 0 C4.42891954 1.37788608 7.66810002 2.66810002 11 6 C9.55989519 5.74337755 8.1229313 5.46909179 6.6875 5.1875 C5.88699219 5.03667969 5.08648437 4.88585937 4.26171875 4.73046875 C1.76554413 3.92427764 0.67577894 2.97947998 -1 1 C-0.67 0.67 -0.34 0.34 0 0 Z " fill="#EBAB53" transform="translate(338,195)"/>
<path d="M0 0 C1.9453125 0.77734375 1.9453125 0.77734375 4.125 1.9375 C5.21167969 2.50791016 5.21167969 2.50791016 6.3203125 3.08984375 C6.87460937 3.39019531 7.42890625 3.69054687 8 4 C8 4.66 8 5.32 8 6 C4.08788267 4.84414715 1.1254959 3.64465038 -2 1 C-1.34 0.67 -0.68 0.34 0 0 Z " fill="#E5AC58" transform="translate(276,139)"/>
<path d="M0 0 C-0.33 0.99 -0.66 1.98 -1 3 C-4.47325181 4.1577506 -7.36067448 4.06866652 -11 4 C-7.61125486 1.74083657 -4.15175481 0 0 0 Z " fill="#F0AA4A" transform="translate(295,417)"/>
<path d="M0 0 C0.66 0.33 1.32 0.66 2 1 C-1.3 4.3 -4.6 7.6 -8 11 C-8 8 -8 8 -6.25 5.95703125 C-5.5075 5.24933594 -4.765 4.54164063 -4 3.8125 C-2.88625 2.73935547 -2.88625 2.73935547 -1.75 1.64453125 C-1.1725 1.10183594 -0.595 0.55914062 0 0 Z " fill="#FFCE00" transform="translate(351,374)"/>
<path d="M0 0 C0 3.20395416 -0.74335022 5.09399739 -2 8 C-2.66 8 -3.32 8 -4 8 C-4 8.99 -4 9.98 -4 11 C-4.66 11 -5.32 11 -6 11 C-4.54955729 6.89041233 -2.48889248 3.56741255 0 0 Z " fill="#342C23" transform="translate(104,198)"/>
<path d="M0 0 C0 3 0 3 -1.75 5.04296875 C-2.4925 5.75066406 -3.235 6.45835937 -4 7.1875 C-4.7425 7.90292969 -5.485 8.61835938 -6.25 9.35546875 C-6.8275 9.89816406 -7.405 10.44085938 -8 11 C-8 8 -8 8 -6.25 5.95703125 C-5.5075 5.24933594 -4.765 4.54164063 -4 3.8125 C-2.88625 2.73935547 -2.88625 2.73935547 -1.75 1.64453125 C-1.1725 1.10183594 -0.595 0.55914062 0 0 Z " fill="#D85900" transform="translate(369,356)"/>
<path d="M0 0 C2.79872437 2.52788007 4.45773019 4.20411134 5 8 C4.01 8.495 4.01 8.495 3 9 C0 3.375 0 3.375 0 0 Z " fill="#EFAB4E" transform="translate(370,321)"/>
<path d="M0 0 C0.495 0.309375 0.99 0.61875 1.5 0.9375 C4.97986781 2.41644382 8.24028509 2.62402851 12 3 C10.375 4.125 10.375 4.125 8 5 C3.80215021 4.07647305 2.42683405 3.64025108 0 0 Z " fill="#342B17" transform="translate(189,401)"/>
<path d="M0 0 C-0.556875 0.268125 -1.11375 0.53625 -1.6875 0.8125 C-4.19712523 2.10122647 -6.59334236 3.52926478 -9 5 C-9.66 4.34 -10.32 3.68 -11 3 C-7.14243493 0.84694043 -4.44870215 -0.39253254 0 0 Z " fill="#373635" transform="translate(303,5)"/>
<path d="M0 0 C0 0.33 0 0.66 0 1 C-4.95 1 -9.9 1 -15 1 C-15 0.67 -15 0.34 -15 0 C-9.96266834 -1.5111995 -5.11828973 -0.64599773 0 0 Z " fill="#000000" transform="translate(313,3)"/>
<path d="M0 0 C0.66 0.33 1.32 0.66 2 1 C-0.64 3.64 -3.28 6.28 -6 9 C-6 6 -6 6 -4.6875 4.39453125 C-4.130625 3.87246094 -3.57375 3.35039062 -3 2.8125 C-2.443125 2.28269531 -1.88625 1.75289063 -1.3125 1.20703125 C-0.6628125 0.60955078 -0.6628125 0.60955078 0 0 Z " fill="#F0CA00" transform="translate(332,317)"/>
<path d="M0 0 C0.99 0.33 1.98 0.66 3 1 C3 2.98 3 4.96 3 7 C2.34 7 1.68 7 1 7 C0.67 4.69 0.34 2.38 0 0 Z " fill="#EBA958" transform="translate(374,170)"/>
<path d="M0 0 C5.28 0 10.56 0 16 0 C16 0.33 16 0.66 16 1 C10.72 1 5.44 1 0 1 C0 0.67 0 0.34 0 0 Z " fill="#FF8740" transform="translate(248,373)"/>
<path d="M0 0 C1.17539996 0.92652701 2.34010577 1.86663387 3.5 2.8125 C4.1496875 3.33457031 4.799375 3.85664063 5.46875 4.39453125 C7 6 7 6 7 9 C5.82737096 7.88121617 4.66204862 6.75476949 3.5 5.625 C2.8503125 4.99851562 2.200625 4.37203125 1.53125 3.7265625 C0 2 0 2 0 0 Z " fill="#000000" transform="translate(111,325)"/>
<path d="M0 0 C4.62 0 9.24 0 14 0 C14 0.33 14 0.66 14 1 C9.38 1 4.76 1 0 1 C0 0.67 0 0.34 0 0 Z " fill="#FFFF00" transform="translate(249,428)"/>
<path d="M0 0 C4.62 0 9.24 0 14 0 C14 0.33 14 0.66 14 1 C9.38 1 4.76 1 0 1 C0 0.67 0 0.34 0 0 Z " fill="#F5B640" transform="translate(344,310)"/>
<path d="M0 0 C0.33 0 0.66 0 1 0 C1 4.62 1 9.24 1 14 C0.67 14 0.34 14 0 14 C0 9.38 0 4.76 0 0 Z " fill="#9B9B9B" transform="translate(215,250)"/>
<path d="M0 0 C0.33 0 0.66 0 1 0 C1 4.62 1 9.24 1 14 C0.67 14 0.34 14 0 14 C0 9.38 0 4.76 0 0 Z " fill="#000000" transform="translate(332,23)"/>
<path d="M0 0 C0.33 0 0.66 0 1 0 C1 4.29 1 8.58 1 13 C0.67 13 0.34 13 0 13 C0 8.71 0 4.42 0 0 Z " fill="#CACACA" transform="translate(442,250)"/>
<path d="M0 0 C3.96 0 7.92 0 12 0 C12 0.33 12 0.66 12 1 C8.04 1 4.08 1 0 1 C0 0.67 0 0.34 0 0 Z " fill="#F4DF00" transform="translate(345,202)"/>
<path d="M0 0 C0.66 0.33 1.32 0.66 2 1 C-0.97 3.475 -0.97 3.475 -4 6 C-2.84826645 3.53199953 -1.95216435 1.95216435 0 0 Z " fill="#000000" transform="translate(313,59)"/>
<path d="M0 0 C0.33 0 0.66 0 1 0 C1 3.3 1 6.6 1 10 C0.67 10 0.34 10 0 10 C0 6.7 0 3.4 0 0 Z " fill="#000000" transform="translate(139,258)"/>
<path d="M0 0 C0.33 0 0.66 0 1 0 C1 3.3 1 6.6 1 10 C0.67 10 0.34 10 0 10 C0 6.7 0 3.4 0 0 Z " fill="#000000" transform="translate(139,245)"/>
<path d="M0 0 C2.97 0 5.94 0 9 0 C9 0.33 9 0.66 9 1 C6.03 1 3.06 1 0 1 C0 0.67 0 0.34 0 0 Z " fill="#F08E47" transform="translate(264,427)"/>
<path d="M0 0 C2.97 0 5.94 0 9 0 C9 0.33 9 0.66 9 1 C6.03 1 3.06 1 0 1 C0 0.67 0 0.34 0 0 Z " fill="#FF8E55" transform="translate(239,427)"/>
<path d="M0 0 C0.33 0 0.66 0 1 0 C1 2.97 1 5.94 1 9 C0.67 9 0.34 9 0 9 C0 6.03 0 3.06 0 0 Z " fill="#F5CB25" transform="translate(378,333)"/>
<path d="M0 0 C1.98 0.99 1.98 0.99 4 2 C4 2.99 4 3.98 4 5 C2.68 3.35 1.36 1.7 0 0 Z " fill="#000000" transform="translate(163,302)"/>
<path d="M0 0 C0.33 0 0.66 0 1 0 C1 2.97 1 5.94 1 9 C0.67 9 0.34 9 0 9 C0 6.03 0 3.06 0 0 Z " fill="#E2D925" transform="translate(378,171)"/>
<path d="M0 0 C2.97 0 5.94 0 9 0 C9 0.33 9 0.66 9 1 C6.03 1 3.06 1 0 1 C0 0.67 0 0.34 0 0 Z " fill="#FF9C2A" transform="translate(245,139)"/>
<path d="M0 0 C0.66 0.33 1.32 0.66 2 1 C0.35 2.32 -1.3 3.64 -3 5 C-1.125 1.125 -1.125 1.125 0 0 Z " fill="#000000" transform="translate(324,48)"/>
<path d="M0 0 C2.64 0 5.28 0 8 0 C8 0.33 8 0.66 8 1 C5.36 1 2.72 1 0 1 C0 0.67 0 0.34 0 0 Z " fill="#FFAF10" transform="translate(258,139)"/>
<path d="M0 0 C0.66 0.33 1.32 0.66 2 1 C0.68 1.99 -0.64 2.98 -2 4 C-1.34 2.68 -0.68 1.36 0 0 Z " fill="#FFDA00" transform="translate(332,393)"/>
<path d="M0 0 C0.99 0.33 1.98 0.66 3 1 C1.02 1.33 -0.96 1.66 -3 2 C-2.01 1.34 -1.02 0.68 0 0 Z " fill="#DA6D12" transform="translate(272,370)"/>
<path d="M0 0 C1.485 0.99 1.485 0.99 3 2 C2.67 2.66 2.34 3.32 2 4 C1.34 2.68 0.68 1.36 0 0 Z " fill="#000000" transform="translate(150,288)"/>
<path d="M0 0 C0.33 0 0.66 0 1 0 C1 1.98 1 3.96 1 6 C0.67 6 0.34 6 0 6 C0 4.02 0 2.04 0 0 Z " fill="#000000" transform="translate(86,274)"/>
<path d="M0 0 C1.65 0 3.3 0 5 0 C5 0.33 5 0.66 5 1 C3.35 1 1.7 1 0 1 C0 0.67 0 0.34 0 0 Z " fill="#EEAA11" transform="translate(234,426)"/>
<path d="M0 0 C0.99 0.33 1.98 0.66 3 1 C2.67 1.66 2.34 2.32 2 3 C1.34 2.01 0.68 1.02 0 0 Z " fill="#000000" transform="translate(160,375)"/>
<path d="M0 0 C1.65 0 3.3 0 5 0 C5 0.33 5 0.66 5 1 C3.35 1 1.7 1 0 1 C0 0.67 0 0.34 0 0 Z " fill="#FFCC00" transform="translate(264,372)"/>
<path d="M0 0 C1.65 0 3.3 0 5 0 C5 0.33 5 0.66 5 1 C3.35 1 1.7 1 0 1 C0 0.67 0 0.34 0 0 Z " fill="#FFCC00" transform="translate(243,372)"/>
<path d="M0 0 C0.33 0 0.66 0 1 0 C1 1.65 1 3.3 1 5 C0.67 5 0.34 5 0 5 C0 3.35 0 1.7 0 0 Z " fill="#000000" transform="translate(86,233)"/>
<path d="M0 0 C0 0.99 0 1.98 0 3 C-0.66 2.67 -1.32 2.34 -2 2 C-1.34 1.34 -0.68 0.68 0 0 Z " fill="#FF9900" transform="translate(370,193)"/>
<path d="M0 0 C0.66 0.33 1.32 0.66 2 1 C1.01 1.66 0.02 2.32 -1 3 C-0.67 2.01 -0.34 1.02 0 0 Z " fill="#000000" transform="translate(298,74)"/>
<path d="M0 0 C0.99 0.33 1.98 0.66 3 1 C2.67 1.66 2.34 2.32 2 3 C1.34 2.01 0.68 1.02 0 0 Z " fill="#000000" transform="translate(323,10)"/>
<path d="M0 0 C4 1 4 1 4 1 Z " fill="#E9D415" transform="translate(273,426)"/>
<path d="M0 0 C4 1 4 1 4 1 Z " fill="#FF9F20" transform="translate(278,425)"/>
<path d="M0 0 C4 1 4 1 4 1 Z " fill="#FF9F20" transform="translate(230,425)"/>
<path d="M0 0 C4 1 4 1 4 1 Z " fill="#BFBF5F" transform="translate(226,424)"/>
<path d="M0 0 C4 1 4 1 4 1 Z " fill="#DF7F00" transform="translate(285,423)"/>
<path d="M0 0 C0.66 0.33 1.32 0.66 2 1 C1.01 1 0.02 1 -1 1 C-0.67 0.67 -0.34 0.34 0 0 Z " fill="#BF5F3F" transform="translate(318,406)"/>
<path d="M0 0 C0.66 0.33 1.32 0.66 2 1 C1.01 1 0.02 1 -1 1 C-0.67 0.67 -0.34 0.34 0 0 Z " fill="#FF9F00" transform="translate(324,401)"/>
<path d="M0 0 C4 1 4 1 4 1 Z " fill="#DF5F20" transform="translate(239,371)"/>
<path d="M0 0 C0.66 0.33 1.32 0.66 2 1 C1.01 1 0.02 1 -1 1 C-0.67 0.67 -0.34 0.34 0 0 Z " fill="#BF5F00" transform="translate(284,364)"/>
<path d="M0 0 C0.99 0.33 1.98 0.66 3 1 C2.01 1 1.02 1 0 1 C0 0.67 0 0.34 0 0 Z " fill="#3F3F00" transform="translate(223,362)"/>
<path d="M0 0 C0.66 0.33 1.32 0.66 2 1 C1.01 1 0.02 1 -1 1 C-0.67 0.67 -0.34 0.34 0 0 Z " fill="#FF9F00" transform="translate(289,360)"/>
<path d="M0 0 C1 4 1 4 1 4 Z " fill="#FF6A35" transform="translate(377,329)"/>
<path d="M0 0 C1 4 1 4 1 4 Z " fill="#000000" transform="translate(88,283)"/>
<path d="M0 0 C1 4 1 4 1 4 Z " fill="#000000" transform="translate(141,238)"/>
<path d="M0 0 C0.99 0.33 1.98 0.66 3 1 C2.01 1 1.02 1 0 1 C0 0.67 0 0.34 0 0 Z " fill="#5F5F5F" transform="translate(430,234)"/>
<path d="M0 0 C4 1 4 1 4 1 Z " fill="#DFDF9F" transform="translate(421,230)"/>
<path d="M0 0 C4 1 4 1 4 1 Z " fill="#DFDFDF" transform="translate(233,230)"/>
<path d="M0 0 C1 4 1 4 1 4 Z " fill="#000000" transform="translate(87,229)"/>
<path d="M0 0 C0 3 0 3 0 3 Z " fill="#000000" transform="translate(110,187)"/>
<path d="M0 0 C4 1 4 1 4 1 Z " fill="#FFDF00" transform="translate(241,140)"/>
<path d="M0 0 C4 1 4 1 4 1 Z " fill="#FFFF00" transform="translate(254,138)"/>
<path d="M0 0 C0.99 0.33 1.98 0.66 3 1 C2.01 1 1.02 1 0 1 C0 0.67 0 0.34 0 0 Z " fill="#FF9F3F" transform="translate(322,109)"/>
<path d="M0 0 C3 1 3 1 3 1 Z " fill="#FFD400" transform="translate(282,424)"/>
<path d="M0 0 C3 1 3 1 3 1 Z " fill="#FFAA00" transform="translate(223,423)"/>
<path d="M0 0 C3 1 3 1 3 1 Z " fill="#AA5500" transform="translate(220,422)"/>
<path d="M0 0 C3 1 3 1 3 1 Z " fill="#FF7F00" transform="translate(291,421)"/>
<path d="M0 0 C3 1 3 1 3 1 Z " fill="#AA7F2A" transform="translate(215,420)"/>
<path d="M0 0 C3 1 3 1 3 1 Z " fill="#FFAA00" transform="translate(296,419)"/>
<path d="M0 0 C0.99 0.495 0.99 0.495 2 1 C1.01 1.495 1.01 1.495 0 2 C0 1.34 0 0.68 0 0 Z " fill="#FFFF00" transform="translate(334,391)"/>
<path d="M0 0 C0.99 0.495 0.99 0.495 2 1 C1.01 1.495 1.01 1.495 0 2 C0 1.34 0 0.68 0 0 Z " fill="#FFFF00" transform="translate(336,389)"/>
<path d="M0 0 C0.99 0.495 0.99 0.495 2 1 C1.01 1.495 1.01 1.495 0 2 C0 1.34 0 0.68 0 0 Z " fill="#FFFF00" transform="translate(338,387)"/>
<path d="M0 0 C0.99 0.495 0.99 0.495 2 1 C1.01 1.495 1.01 1.495 0 2 C0 1.34 0 0.68 0 0 Z " fill="#FFFF00" transform="translate(340,385)"/>
<path d="M0 0 C0.66 0 1.32 0 2 0 C1.67 0.66 1.34 1.32 1 2 C0.67 1.34 0.34 0.68 0 0 Z " fill="#000000" transform="translate(163,378)"/>
<path d="M0 0 C0.99 0.495 0.99 0.495 2 1 C1.01 1.495 1.01 1.495 0 2 C0 1.34 0 0.68 0 0 Z " fill="#FFFF00" transform="translate(355,370)"/>
<path d="M0 0 C3 1 3 1 3 1 Z " fill="#FF7F00" transform="translate(236,370)"/>
<path d="M0 0 C0.99 0.495 0.99 0.495 2 1 C1.01 1.495 1.01 1.495 0 2 C0 1.34 0 0.68 0 0 Z " fill="#FFAA00" transform="translate(357,368)"/>
<path d="M0 0 C3 1 3 1 3 1 Z " fill="#FF7F00" transform="translate(277,368)"/>
<path d="" fill="#FFD42A" transform="translate(0,0)"/>
<path d="" fill="#FFE22A" transform="translate(0,0)"/>
<path d="M0 0 C0.66 0 1.32 0 2 0 C1.67 0.66 1.34 1.32 1 2 C0.67 1.34 0.34 0.68 0 0 Z " fill="#000000" transform="translate(119,334)"/>
<path d="M0 0 C0.99 0.495 0.99 0.495 2 1 C1.01 1.495 1.01 1.495 0 2 C0 1.34 0 0.68 0 0 Z " fill="#AA5500" transform="translate(319,330)"/>
<path d="M0 0 C0.99 0.495 0.99 0.495 2 1 C1.01 1.495 1.01 1.495 0 2 C0 1.34 0 0.68 0 0 Z " fill="#AA5500" transform="translate(321,328)"/>
<path d="M0 0 C3 1 3 1 3 1 Z " fill="#FF7F00" transform="translate(341,311)"/>
<path d="" fill="#000000" transform="translate(0,0)"/>
<path d="" fill="#000000" transform="translate(0,0)"/>
<path d="" fill="#000000" transform="translate(0,0)"/>
<path d="" fill="#000000" transform="translate(0,0)"/>
<path d="" fill="#000000" transform="translate(0,0)"/>
<path d="" fill="#000000" transform="translate(0,0)"/>
<path d="" fill="#000000" transform="translate(0,0)"/>
<path d="" fill="#7F7F7F" transform="translate(0,0)"/>
<path d="" fill="#D4D4D4" transform="translate(0,0)"/>
<path d="" fill="#FFFFFF" transform="translate(0,0)"/>
<path d="" fill="#FFD4D4" transform="translate(0,0)"/>
<path d="" fill="#000000" transform="translate(0,0)"/>
<path d="" fill="#000000" transform="translate(0,0)"/>
<path d="" fill="#000000" transform="translate(0,0)"/>
<path d="" fill="#000000" transform="translate(0,0)"/>
<path d="" fill="#000000" transform="translate(0,0)"/>
<path d="M0 0 C3 1 3 1 3 1 Z " fill="#FFD400" transform="translate(357,201)"/>
<path d="M0 0 C3 1 3 1 3 1 Z " fill="#FF552A" transform="translate(342,201)"/>
<path d="M0 0 C3 1 3 1 3 1 Z " fill="#FFFF2A" transform="translate(360,200)"/>
<path d="" fill="#E2C61C" transform="translate(0,0)"/>
<path d="" fill="#D48E1C" transform="translate(0,0)"/>
<path d="" fill="#FF5500" transform="translate(0,0)"/>
<path d="M0 0 C3 1 3 1 3 1 Z " fill="#AA7F00" transform="translate(273,142)"/>
<path d="M0 0 C3 1 3 1 3 1 Z " fill="#7F5555" transform="translate(270,141)"/>
<path d="M0 0 C3 1 3 1 3 1 Z " fill="#FF7F2A" transform="translate(238,141)"/>
<path d="M0 0 C3 1 3 1 3 1 Z " fill="#FFD400" transform="translate(267,140)"/>
<path d="M0 0 C3 1 3 1 3 1 Z " fill="#FF2A2A" transform="translate(301,95)"/>
<path d="M0 0 C3 1 3 1 3 1 Z " fill="#FF7F00" transform="translate(297,93)"/>
<path d="M0 0 C3 1 3 1 3 1 Z " fill="#FF7F00" transform="translate(290,90)"/>
<path d="M0 0 C3 1 3 1 3 1 Z " fill="#AAAA00" transform="translate(287,89)"/>
<path d="M0 0 C0.99 0.495 0.99 0.495 2 1 C1.01 1.495 1.01 1.495 0 2 C0 1.34 0 0.68 0 0 Z " fill="#000000" transform="translate(300,72)"/>
<path d="M0 0 C0.99 0.495 0.99 0.495 2 1 C1.01 1.495 1.01 1.495 0 2 C0 1.34 0 0.68 0 0 Z " fill="#000000" transform="translate(302,70)"/>
<path d="M0 0 C0.99 0.495 0.99 0.495 2 1 C1.01 1.495 1.01 1.495 0 2 C0 1.34 0 0.68 0 0 Z " fill="#000000" transform="translate(307,65)"/>
<path d="M0 0 C0.99 0.495 0.99 0.495 2 1 C1.01 1.495 1.01 1.495 0 2 C0 1.34 0 0.68 0 0 Z " fill="#000000" transform="translate(317,55)"/>
<path d="M0 0 C0.99 0.495 0.99 0.495 2 1 C1.01 1.495 1.01 1.495 0 2 C0 1.34 0 0.68 0 0 Z " fill="#000000" transform="translate(319,53)"/>
<path d="M0 0 C3 1 3 1 3 1 Z " fill="#000000" transform="translate(313,4)"/>
<path d="M0 0 C3 1 3 1 3 1 Z " fill="#000000" transform="translate(295,4)"/>
<path d="M0 0 C2 1 2 1 2 1 Z " fill="#BF8000" transform="translate(289,422)"/>
<path d="M0 0 C2 1 2 1 2 1 Z " fill="#FFBF00" transform="translate(218,421)"/>
<path d="M0 0 C2 1 2 1 2 1 Z " fill="#FFBF00" transform="translate(294,420)"/>
<path d="M0 0 C2 1 2 1 2 1 Z " fill="#FFBF00" transform="translate(213,419)"/>
<path d="M0 0 C2 1 2 1 2 1 Z " fill="#FFBF00" transform="translate(299,418)"/>
<path d="M0 0 C2 1 2 1 2 1 Z " fill="#FFBF00" transform="translate(211,418)"/>
<path d="M0 0 C2 1 2 1 2 1 Z " fill="#BFBF00" transform="translate(301,417)"/>
<path d="M0 0 C2 1 2 1 2 1 Z " fill="#FFBF00" transform="translate(209,417)"/>
<path d="M0 0 C2 1 2 1 2 1 Z " fill="#FF4000" transform="translate(303,416)"/>
<path d="M0 0 C2 1 2 1 2 1 Z " fill="#FFBF00" transform="translate(207,416)"/>
<path d="M0 0 C2 1 2 1 2 1 Z " fill="#BFBF00" transform="translate(306,414)"/>
<path d="M0 0 C2 1 2 1 2 1 Z " fill="#FF4000" transform="translate(204,414)"/>
<path d="M0 0 C2 1 2 1 2 1 Z " fill="#FF7F00" transform="translate(308,413)"/>
<path d="M0 0 C2 1 2 1 2 1 Z " fill="#FFFF00" transform="translate(202,413)"/>
<path d="M0 0 C2 1 2 1 2 1 Z " fill="#FF4000" transform="translate(200,412)"/>
<path d="M0 0 C2 1 2 1 2 1 Z " fill="#FFFF00" transform="translate(311,411)"/>
<path d="M0 0 C2 1 2 1 2 1 Z " fill="#7F4000" transform="translate(197,410)"/>
<path d="M0 0 C2 1 2 1 2 1 Z " fill="#FF7F00" transform="translate(314,409)"/>
<path d="M0 0 C2 1 2 1 2 1 Z " fill="#7F0000" transform="translate(192,406)"/>
<path d="M0 0 C2 1 2 1 2 1 Z " fill="#000000" transform="translate(188,403)"/>
<path d="M0 0 C2 1 2 1 2 1 Z " fill="#FFFF00" transform="translate(234,369)"/>
<path d="M0 0 C2 1 2 1 2 1 Z " fill="#FFBF00" transform="translate(232,368)"/>
<path d="M0 0 C2 1 2 1 2 1 Z " fill="#FF4000" transform="translate(281,366)"/>
<path d="M0 0 C2 1 2 1 2 1 Z " fill="#FF4000" transform="translate(229,366)"/>
<path d="M0 0 C2 1 2 1 2 1 Z " fill="#FFFF00" transform="translate(227,365)"/>
<path d="" fill="#FF7F40" transform="translate(0,0)"/>
<path d="" fill="#FFBF00" transform="translate(0,0)"/>
<path d="" fill="#FF8040" transform="translate(0,0)"/>
<path d="" fill="#FFBF40" transform="translate(0,0)"/>
<path d="" fill="#FFBF00" transform="translate(0,0)"/>
<path d="" fill="#FF4000" transform="translate(0,0)"/>
<path d="" fill="#000000" transform="translate(0,0)"/>
<path d="" fill="#000000" transform="translate(0,0)"/>
<path d="M0 0 C2 1 2 1 2 1 Z " fill="#7F7F00" transform="translate(366,315)"/>
<path d="M0 0 C2 1 2 1 2 1 Z " fill="#FFFF7F" transform="translate(336,314)"/>
<path d="M0 0 C2 1 2 1 2 1 Z " fill="#FFBF00" transform="translate(363,313)"/>
<path d="" fill="#000000" transform="translate(0,0)"/>
<path d="M0 0 C2 1 2 1 2 1 Z " fill="#FFD400" transform="translate(361,312)"/>
<path d="M0 0 C2 1 2 1 2 1 Z " fill="#7F7F00" transform="translate(339,312)"/>
<path d="M0 0 C2 1 2 1 2 1 Z " fill="#FFFF00" transform="translate(359,311)"/>
<path d="" fill="#000000" transform="translate(0,0)"/>
<path d="" fill="#000000" transform="translate(0,0)"/>
<path d="" fill="#000000" transform="translate(0,0)"/>
<path d="" fill="#000000" transform="translate(0,0)"/>
<path d="" fill="#000000" transform="translate(0,0)"/>
<path d="" fill="#000000" transform="translate(0,0)"/>
<path d="" fill="#000000" transform="translate(0,0)"/>
<path d="" fill="#000000" transform="translate(0,0)"/>
<path d="M0 0 C2 1 2 1 2 1 Z " fill="#BFBFBF" transform="translate(423,282)"/>
<path d="M0 0 C2 1 2 1 2 1 Z " fill="#BFBFBF" transform="translate(233,282)"/>
<path d="" fill="#000000" transform="translate(0,0)"/>
<path d="M0 0 C2 1 2 1 2 1 Z " fill="#BFBFBF" transform="translate(425,281)"/>
<path d="M0 0 C2 1 2 1 2 1 Z " fill="#BFBFBF" transform="translate(230,281)"/>
<path d="M0 0 C2 1 2 1 2 1 Z " fill="#7F7F7F" transform="translate(427,280)"/>
<path d="" fill="#000000" transform="translate(0,0)"/>
<path d="M0 0 C2 1 2 1 2 1 Z " fill="#404040" transform="translate(429,279)"/>
<path d="M0 0 C2 1 2 1 2 1 Z " fill="#BFBFBF" transform="translate(227,279)"/>
<path d="" fill="#000000" transform="translate(0,0)"/>
<path d="" fill="#FFFFFF" transform="translate(0,0)"/>
<path d="" fill="#BFBFBF" transform="translate(0,0)"/>
<path d="" fill="#FFFFFF" transform="translate(0,0)"/>
<path d="" fill="#FFFFFF" transform="translate(0,0)"/>
<path d="" fill="#BF8080" transform="translate(0,0)"/>
<path d="" fill="#BFBFBF" transform="translate(0,0)"/>
<path d="" fill="#BFBFBF" transform="translate(0,0)"/>
<path d="" fill="#7F7F7F" transform="translate(0,0)"/>
<path d="" fill="#FFFFFF" transform="translate(0,0)"/>
<path d="" fill="#FFFFFF" transform="translate(0,0)"/>
<path d="" fill="#FFFFFF" transform="translate(0,0)"/>
<path d="" fill="#000000" transform="translate(0,0)"/>
<path d="" fill="#000000" transform="translate(0,0)"/>
<path d="M0 0 C2 1 2 1 2 1 Z " fill="#FFFFFF" transform="translate(226,234)"/>
<path d="" fill="#000000" transform="translate(0,0)"/>
<path d="M0 0 C2 1 2 1 2 1 Z " fill="#FFFFFF" transform="translate(427,232)"/>
<path d="M0 0 C2 1 2 1 2 1 Z " fill="#FFFFFF" transform="translate(229,232)"/>
<path d="M0 0 C2 1 2 1 2 1 Z " fill="#BFBFBF" transform="translate(425,231)"/>
<path d="M0 0 C2 1 2 1 2 1 Z " fill="#BFBFBF" transform="translate(231,231)"/>
<path d="" fill="#000000" transform="translate(0,0)"/>
<path d="" fill="#000000" transform="translate(0,0)"/>
<path d="" fill="#000000" transform="translate(0,0)"/>
<path d="" fill="#000000" transform="translate(0,0)"/>
<path d="" fill="#000000" transform="translate(0,0)"/>
<path d="" fill="#000000" transform="translate(0,0)"/>
<path d="" fill="#000000" transform="translate(0,0)"/>
<path d="" fill="#000000" transform="translate(0,0)"/>
<path d="" fill="#000000" transform="translate(0,0)"/>
<path d="" fill="#000000" transform="translate(0,0)"/>
<path d="" fill="#000000" transform="translate(0,0)"/>
<path d="M0 0 C2 1 2 1 2 1 Z " fill="#FF8040" transform="translate(340,200)"/>
<path d="M0 0 C2 1 2 1 2 1 Z " fill="#FFFF7F" transform="translate(364,198)"/>
<path d="M0 0 C2 1 2 1 2 1 Z " fill="#FF4000" transform="translate(336,198)"/>
<path d="" fill="#000000" transform="translate(0,0)"/>
<path d="" fill="#000000" transform="translate(0,0)"/>
<path d="" fill="#FFBF00" transform="translate(0,0)"/>
<path d="" fill="#FFBF00" transform="translate(0,0)"/>
<path d="" fill="#BF8000" transform="translate(0,0)"/>
<path d="" fill="#FFBF00" transform="translate(0,0)"/>
<path d="" fill="#FF4000" transform="translate(0,0)"/>
<path d="M0 0 C2 1 2 1 2 1 Z " fill="#FFBF00" transform="translate(286,149)"/>
<path d="M0 0 C2 1 2 1 2 1 Z " fill="#7F0000" transform="translate(225,148)"/>
<path d="M0 0 C2 1 2 1 2 1 Z " fill="#FF8040" transform="translate(282,146)"/>
<path d="M0 0 C2 1 2 1 2 1 Z " fill="#FFD42A" transform="translate(228,146)"/>
<path d="M0 0 C2 1 2 1 2 1 Z " fill="#FFBF00" transform="translate(280,145)"/>
<path d="M0 0 C2 1 2 1 2 1 Z " fill="#FFFF00" transform="translate(230,145)"/>
<path d="M0 0 C2 1 2 1 2 1 Z " fill="#FF7F40" transform="translate(278,144)"/>
<path d="M0 0 C2 1 2 1 2 1 Z " fill="#FFBF40" transform="translate(276,143)"/>
<path d="M0 0 C2 1 2 1 2 1 Z " fill="#FFBF00" transform="translate(234,143)"/>
<path d="M0 0 C2 1 2 1 2 1 Z " fill="#FFBF40" transform="translate(236,142)"/>
<path d="M0 0 C2 1 2 1 2 1 Z " fill="#FFBF00" transform="translate(317,105)"/>
<path d="M0 0 C2 1 2 1 2 1 Z " fill="#FF7F00" transform="translate(313,102)"/>
<path d="M0 0 C2 1 2 1 2 1 Z " fill="#FFFF00" transform="translate(310,100)"/>
<path d="M0 0 C2 1 2 1 2 1 Z " fill="#FF4000" transform="translate(307,98)"/>
<path d="M0 0 C2 1 2 1 2 1 Z " fill="#BF8040" transform="translate(305,97)"/>
<path d="M0 0 C2 1 2 1 2 1 Z " fill="#FFBF7F" transform="translate(295,92)"/>
<path d="M0 0 C2 1 2 1 2 1 Z " fill="#FFBF00" transform="translate(293,91)"/>
<path d="M0 0 C2 1 2 1 2 1 Z " fill="#D4AA2A" transform="translate(284,88)"/>
<path d="" fill="#000000" transform="translate(0,0)"/>
<path d="" fill="#000000" transform="translate(0,0)"/>
<path d="" fill="#000000" transform="translate(0,0)"/>
<path d="" fill="#000000" transform="translate(0,0)"/>
<path d="" fill="#000000" transform="translate(0,0)"/>
<path d="" fill="#000000" transform="translate(0,0)"/>
<path d="" fill="#000000" transform="translate(0,0)"/>
<path d="M0 0 C2 1 2 1 2 1 Z " fill="#000000" transform="translate(290,7)"/>
<path d="M0 0 C2 1 2 1 2 1 Z " fill="#000000" transform="translate(318,6)"/>
<path d="M0 0 C2 1 2 1 2 1 Z " fill="#000000" transform="translate(316,5)"/>
<path d="M0 0 C2 1 2 1 2 1 Z " fill="#000000" transform="translate(293,5)"/>
<path d="" fill="#FF8000" transform="translate(0,0)"/>
<path d="" fill="#FFFF00" transform="translate(0,0)"/>
<path d="" fill="#FF8080" transform="translate(0,0)"/>
<path d="" fill="#FFFF00" transform="translate(0,0)"/>
<path d="" fill="#FFFF80" transform="translate(0,0)"/>
<path d="" fill="#FFFF00" transform="translate(0,0)"/>
<path d="" fill="#FF8080" transform="translate(0,0)"/>
<path d="" fill="#808000" transform="translate(0,0)"/>
<path d="" fill="#808000" transform="translate(0,0)"/>
<path d="" fill="#FF8000" transform="translate(0,0)"/>
<path d="" fill="#800000" transform="translate(0,0)"/>
<path d="" fill="#FFAA55" transform="translate(0,0)"/>
<path d="" fill="#000000" transform="translate(0,0)"/>
<path d="" fill="#FF8000" transform="translate(0,0)"/>
<path d="" fill="#000000" transform="translate(0,0)"/>
<path d="" fill="#000000" transform="translate(0,0)"/>
<path d="" fill="#FFFF00" transform="translate(0,0)"/>
<path d="" fill="#000000" transform="translate(0,0)"/>
<path d="" fill="#FFFFFF" transform="translate(0,0)"/>
<path d="" fill="#000000" transform="translate(0,0)"/>
<path d="" fill="#FFFF00" transform="translate(0,0)"/>
<path d="" fill="#000000" transform="translate(0,0)"/>
<path d="" fill="#FFFF00" transform="translate(0,0)"/>
<path d="" fill="#000000" transform="translate(0,0)"/>
<path d="" fill="#000000" transform="translate(0,0)"/>
<path d="" fill="#000000" transform="translate(0,0)"/>
<path d="" fill="#000000" transform="translate(0,0)"/>
<path d="" fill="#000000" transform="translate(0,0)"/>
<path d="" fill="#000000" transform="translate(0,0)"/>
<path d="" fill="#000000" transform="translate(0,0)"/>
<path d="" fill="#000000" transform="translate(0,0)"/>
<path d="" fill="#000000" transform="translate(0,0)"/>
<path d="" fill="#000000" transform="translate(0,0)"/>
<path d="" fill="#000000" transform="translate(0,0)"/>
<path d="" fill="#000000" transform="translate(0,0)"/>
<path d="" fill="#000000" transform="translate(0,0)"/>
<path d="" fill="#000000" transform="translate(0,0)"/>
<path d="" fill="#000000" transform="translate(0,0)"/>
<path d="" fill="#000000" transform="translate(0,0)"/>
<path d="" fill="#000000" transform="translate(0,0)"/>
<path d="" fill="#000000" transform="translate(0,0)"/>
<path d="" fill="#000000" transform="translate(0,0)"/>
<path d="" fill="#FFFF00" transform="translate(0,0)"/>
<path d="" fill="#000000" transform="translate(0,0)"/>
<path d="" fill="#FFFF00" transform="translate(0,0)"/>
<path d="" fill="#000000" transform="translate(0,0)"/>
<path d="" fill="#000000" transform="translate(0,0)"/>
<path d="" fill="#000000" transform="translate(0,0)"/>
<path d="" fill="#FF8000" transform="translate(0,0)"/>
<path d="" fill="#000000" transform="translate(0,0)"/>
<path d="" fill="#000000" transform="translate(0,0)"/>
<path d="" fill="#FFFF00" transform="translate(0,0)"/>
<path d="" fill="#FF8000" transform="translate(0,0)"/>
<path d="" fill="#FFFF00" transform="translate(0,0)"/>
<path d="" fill="#000000" transform="translate(0,0)"/>
<path d="" fill="#000000" transform="translate(0,0)"/>
<path d="" fill="#808080" transform="translate(0,0)"/>
<path d="" fill="#FF8000" transform="translate(0,0)"/>
<path d="" fill="#800000" transform="translate(0,0)"/>
<path d="" fill="#FF8080" transform="translate(0,0)"/>
<path d="" fill="#800000" transform="translate(0,0)"/>
<path d="" fill="#FFFFFF" transform="translate(0,0)"/>
<path d="" fill="#800000" transform="translate(0,0)"/>
<path d="" fill="#000000" transform="translate(0,0)"/>
<path d="" fill="#808000" transform="translate(0,0)"/>
<path d="" fill="#000000" transform="translate(0,0)"/>
<path d="" fill="#808000" transform="translate(0,0)"/>
<path d="" fill="#FFFF00" transform="translate(0,0)"/>
<path d="" fill="#000000" transform="translate(0,0)"/>
<path d="" fill="#808000" transform="translate(0,0)"/>
<path d="" fill="#FF8000" transform="translate(0,0)"/>
<path d="" fill="#000000" transform="translate(0,0)"/>
<path d="" fill="#800000" transform="translate(0,0)"/>
<path d="" fill="#FFAA55" transform="translate(0,0)"/>
<path d="" fill="#000000" transform="translate(0,0)"/>
<path d="" fill="#800000" transform="translate(0,0)"/>
<path d="" fill="#000000" transform="translate(0,0)"/>
<path d="" fill="#800000" transform="translate(0,0)"/>
<path d="" fill="#FF8000" transform="translate(0,0)"/>
<path d="" fill="#000000" transform="translate(0,0)"/>
<path d="" fill="#800000" transform="translate(0,0)"/>
<path d="" fill="#FF8000" transform="translate(0,0)"/>
<path d="" fill="#000000" transform="translate(0,0)"/>
<path d="" fill="#000000" transform="translate(0,0)"/>
<path d="" fill="#FFFF80" transform="translate(0,0)"/>
<path d="" fill="#000000" transform="translate(0,0)"/>
<path d="" fill="#000000" transform="translate(0,0)"/>
<path d="" fill="#FFFF00" transform="translate(0,0)"/>
<path d="" fill="#000000" transform="translate(0,0)"/>
<path d="" fill="#000000" transform="translate(0,0)"/>
<path d="" fill="#000000" transform="translate(0,0)"/>
<path d="" fill="#000000" transform="translate(0,0)"/>
<path d="" fill="#000000" transform="translate(0,0)"/>
<path d="" fill="#000000" transform="translate(0,0)"/>
<path d="" fill="#000000" transform="translate(0,0)"/>
<path d="" fill="#000000" transform="translate(0,0)"/>
<path d="" fill="#000000" transform="translate(0,0)"/>
<path d="" fill="#000000" transform="translate(0,0)"/>
<path d="" fill="#000000" transform="translate(0,0)"/>
<path d="" fill="#000000" transform="translate(0,0)"/>
<path d="" fill="#000000" transform="translate(0,0)"/>
<path d="" fill="#000000" transform="translate(0,0)"/>
<path d="" fill="#000000" transform="translate(0,0)"/>
<path d="" fill="#000000" transform="translate(0,0)"/>
<path d="" fill="#000000" transform="translate(0,0)"/>
<path d="" fill="#000000" transform="translate(0,0)"/>
<path d="" fill="#000000" transform="translate(0,0)"/>
<path d="" fill="#000000" transform="translate(0,0)"/>
<path d="" fill="#000000" transform="translate(0,0)"/>
<path d="" fill="#000000" transform="translate(0,0)"/>
<path d="" fill="#000000" transform="translate(0,0)"/>
<path d="" fill="#000000" transform="translate(0,0)"/>
<path d="" fill="#000000" transform="translate(0,0)"/>
<path d="" fill="#000000" transform="translate(0,0)"/>
<path d="" fill="#000000" transform="translate(0,0)"/>
<path d="" fill="#000000" transform="translate(0,0)"/>
<path d="" fill="#000000" transform="translate(0,0)"/>
<path d="" fill="#000000" transform="translate(0,0)"/>
<path d="" fill="#000000" transform="translate(0,0)"/>
<path d="" fill="#000000" transform="translate(0,0)"/>
<path d="" fill="#000000" transform="translate(0,0)"/>
<path d="" fill="#000000" transform="translate(0,0)"/>
<path d="" fill="#FFFF00" transform="translate(0,0)"/>
<path d="" fill="#000000" transform="translate(0,0)"/>
<path d="" fill="#FF8000" transform="translate(0,0)"/>
<path d="" fill="#000000" transform="translate(0,0)"/>
<path d="" fill="#FF8000" transform="translate(0,0)"/>
<path d="" fill="#000000" transform="translate(0,0)"/>
<path d="" fill="#FF8000" transform="translate(0,0)"/>
<path d="" fill="#000000" transform="translate(0,0)"/>
<path d="" fill="#000000" transform="translate(0,0)"/>
<path d="" fill="#000000" transform="translate(0,0)"/>
<path d="" fill="#000000" transform="translate(0,0)"/>
<path d="" fill="#000000" transform="translate(0,0)"/>
<path d="" fill="#FF8000" transform="translate(0,0)"/>
<path d="" fill="#000000" transform="translate(0,0)"/>
<path d="" fill="#FF8000" transform="translate(0,0)"/>
<path d="" fill="#000000" transform="translate(0,0)"/>
<path d="" fill="#000000" transform="translate(0,0)"/>
<path d="" fill="#000000" transform="translate(0,0)"/>
<path d="" fill="#000000" transform="translate(0,0)"/>
<path d="" fill="#000000" transform="translate(0,0)"/>
<path d="" fill="#000000" transform="translate(0,0)"/>
<path d="" fill="#FF8000" transform="translate(0,0)"/>
<path d="" fill="#000000" transform="translate(0,0)"/>
<path d="" fill="#000000" transform="translate(0,0)"/>
<path d="" fill="#000000" transform="translate(0,0)"/>
<path d="" fill="#000000" transform="translate(0,0)"/>
<path d="" fill="#000000" transform="translate(0,0)"/>
<path d="" fill="#FFFF00" transform="translate(0,0)"/>
<path d="" fill="#000000" transform="translate(0,0)"/>
<path d="" fill="#FFFF00" transform="translate(0,0)"/>
<path d="" fill="#000000" transform="translate(0,0)"/>
<path d="" fill="#000000" transform="translate(0,0)"/>
<path d="" fill="#FFFF00" transform="translate(0,0)"/>
<path d="" fill="#000000" transform="translate(0,0)"/>
<path d="" fill="#000000" transform="translate(0,0)"/>
<path d="" fill="#FFFF00" transform="translate(0,0)"/>
<path d="" fill="#AAAA55" transform="translate(0,0)"/>
<path d="" fill="#000000" transform="translate(0,0)"/>
<path d="" fill="#FFFF80" transform="translate(0,0)"/>
<path d="" fill="#000000" transform="translate(0,0)"/>
<path d="" fill="#FF8080" transform="translate(0,0)"/>
<path d="" fill="#000000" transform="translate(0,0)"/>
<path d="" fill="#000000" transform="translate(0,0)"/>
<path d="" fill="#FF8080" transform="translate(0,0)"/>
<path d="" fill="#000000" transform="translate(0,0)"/>
<path d="" fill="#000000" transform="translate(0,0)"/>
<path d="" fill="#000000" transform="translate(0,0)"/>
<path d="" fill="#000000" transform="translate(0,0)"/>
<path d="" fill="#000000" transform="translate(0,0)"/>
<path d="" fill="#000000" transform="translate(0,0)"/>
<path d="" fill="#000000" transform="translate(0,0)"/>
<path d="" fill="#000000" transform="translate(0,0)"/>
<path d="" fill="#000000" transform="translate(0,0)"/>
<path d="" fill="#000000" transform="translate(0,0)"/>
<path d="" fill="#000000" transform="translate(0,0)"/>
<path d="" fill="#000000" transform="translate(0,0)"/>
<path d="" fill="#000000" transform="translate(0,0)"/>
<path d="" fill="#000000" transform="translate(0,0)"/>
<path d="" fill="#000000" transform="translate(0,0)"/>
<path d="" fill="#000000" transform="translate(0,0)"/>
<path d="" fill="#000000" transform="translate(0,0)"/>
<path d="" fill="#000000" transform="translate(0,0)"/>
<path d="" fill="#000000" transform="translate(0,0)"/>
<path d="" fill="#000000" transform="translate(0,0)"/>
<path d="" fill="#000000" transform="translate(0,0)"/>
<path d="" fill="#000000" transform="translate(0,0)"/>
<path d="" fill="#808080" transform="translate(0,0)"/>
<path d="" fill="#FFFFFF" transform="translate(0,0)"/>
<path d="" fill="#808080" transform="translate(0,0)"/>
<path d="" fill="#808080" transform="translate(0,0)"/>
<path d="" fill="#808080" transform="translate(0,0)"/>
<path d="" fill="#FFFFFF" transform="translate(0,0)"/>
<path d="" fill="#808080" transform="translate(0,0)"/>
<path d="" fill="#808080" transform="translate(0,0)"/>
<path d="" fill="#808080" transform="translate(0,0)"/>
<path d="" fill="#FFFFFF" transform="translate(0,0)"/>
<path d="" fill="#FF80FF" transform="translate(0,0)"/>
<path d="" fill="#808080" transform="translate(0,0)"/>
<path d="" fill="#808080" transform="translate(0,0)"/>
<path d="" fill="#808080" transform="translate(0,0)"/>
<path d="" fill="#FFFFFF" transform="translate(0,0)"/>
<path d="" fill="#808080" transform="translate(0,0)"/>
<path d="" fill="#808080" transform="translate(0,0)"/>
<path d="" fill="#FFFFFF" transform="translate(0,0)"/>
<path d="" fill="#FFFFFF" transform="translate(0,0)"/>
<path d="" fill="#808080" transform="translate(0,0)"/>
<path d="" fill="#FFFFFF" transform="translate(0,0)"/>
<path d="" fill="#FFFFFF" transform="translate(0,0)"/>
<path d="" fill="#808080" transform="translate(0,0)"/>
<path d="" fill="#FFFFFF" transform="translate(0,0)"/>
<path d="" fill="#808080" transform="translate(0,0)"/>
<path d="" fill="#FFFF80" transform="translate(0,0)"/>
<path d="" fill="#808080" transform="translate(0,0)"/>
<path d="" fill="#808080" transform="translate(0,0)"/>
<path d="" fill="#808080" transform="translate(0,0)"/>
<path d="" fill="#000000" transform="translate(0,0)"/>
<path d="" fill="#000000" transform="translate(0,0)"/>
<path d="" fill="#000000" transform="translate(0,0)"/>
<path d="" fill="#000000" transform="translate(0,0)"/>
<path d="" fill="#000000" transform="translate(0,0)"/>
<path d="" fill="#000000" transform="translate(0,0)"/>
<path d="" fill="#000000" transform="translate(0,0)"/>
<path d="" fill="#000000" transform="translate(0,0)"/>
<path d="" fill="#000000" transform="translate(0,0)"/>
<path d="" fill="#000000" transform="translate(0,0)"/>
<path d="" fill="#000000" transform="translate(0,0)"/>
<path d="" fill="#000000" transform="translate(0,0)"/>
<path d="" fill="#000000" transform="translate(0,0)"/>
<path d="" fill="#000000" transform="translate(0,0)"/>
<path d="" fill="#000000" transform="translate(0,0)"/>
<path d="" fill="#000000" transform="translate(0,0)"/>
<path d="" fill="#000000" transform="translate(0,0)"/>
<path d="" fill="#000000" transform="translate(0,0)"/>
<path d="" fill="#000000" transform="translate(0,0)"/>
<path d="" fill="#000000" transform="translate(0,0)"/>
<path d="" fill="#000000" transform="translate(0,0)"/>
<path d="" fill="#000000" transform="translate(0,0)"/>
<path d="" fill="#000000" transform="translate(0,0)"/>
<path d="" fill="#000000" transform="translate(0,0)"/>
<path d="" fill="#000000" transform="translate(0,0)"/>
<path d="" fill="#000000" transform="translate(0,0)"/>
<path d="" fill="#000000" transform="translate(0,0)"/>
<path d="" fill="#FF8000" transform="translate(0,0)"/>
<path d="" fill="#FFFF00" transform="translate(0,0)"/>
<path d="" fill="#000000" transform="translate(0,0)"/>
<path d="" fill="#000000" transform="translate(0,0)"/>
<path d="" fill="#000000" transform="translate(0,0)"/>
<path d="" fill="#FF8000" transform="translate(0,0)"/>
<path d="" fill="#FFFF00" transform="translate(0,0)"/>
<path d="" fill="#000000" transform="translate(0,0)"/>
<path d="" fill="#FF8000" transform="translate(0,0)"/>
<path d="" fill="#FF8080" transform="translate(0,0)"/>
<path d="" fill="#000000" transform="translate(0,0)"/>
<path d="" fill="#000000" transform="translate(0,0)"/>
<path d="" fill="#AAAA55" transform="translate(0,0)"/>
<path d="" fill="#000000" transform="translate(0,0)"/>
<path d="" fill="#000000" transform="translate(0,0)"/>
<path d="" fill="#FFAA00" transform="translate(0,0)"/>
<path d="" fill="#000000" transform="translate(0,0)"/>
<path d="" fill="#FF8000" transform="translate(0,0)"/>
<path d="" fill="#000000" transform="translate(0,0)"/>
<path d="" fill="#FF8000" transform="translate(0,0)"/>
<path d="" fill="#FFAA00" transform="translate(0,0)"/>
<path d="" fill="#000000" transform="translate(0,0)"/>
<path d="" fill="#000000" transform="translate(0,0)"/>
<path d="" fill="#FF8000" transform="translate(0,0)"/>
<path d="" fill="#FFFF00" transform="translate(0,0)"/>
<path d="" fill="#000000" transform="translate(0,0)"/>
<path d="" fill="#000000" transform="translate(0,0)"/>
<path d="" fill="#FF8000" transform="translate(0,0)"/>
<path d="" fill="#FFAA00" transform="translate(0,0)"/>
<path d="" fill="#000000" transform="translate(0,0)"/>
<path d="" fill="#000000" transform="translate(0,0)"/>
<path d="" fill="#FFFF00" transform="translate(0,0)"/>
<path d="" fill="#000000" transform="translate(0,0)"/>
<path d="" fill="#FFFF00" transform="translate(0,0)"/>
<path d="" fill="#000000" transform="translate(0,0)"/>
<path d="" fill="#FFAA00" transform="translate(0,0)"/>
<path d="" fill="#000000" transform="translate(0,0)"/>
<path d="" fill="#FFFF00" transform="translate(0,0)"/>
<path d="" fill="#000000" transform="translate(0,0)"/>
<path d="" fill="#000000" transform="translate(0,0)"/>
<path d="" fill="#FFAA00" transform="translate(0,0)"/>
<path d="" fill="#000000" transform="translate(0,0)"/>
<path d="" fill="#000000" transform="translate(0,0)"/>
<path d="" fill="#FFFF00" transform="translate(0,0)"/>
<path d="" fill="#000000" transform="translate(0,0)"/>
<path d="" fill="#000000" transform="translate(0,0)"/>
<path d="" fill="#FFAA00" transform="translate(0,0)"/>
<path d="" fill="#000000" transform="translate(0,0)"/>
<path d="" fill="#800000" transform="translate(0,0)"/>
<path d="" fill="#FFFF00" transform="translate(0,0)"/>
<path d="" fill="#000000" transform="translate(0,0)"/>
<path d="" fill="#800000" transform="translate(0,0)"/>
<path d="" fill="#FFAA00" transform="translate(0,0)"/>
<path d="" fill="#000000" transform="translate(0,0)"/>
<path d="" fill="#555555" transform="translate(0,0)"/>
<path d="" fill="#FF8000" transform="translate(0,0)"/>
<path d="" fill="#000000" transform="translate(0,0)"/>
<path d="" fill="#808000" transform="translate(0,0)"/>
<path d="" fill="#FFAA55" transform="translate(0,0)"/>
<path d="" fill="#000000" transform="translate(0,0)"/>
<path d="" fill="#555555" transform="translate(0,0)"/>
<path d="" fill="#FF8000" transform="translate(0,0)"/>
<path d="" fill="#000000" transform="translate(0,0)"/>
<path d="" fill="#808080" transform="translate(0,0)"/>
<path d="" fill="#FFAA55" transform="translate(0,0)"/>
<path d="" fill="#000000" transform="translate(0,0)"/>
<path d="" fill="#555555" transform="translate(0,0)"/>
<path d="" fill="#FF8080" transform="translate(0,0)"/>
<path d="" fill="#000000" transform="translate(0,0)"/>
<path d="" fill="#808000" transform="translate(0,0)"/>
<path d="" fill="#AAAA55" transform="translate(0,0)"/>
<path d="" fill="#000000" transform="translate(0,0)"/>
<path d="" fill="#555500" transform="translate(0,0)"/>
<path d="" fill="#FF8000" transform="translate(0,0)"/>
<path d="" fill="#000000" transform="translate(0,0)"/>
<path d="" fill="#800000" transform="translate(0,0)"/>
<path d="" fill="#AAAA00" transform="translate(0,0)"/>
<path d="" fill="#000000" transform="translate(0,0)"/>
<path d="" fill="#550000" transform="translate(0,0)"/>
<path d="" fill="#FFFF00" transform="translate(0,0)"/>
<path d="" fill="#000000" transform="translate(0,0)"/>
<path d="" fill="#800000" transform="translate(0,0)"/>
<path d="" fill="#AAAA55" transform="translate(0,0)"/>
<path d="" fill="#000000" transform="translate(0,0)"/>
<path d="" fill="#000000" transform="translate(0,0)"/>
<path d="" fill="#FFFF00" transform="translate(0,0)"/>
<path d="" fill="#000000" transform="translate(0,0)"/>
<path d="" fill="#000000" transform="translate(0,0)"/>
<path d="" fill="#AAAA00" transform="translate(0,0)"/>
<path d="" fill="#000000" transform="translate(0,0)"/>
<path d="" fill="#000000" transform="translate(0,0)"/>
<path d="" fill="#AAAA00" transform="translate(0,0)"/>
<path d="" fill="#000000" transform="translate(0,0)"/>
<path d="" fill="#000000" transform="translate(0,0)"/>
<path d="" fill="#FFFF00" transform="translate(0,0)"/>
<path d="" fill="#000000" transform="translate(0,0)"/>
<path d="" fill="#000000" transform="translate(0,0)"/>
<path d="" fill="#AAAA00" transform="translate(0,0)"/>
<path d="" fill="#000000" transform="translate(0,0)"/>
<path d="" fill="#000000" transform="translate(0,0)"/>
<path d="" fill="#AAAA00" transform="translate(0,0)"/>
<path d="" fill="#000000" transform="translate(0,0)"/>
<path d="" fill="#000000" transform="translate(0,0)"/>
<path d="" fill="#FFAA00" transform="translate(0,0)"/>
<path d="" fill="#000000" transform="translate(0,0)"/>
<path d="" fill="#000000" transform="translate(0,0)"/>
<path d="" fill="#FF8000" transform="translate(0,0)"/>
<path d="" fill="#FF8000" transform="translate(0,0)"/>
<path d="" fill="#000000" transform="translate(0,0)"/>
<path d="" fill="#000000" transform="translate(0,0)"/>
<path d="" fill="#FFAA00" transform="translate(0,0)"/>
<path d="" fill="#000000" transform="translate(0,0)"/>
<path d="" fill="#000000" transform="translate(0,0)"/>
<path d="" fill="#FFFF00" transform="translate(0,0)"/>
<path d="" fill="#000000" transform="translate(0,0)"/>
<path d="" fill="#000000" transform="translate(0,0)"/>
<path d="" fill="#FF8000" transform="translate(0,0)"/>
<path d="" fill="#FFAA00" transform="translate(0,0)"/>
<path d="" fill="#000000" transform="translate(0,0)"/>
<path d="" fill="#000000" transform="translate(0,0)"/>
<path d="" fill="#FFFF00" transform="translate(0,0)"/>
<path d="" fill="#000000" transform="translate(0,0)"/>
<path d="" fill="#000000" transform="translate(0,0)"/>
<path d="" fill="#FFAA00" transform="translate(0,0)"/>
<path d="" fill="#000000" transform="translate(0,0)"/>
<path d="" fill="#000000" transform="translate(0,0)"/>
<path d="" fill="#FFFF00" transform="translate(0,0)"/>
<path d="" fill="#FF8000" transform="translate(0,0)"/>
<path d="" fill="#000000" transform="translate(0,0)"/>
<path d="" fill="#000000" transform="translate(0,0)"/>
<path d="" fill="#FFFFFF" transform="translate(0,0)"/>
<path d="" fill="#FFAA00" transform="translate(0,0)"/>
<path d="" fill="#000000" transform="translate(0,0)"/>
<path d="" fill="#000000" transform="translate(0,0)"/>
<path d="" fill="#FFFF00" transform="translate(0,0)"/>
<path d="" fill="#FFAA55" transform="translate(0,0)"/>
<path d="" fill="#000000" transform="translate(0,0)"/>
<path d="" fill="#000000" transform="translate(0,0)"/>
<path d="" fill="#808000" transform="translate(0,0)"/>
<path d="" fill="#AAAA55" transform="translate(0,0)"/>
<path d="" fill="#000000" transform="translate(0,0)"/>
<path d="" fill="#000000" transform="translate(0,0)"/>
<path d="" fill="#FFFF00" transform="translate(0,0)"/>
<path d="" fill="#FFFF00" transform="translate(0,0)"/>
<path d="" fill="#000000" transform="translate(0,0)"/>
<path d="" fill="#000000" transform="translate(0,0)"/>
<path d="" fill="#808000" transform="translate(0,0)"/>
<path d="" fill="#FFAA55" transform="translate(0,0)"/>
<path d="" fill="#000000" transform="translate(0,0)"/>
<path d="" fill="#000000" transform="translate(0,0)"/>
<path d="" fill="#FFFF00" transform="translate(0,0)"/>
<path d="" fill="#FFAA55" transform="translate(0,0)"/>
<path d="" fill="#800000" transform="translate(0,0)"/>
<path d="" fill="#000000" transform="translate(0,0)"/>
<path d="" fill="#FFFF00" transform="translate(0,0)"/>
<path d="" fill="#FFAA00" transform="translate(0,0)"/>
<path d="" fill="#550000" transform="translate(0,0)"/>
<path d="" fill="#550000" transform="translate(0,0)"/>
<path d="" fill="#FFFF00" transform="translate(0,0)"/>
<path d="" fill="#000000" transform="translate(0,0)"/>
<path d="" fill="#000000" transform="translate(0,0)"/>
<path d="" fill="#808000" transform="translate(0,0)"/>
<path d="" fill="#FF8080" transform="translate(0,0)"/>
<path d="" fill="#000000" transform="translate(0,0)"/>
<path d="" fill="#FF8080" transform="translate(0,0)"/>
<path d="" fill="#FFFF00" transform="translate(0,0)"/>
<path d="" fill="#FF8080" transform="translate(0,0)"/>
<path d="" fill="#550000" transform="translate(0,0)"/>
<path d="" fill="#FF8080" transform="translate(0,0)"/>
<path d="" fill="#000000" transform="translate(0,0)"/>
<path d="" fill="#FF8080" transform="translate(0,0)"/>
<path d="" fill="#000000" transform="translate(0,0)"/>
<path d="" fill="#FF8080" transform="translate(0,0)"/>
<path d="" fill="#FF8080" transform="translate(0,0)"/>
<path d="" fill="#000000" transform="translate(0,0)"/>
<path d="" fill="#FFFF80" transform="translate(0,0)"/>
<path d="" fill="#000000" transform="translate(0,0)"/>
<path d="" fill="#FF8080" transform="translate(0,0)"/>
<path d="" fill="#000000" transform="translate(0,0)"/>
<path d="" fill="#FFFF80" transform="translate(0,0)"/>
<path d="" fill="#000000" transform="translate(0,0)"/>
<path d="" fill="#FF8080" transform="translate(0,0)"/>
<path d="" fill="#000000" transform="translate(0,0)"/>
<path d="" fill="#FFFF80" transform="translate(0,0)"/>
<path d="" fill="#000000" transform="translate(0,0)"/>
<path d="" fill="#FF8080" transform="translate(0,0)"/>
<path d="" fill="#000000" transform="translate(0,0)"/>
<path d="" fill="#FFFF80" transform="translate(0,0)"/>
<path d="" fill="#000000" transform="translate(0,0)"/>
<path d="" fill="#FF8080" transform="translate(0,0)"/>
<path d="" fill="#000000" transform="translate(0,0)"/>
<path d="" fill="#FFFF80" transform="translate(0,0)"/>
<path d="" fill="#000000" transform="translate(0,0)"/>
<path d="" fill="#FFFF80" transform="translate(0,0)"/>
<path d="" fill="#000000" transform="translate(0,0)"/>
<path d="" fill="#AAAA55" transform="translate(0,0)"/>
<path d="" fill="#000000" transform="translate(0,0)"/>
<path d="" fill="#AAAA55" transform="translate(0,0)"/>
<path d="" fill="#000000" transform="translate(0,0)"/>
<path d="" fill="#AAAA55" transform="translate(0,0)"/>
<path d="" fill="#000000" transform="translate(0,0)"/>
<path d="" fill="#AAAA55" transform="translate(0,0)"/>
<path d="" fill="#000000" transform="translate(0,0)"/>
<path d="" fill="#AAAA55" transform="translate(0,0)"/>
<path d="" fill="#000000" transform="translate(0,0)"/>
<path d="" fill="#AAAA55" transform="translate(0,0)"/>
<path d="" fill="#000000" transform="translate(0,0)"/>
<path d="" fill="#FF8080" transform="translate(0,0)"/>
<path d="" fill="#000000" transform="translate(0,0)"/>
<path d="" fill="#FFFF80" transform="translate(0,0)"/>
<path d="" fill="#000000" transform="translate(0,0)"/>
<path d="" fill="#FF8080" transform="translate(0,0)"/>
<path d="" fill="#000000" transform="translate(0,0)"/>
<path d="" fill="#FF8080" transform="translate(0,0)"/>
<path d="" fill="#000000" transform="translate(0,0)"/>
<path d="" fill="#FF8000" transform="translate(0,0)"/>
<path d="" fill="#000000" transform="translate(0,0)"/>
<path d="" fill="#FF8080" transform="translate(0,0)"/>
<path d="" fill="#000000" transform="translate(0,0)"/>
<path d="" fill="#FF8080" transform="translate(0,0)"/>
<path d="" fill="#000000" transform="translate(0,0)"/>
<path d="" fill="#FF8080" transform="translate(0,0)"/>
<path d="" fill="#000000" transform="translate(0,0)"/>
<path d="" fill="#808000" transform="translate(0,0)"/>
<path d="" fill="#000000" transform="translate(0,0)"/>
<path d="" fill="#FF8080" transform="translate(0,0)"/>
<path d="" fill="#000000" transform="translate(0,0)"/>
<path d="" fill="#FF8080" transform="translate(0,0)"/>
<path d="" fill="#000000" transform="translate(0,0)"/>
<path d="" fill="#FF8080" transform="translate(0,0)"/>
<path d="" fill="#000000" transform="translate(0,0)"/>
<path d="" fill="#FF8080" transform="translate(0,0)"/>
<path d="" fill="#000000" transform="translate(0,0)"/>
<path d="" fill="#FF8080" transform="translate(0,0)"/>
<path d="" fill="#000000" transform="translate(0,0)"/>
<path d="" fill="#FFFF80" transform="translate(0,0)"/>
<path d="" fill="#000000" transform="translate(0,0)"/>
<path d="" fill="#FF8080" transform="translate(0,0)"/>
<path d="" fill="#000000" transform="translate(0,0)"/>
<path d="" fill="#FF8080" transform="translate(0,0)"/>
<path d="" fill="#000000" transform="translate(0,0)"/>
<path d="" fill="#000000" transform="translate(0,0)"/>
<path d="" fill="#000000" transform="translate(0,0)"/>
<path d="" fill="#FFAA55" transform="translate(0,0)"/>
<path d="" fill="#000000" transform="translate(0,0)"/>
<path d="" fill="#AAAA55" transform="translate(0,0)"/>
<path d="" fill="#000000" transform="translate(0,0)"/>
<path d="" fill="#FF8080" transform="translate(0,0)"/>
<path d="" fill="#000000" transform="translate(0,0)"/>
<path d="" fill="#000000" transform="translate(0,0)"/>
<path d="" fill="#AAAA55" transform="translate(0,0)"/>
<path d="" fill="#000000" transform="translate(0,0)"/>
<path d="" fill="#FF8080" transform="translate(0,0)"/>
<path d="" fill="#000000" transform="translate(0,0)"/>
<path d="" fill="#000000" transform="translate(0,0)"/>
<path d="" fill="#FFFF80" transform="translate(0,0)"/>
<path d="" fill="#000000" transform="translate(0,0)"/>
<path d="" fill="#000000" transform="translate(0,0)"/>
<path d="" fill="#FF8080" transform="translate(0,0)"/>
<path d="" fill="#000000" transform="translate(0,0)"/>
<path d="" fill="#000000" transform="translate(0,0)"/>
<path d="" fill="#000000" transform="translate(0,0)"/>
<path d="" fill="#FF8000" transform="translate(0,0)"/>
<path d="" fill="#000000" transform="translate(0,0)"/>
<path d="" fill="#000000" transform="translate(0,0)"/>
<path d="" fill="#FF8000" transform="translate(0,0)"/>
<path d="" fill="#000000" transform="translate(0,0)"/>
<path d="" fill="#000000" transform="translate(0,0)"/>
<path d="" fill="#000000" transform="translate(0,0)"/>
<path d="" fill="#000000" transform="translate(0,0)"/>
<path d="" fill="#000000" transform="translate(0,0)"/>
<path d="" fill="#000000" transform="translate(0,0)"/>
<path d="" fill="#000000" transform="translate(0,0)"/>
<path d="" fill="#000000" transform="translate(0,0)"/>
<path d="" fill="#000000" transform="translate(0,0)"/>
<path d="" fill="#000000" transform="translate(0,0)"/>
<path d="" fill="#000000" transform="translate(0,0)"/>
<path d="" fill="#000000" transform="translate(0,0)"/>
<path d="" fill="#000000" transform="translate(0,0)"/>
<path d="" fill="#000000" transform="translate(0,0)"/>
<path d="" fill="#000000" transform="translate(0,0)"/>
<path d="" fill="#000000" transform="translate(0,0)"/>
<path d="" fill="#000000" transform="translate(0,0)"/>
<path d="" fill="#000000" transform="translate(0,0)"/>
<path d="" fill="#000000" transform="translate(0,0)"/>
<path d="" fill="#000000" transform="translate(0,0)"/>
<path d="" fill="#000000" transform="translate(0,0)"/>
<path d="" fill="#000000" transform="translate(0,0)"/>
<path d="" fill="#000000" transform="translate(0,0)"/>
<path d="" fill="#000000" transform="translate(0,0)"/>
<path d="" fill="#000000" transform="translate(0,0)"/>
<path d="" fill="#000000" transform="translate(0,0)"/>
<path d="" fill="#000000" transform="translate(0,0)"/>
<path d="" fill="#000000" transform="translate(0,0)"/>
<path d="" fill="#000000" transform="translate(0,0)"/>
<path d="" fill="#000000" transform="translate(0,0)"/>
<path d="" fill="#000000" transform="translate(0,0)"/>
<path d="" fill="#000000" transform="translate(0,0)"/>
<path d="" fill="#000000" transform="translate(0,0)"/>
<path d="" fill="#000000" transform="translate(0,0)"/>
<path d="" fill="#000000" transform="translate(0,0)"/>
<path d="" fill="#000000" transform="translate(0,0)"/>
<path d="" fill="#000000" transform="translate(0,0)"/>
<path d="" fill="#000000" transform="translate(0,0)"/>
<path d="" fill="#000000" transform="translate(0,0)"/>
<path d="" fill="#000000" transform="translate(0,0)"/>
<path d="" fill="#000000" transform="translate(0,0)"/>
<path d="" fill="#000000" transform="translate(0,0)"/>
<path d="" fill="#000000" transform="translate(0,0)"/>
<path d="" fill="#000000" transform="translate(0,0)"/>
<path d="" fill="#000000" transform="translate(0,0)"/>
<path d="" fill="#000000" transform="translate(0,0)"/>
<path d="" fill="#000000" transform="translate(0,0)"/>
<path d="" fill="#000000" transform="translate(0,0)"/>
<path d="" fill="#000000" transform="translate(0,0)"/>
<path d="" fill="#000000" transform="translate(0,0)"/>
<path d="" fill="#000000" transform="translate(0,0)"/>
<path d="" fill="#000000" transform="translate(0,0)"/>
<path d="" fill="#000000" transform="translate(0,0)"/>
<path d="" fill="#000000" transform="translate(0,0)"/>
<path d="" fill="#000000" transform="translate(0,0)"/>
<path d="" fill="#000000" transform="translate(0,0)"/>
<path d="" fill="#000000" transform="translate(0,0)"/>
<path d="" fill="#000000" transform="translate(0,0)"/>
<path d="" fill="#000000" transform="translate(0,0)"/>
<path d="" fill="#000000" transform="translate(0,0)"/>
<path d="" fill="#000000" transform="translate(0,0)"/>
<path d="" fill="#000000" transform="translate(0,0)"/>
<path d="" fill="#000000" transform="translate(0,0)"/>
<path d="" fill="#000000" transform="translate(0,0)"/>
<path d="" fill="#000000" transform="translate(0,0)"/>
<path d="" fill="#000000" transform="translate(0,0)"/>
<path d="" fill="#000000" transform="translate(0,0)"/>
<path d="" fill="#000000" transform="translate(0,0)"/>
<path d="" fill="#000000" transform="translate(0,0)"/>
<path d="" fill="#000000" transform="translate(0,0)"/>
<path d="" fill="#000000" transform="translate(0,0)"/>
<path d="" fill="#000000" transform="translate(0,0)"/>
<path d="" fill="#000000" transform="translate(0,0)"/>
<path d="" fill="#000000" transform="translate(0,0)"/>
<path d="" fill="#000000" transform="translate(0,0)"/>
<path d="" fill="#000000" transform="translate(0,0)"/>
<path d="" fill="#000000" transform="translate(0,0)"/>
<path d="" fill="#000000" transform="translate(0,0)"/>
<path d="" fill="#000000" transform="translate(0,0)"/>
<path d="" fill="#000000" transform="translate(0,0)"/>
<path d="" fill="#000000" transform="translate(0,0)"/>
<path d="" fill="#000000" transform="translate(0,0)"/>
<path d="" fill="#000000" transform="translate(0,0)"/>
<path d="" fill="#000000" transform="translate(0,0)"/>
<path d="" fill="#000000" transform="translate(0,0)"/>
<path d="" fill="#000000" transform="translate(0,0)"/>
<path d="" fill="#000000" transform="translate(0,0)"/>
<path d="" fill="#000000" transform="translate(0,0)"/>
<path d="" fill="#000000" transform="translate(0,0)"/>
<path d="" fill="#000000" transform="translate(0,0)"/>
<path d="" fill="#000000" transform="translate(0,0)"/>
<path d="" fill="#000000" transform="translate(0,0)"/>
<path d="" fill="#000000" transform="translate(0,0)"/>
<path d="" fill="#000000" transform="translate(0,0)"/>
<path d="" fill="#000000" transform="translate(0,0)"/>
<path d="" fill="#000000" transform="translate(0,0)"/>
<path d="" fill="#000000" transform="translate(0,0)"/>
<path d="" fill="#000000" transform="translate(0,0)"/>
<path d="" fill="#000000" transform="translate(0,0)"/>
<path d="" fill="#000000" transform="translate(0,0)"/>
<path d="" fill="#000000" transform="translate(0,0)"/>
<path d="" fill="#000000" transform="translate(0,0)"/>
<path d="" fill="#000000" transform="translate(0,0)"/>
<path d="" fill="#000000" transform="translate(0,0)"/>
<path d="" fill="#000000" transform="translate(0,0)"/>
<path d="" fill="#000000" transform="translate(0,0)"/>
<path d="" fill="#000000" transform="translate(0,0)"/>
<path d="" fill="#000000" transform="translate(0,0)"/>
<path d="" fill="#000000" transform="translate(0,0)"/>
<path d="" fill="#000000" transform="translate(0,0)"/>
<path d="" fill="#000000" transform="translate(0,0)"/>
<path d="" fill="#000000" transform="translate(0,0)"/>
</svg>
