<svg width="142" height="36" viewBox="0 0 142 36" fill="none" xmlns="http://www.w3.org/2000/svg">
<g clip-path="url(#clip0_3071_176283)">
<path d="M15.7309 33.8219C24.4115 33.8219 31.4619 26.6977 31.4619 17.9122C31.4619 9.12671 24.3996 2.00488 15.7309 2.00488C7.06224 2.00488 0 9.12671 0 17.9122C0 26.6977 7.0384 33.8219 15.7309 33.8219Z" fill="#414141"/>
<path d="M5.7036 17.962C5.67341 19.6 5.92827 21.2308 6.45678 22.7814C6.93581 24.1209 7.82804 25.2735 9.00471 26.073C10.3728 26.9334 11.9435 27.2647 13.581 27.2647H23.6273V22.4811H13.5643C11.1069 22.4811 9.92712 20.7912 9.92712 17.9716C9.92712 15.1519 11.1189 13.4668 13.5643 13.4668H23.6273V8.68555H13.5858C11.9984 8.68555 10.3776 9.01923 9.00948 9.87728C7.83212 10.6782 6.93853 11.8313 6.45678 13.1712C5.92808 14.7219 5.67322 16.3526 5.7036 17.9906" fill="url(#paint0_linear_3071_176283)"/>
<path fill-rule="evenodd" clip-rule="evenodd" d="M11.8076 16.9824L16.5245 17.8929C16.5245 17.8929 13.0637 21.5301 11.8076 16.9824Z" fill="white"/>
<path fill-rule="evenodd" clip-rule="evenodd" d="M22.8622 16.999L18.2883 17.9524C18.2883 17.9524 22.2497 21.5562 22.8622 16.999Z" fill="white"/>
<path d="M104.901 12.1719C104.901 9.95849 104.186 8.09938 102.756 6.59461C101.326 5.08985 99.5362 4.33826 97.3863 4.33985C95.0918 4.33985 93.2128 5.09144 91.7494 6.59461C90.2859 8.09779 89.5542 9.9569 89.5542 12.1719C89.5542 14.4267 90.2955 16.2961 91.778 17.7803C93.2605 19.2644 95.2285 20.0056 97.6818 20.004C100.529 20.004 102.686 18.9458 104.151 16.8293L101.064 15.0512C100.314 16.0411 99.2065 16.5353 97.7414 16.5337C95.4676 16.5337 94.0733 15.6041 93.5584 13.745H104.754C104.849 13.226 104.898 12.6996 104.901 12.1719ZM93.5084 10.7776C93.6762 9.90969 94.1498 9.13077 94.8431 8.58243C95.576 8.0286 96.478 7.74562 97.3958 7.78158C98.2275 7.76968 99.0402 8.02999 99.7102 8.52284C100.401 9.01861 100.856 9.7702 101.074 10.7776H93.5084Z" fill="#F66C3B"/>
<path d="M83.4027 6.50689C82.2745 5.0625 80.672 4.34031 78.5952 4.34031C76.5978 4.34031 74.8873 5.10143 73.4636 6.62368C72.0398 8.14592 71.3375 9.9955 71.3566 12.1724C71.3566 14.3684 72.0589 16.2275 73.4636 17.7497C74.1102 18.4678 74.9022 19.0402 75.7869 19.429C76.6716 19.8177 77.6289 20.0139 78.5952 20.0045C80.6736 20.0045 82.2761 19.2823 83.4027 17.8379V19.5898H87.2353V0H83.4027V6.50689ZM82.2467 15.1994C81.8613 15.5819 81.4018 15.8818 80.8965 16.0805C80.3912 16.2793 79.8506 16.3728 79.3078 16.3554C78.761 16.3712 78.2166 16.277 77.7069 16.0785C77.1971 15.8799 76.7325 15.581 76.3404 15.1994C75.9551 14.7978 75.6543 14.323 75.4557 13.803C75.2572 13.2831 75.1649 12.7286 75.1844 12.1724C75.1603 11.6217 75.2499 11.0719 75.4478 10.5575C75.6457 10.043 75.9476 9.57484 76.3345 9.18228C76.7215 8.78972 77.1853 8.48118 77.6969 8.27593C78.2084 8.07069 78.7569 7.97315 79.3078 7.98941C79.8536 7.97317 80.3967 8.07074 80.9027 8.27592C81.4087 8.4811 81.8664 8.78938 82.2467 9.18114C82.6334 9.5754 82.9354 10.0445 83.1341 10.5597C83.3329 11.075 83.4243 11.6254 83.4027 12.1772C83.4215 12.7326 83.329 13.2862 83.1304 13.8052C82.9319 14.3243 82.6314 14.7984 82.2467 15.1994Z" fill="#F66C3B"/>
<path d="M61.6103 4.34029C60.5785 4.3288 59.5548 4.52352 58.5992 4.91302C57.6437 5.30252 56.7755 5.87896 56.0458 6.60851C55.316 7.33805 54.7393 8.20601 54.3495 9.16145C53.9597 10.1169 53.7647 11.1406 53.7759 12.1724C53.7577 13.2145 53.9473 14.2497 54.3335 15.2177C54.7197 16.1857 55.2949 17.0672 56.0254 17.8105C56.7559 18.5539 57.6271 19.1443 58.5883 19.5473C59.5494 19.9504 60.5812 20.1579 61.6234 20.1579C62.6657 20.1579 63.6975 19.9504 64.6586 19.5473C65.6197 19.1443 66.491 18.5539 67.2215 17.8105C67.952 17.0672 68.5272 16.1857 68.9134 15.2177C69.2996 14.2497 69.4892 13.2145 69.471 12.1724C69.4932 11.1401 69.3019 10.1143 68.9089 9.15951C68.516 8.20466 67.93 7.34133 67.1877 6.62365C66.463 5.88269 65.5943 5.29787 64.6351 4.90519C63.676 4.5125 62.6466 4.32026 61.6103 4.34029ZM64.4872 15.1088C63.7134 15.8521 62.6821 16.2672 61.6091 16.2672C60.5362 16.2672 59.5049 15.8521 58.7311 15.1088C58.3562 14.7198 58.0632 14.2594 57.8695 13.755C57.6758 13.2506 57.5855 12.7124 57.6037 12.1724C57.5856 11.6324 57.676 11.0943 57.8697 10.5899C58.0634 10.0855 58.3563 9.62507 58.7311 9.23594C59.5049 8.49264 60.5362 8.07752 61.6091 8.07752C62.6821 8.07752 63.7134 8.49264 64.4872 9.23594C64.8701 9.62057 65.1702 10.0795 65.369 10.5846C65.5678 11.0896 65.6611 11.6299 65.6432 12.1724C65.6614 12.7149 65.5682 13.2553 65.3694 13.7604C65.1706 14.2654 64.8703 14.7244 64.4872 15.1088Z" fill="#F66C3B"/>
<path d="M48.0651 15.7023C47.4392 16.0485 46.7328 16.2228 46.0177 16.2076C45.4911 16.224 44.9667 16.1325 44.4769 15.9386C43.987 15.7447 43.5421 15.4526 43.1694 15.0802C42.796 14.6959 42.5037 14.2405 42.31 13.7409C42.1163 13.2413 42.0252 12.7079 42.042 12.1723C42.0217 11.6364 42.1113 11.102 42.3052 10.6019C42.499 10.1018 42.7931 9.6467 43.1694 9.2645C43.5376 8.88387 43.9809 8.58409 44.4713 8.38424C44.9617 8.1844 45.4883 8.08887 46.0177 8.10374C46.7261 8.09286 47.4238 8.2776 48.0341 8.63764C48.6269 8.97169 49.1035 9.479 49.3998 10.0916L52.6914 8.16333C52.0782 6.9942 51.1416 6.02615 49.9933 5.37467C48.7954 4.67858 47.4316 4.3195 46.0463 4.33547C43.8106 4.33547 41.9419 5.08706 40.4403 6.59024C38.9387 8.09342 38.1967 9.95253 38.2142 12.1676C38.2142 14.3842 38.9562 16.2433 40.4403 17.7449C41.9244 19.2465 43.7931 19.9981 46.0463 19.9997C47.4312 20.0153 48.7948 19.6571 49.9933 18.9629C51.147 18.2851 52.099 17.3117 52.751 16.1432L49.4284 14.2364C49.1359 14.8538 48.6597 15.3658 48.0651 15.7023Z" fill="#F66C3B"/>
<path fill-rule="evenodd" clip-rule="evenodd" d="M126.453 4.05176L128.136 5.31262L124.503 10.2488C124.701 10.2226 124.868 10.2011 125.006 10.1892C125.114 10.1774 125.222 10.171 125.33 10.1701C125.934 10.1685 126.532 10.2951 127.083 10.5417C127.635 10.7882 128.127 11.149 128.529 11.6002C128.964 12.0451 129.306 12.5719 129.535 13.15C129.765 13.7282 129.877 14.3461 129.866 14.9681C129.859 16.3096 129.323 17.5943 128.374 18.5427C127.425 19.4911 126.14 20.0267 124.799 20.033C123.445 20.0429 122.143 19.5148 121.178 18.5647C120.694 18.1244 120.308 17.5873 120.045 16.9883C119.782 16.3892 119.647 15.7416 119.65 15.0872C119.65 13.886 120.145 12.6148 121.135 11.2737L126.453 4.05176ZM127.645 15.1135C127.653 14.5415 127.49 13.9802 127.178 13.501C126.866 13.0218 126.418 12.6464 125.891 12.4229C125.365 12.1993 124.783 12.1376 124.222 12.2456C123.66 12.3536 123.143 12.6265 122.737 13.0294C122.331 13.4324 122.055 13.9471 121.942 14.5079C121.83 15.0688 121.887 15.6504 122.107 16.1785C122.327 16.7067 122.699 17.1574 123.175 17.4733C123.652 17.7892 124.212 17.9559 124.784 17.9522C125.538 17.9479 126.26 17.6481 126.795 17.1173C127.329 16.5864 127.635 15.8669 127.645 15.1135ZM113.105 12.73V10.7612C114.078 10.7612 114.729 10.654 115.065 10.4371C115.66 10.0557 115.958 9.44477 115.958 8.60419C115.97 8.30905 115.918 8.01492 115.806 7.74155C115.694 7.46818 115.525 7.22188 115.31 7.01918C115.088 6.80903 114.826 6.64567 114.539 6.5388C114.252 6.43194 113.947 6.38375 113.642 6.3971C113.109 6.36315 112.583 6.52886 112.166 6.86187C111.833 7.17649 111.582 7.70801 111.42 8.45642H109.137C109.374 7.02633 109.859 5.97919 110.593 5.315C111.327 4.6508 112.354 4.31553 113.673 4.30917C115.003 4.30917 116.088 4.70642 116.928 5.50091C117.343 5.88557 117.669 6.35468 117.886 6.87649C118.103 7.39831 118.206 7.96067 118.187 8.52554C118.211 9.16322 118.072 9.7965 117.783 10.3654C117.494 10.9343 117.064 11.4201 116.535 11.7766C117.786 12.5059 118.411 13.708 118.411 15.3828C118.431 16.0046 118.318 16.6235 118.081 17.1987C117.844 17.7739 117.488 18.2923 117.036 18.7197C116.116 19.5872 114.938 20.0202 113.503 20.0187C111.673 20.0187 110.315 19.3457 109.43 17.9999C109.063 17.4358 108.83 16.6548 108.732 15.6569H110.946C111.019 16.3054 111.322 16.9061 111.802 17.3492C112.308 17.7537 112.944 17.9604 113.592 17.9307C113.933 17.9411 114.272 17.8809 114.589 17.7537C114.906 17.6265 115.192 17.4352 115.432 17.1919C115.674 16.9356 115.863 16.6338 115.987 16.3041C116.112 15.9744 116.17 15.6231 116.159 15.2708C116.159 14.2475 115.795 13.5189 115.067 13.0851C114.645 12.8468 113.982 12.7228 113.089 12.7228L113.105 12.73ZM132.564 6.29461C131.423 7.72946 130.853 9.65848 130.853 12.0817C130.853 14.6241 131.417 16.6206 132.545 18.0714C133.57 19.3775 134.797 20.0314 136.225 20.033C137.654 20.0345 138.874 19.3807 139.886 18.0714C141.014 16.627 141.578 14.6638 141.578 12.1818C141.578 9.6998 141.015 7.73264 139.888 6.28031C138.878 4.97416 137.654 4.3203 136.218 4.31871C134.781 4.31712 133.558 4.97098 132.547 6.28031L132.564 6.29461ZM133.994 16.3052C133.411 15.1929 133.119 13.7906 133.119 12.0984C133.119 10.4776 133.414 9.12697 134.004 8.04646C134.593 6.96595 135.334 6.42014 136.227 6.40901C137.125 6.40901 137.87 6.95483 138.461 8.04646C139.052 9.13809 139.347 10.5165 139.345 12.1818C139.345 13.8455 139.05 15.2215 138.461 16.31C137.871 17.3984 137.127 17.9466 136.227 17.9546C135.315 17.9466 134.568 17.3944 133.985 16.298L133.994 16.3052Z" fill="#414141"/>
<path d="M56.2071 31.9746C55.7822 31.9735 55.3653 31.8589 54.9996 31.6426C54.6339 31.4263 54.3327 31.1161 54.1271 30.7443C53.9215 30.3724 53.8191 29.9524 53.8304 29.5276C53.8417 29.1029 53.9664 28.6889 54.1915 28.3285C54.4166 27.9681 54.7339 27.6745 55.1106 27.4779C55.4873 27.2814 55.9097 27.1891 56.3341 27.2107C56.7584 27.2323 57.1693 27.3669 57.5241 27.6006C57.8789 27.8343 58.1649 28.1586 58.3522 28.54H59.8443C59.4391 26.8716 58.0257 25.7656 56.2071 25.7656C55.1957 25.7656 54.2257 26.1674 53.5105 26.8826C52.7953 27.5978 52.3936 28.5678 52.3936 29.5792C52.3936 30.5906 52.7953 31.5606 53.5105 32.2758C54.2257 32.991 55.1957 33.3927 56.2071 33.3927C57.049 33.4176 57.8734 33.1493 58.5394 32.6337C59.2054 32.1181 59.6717 31.3872 59.8586 30.5659H58.3379C58.1674 30.9891 57.8723 31.3504 57.4918 31.602C57.1112 31.8535 56.6632 31.9835 56.2071 31.9746Z" fill="#414141"/>
<path d="M64.7327 25.7656C62.4779 25.7656 60.8071 27.3816 60.8071 29.5792C60.8071 31.7767 62.4756 33.3927 64.7327 33.3927C66.9899 33.3927 68.6416 31.7505 68.6416 29.5792C68.6416 27.4078 66.9756 25.7656 64.7327 25.7656ZM64.7327 31.9746C64.0987 31.9746 63.4906 31.7227 63.0423 31.2744C62.594 30.826 62.3421 30.218 62.3421 29.584C62.3421 28.9499 62.594 28.3419 63.0423 27.8935C63.4906 27.4452 64.0987 27.1933 64.7327 27.1933C65.3667 27.1933 65.9748 27.4452 66.4231 27.8935C66.8715 28.3419 67.1233 28.9499 67.1233 29.584C67.1233 30.218 66.8715 30.826 66.4231 31.2744C65.9748 31.7227 65.3667 31.9746 64.7327 31.9746Z" fill="#414141"/>
<path d="M75.9543 26.6143C75.274 26.0552 74.4179 25.7547 73.5374 25.7658C71.3113 25.7658 69.7239 27.4342 69.7239 29.5913C69.7252 30.3314 69.9417 31.0551 70.3473 31.6742C70.7528 32.2933 71.3297 32.7811 72.0076 33.078C72.6855 33.3749 73.4352 33.4681 74.1652 33.3462C74.8952 33.2244 75.574 32.8928 76.1187 32.3918L76.3213 33.2261H77.463V23.3418H75.9543V26.6143ZM73.6495 31.9747C73.1795 31.971 72.7211 31.8284 72.332 31.5648C71.9429 31.3013 71.6403 30.9285 71.4624 30.4935C71.2845 30.0585 71.2392 29.5806 71.3322 29.1199C71.4251 28.6592 71.6522 28.2363 71.9849 27.9043C72.3175 27.5723 72.7409 27.3461 73.2018 27.254C73.6627 27.162 74.1405 27.2083 74.5751 27.387C75.0098 27.5658 75.3819 27.869 75.6447 28.2587C75.9075 28.6483 76.0492 29.107 76.052 29.577C76.0602 29.8945 76.0037 30.2104 75.8858 30.5053C75.7679 30.8002 75.5911 31.0681 75.3663 31.2925C75.1415 31.5168 74.8733 31.693 74.5781 31.8103C74.283 31.9277 73.967 31.9836 73.6495 31.9747Z" fill="#414141"/>
<path d="M79.6128 33.2114V33.2138H81.1192V25.9395H79.6128V33.2114Z" fill="#414141"/>
<path d="M81.1335 23.2744H79.5867V24.8237H81.1335V23.2744Z" fill="#414141"/>
<path d="M87.1257 25.78C86.6405 25.7637 86.1584 25.8633 85.7194 26.0706C85.2805 26.2778 84.8972 26.5868 84.6016 26.9718L84.3012 25.9493H83.2549V33.2213H84.7636V29.3171C84.7636 28.0372 85.5764 27.1219 86.73 27.1219C87.8312 27.1219 88.4151 27.8203 88.4151 29.1407V33.2093H89.9215V28.8404C89.9215 27.0457 88.8489 25.78 87.1257 25.78Z" fill="#414141"/>
<path d="M97.9609 25.9391L97.7226 26.8925C97.3758 26.5347 96.9599 26.2511 96.5002 26.059C96.0405 25.8668 95.5466 25.7701 95.0483 25.7746C94.5649 25.7622 94.0839 25.8467 93.6336 26.0232C93.1834 26.1996 92.773 26.4644 92.4267 26.8019C92.0804 27.1394 91.8052 27.5429 91.6173 27.9885C91.4293 28.434 91.3325 28.9127 91.3325 29.3963C91.3325 29.8799 91.4293 30.3586 91.6173 30.8042C91.8052 31.2497 92.0804 31.6532 92.4267 31.9907C92.773 32.3283 93.1834 32.593 93.6336 32.7695C94.0839 32.9459 94.5649 33.0304 95.0483 33.018C95.938 33.0309 96.802 32.72 97.4795 32.1433V32.4817C97.4795 33.8546 96.5428 34.6888 95.2795 34.6888C94.3571 34.6888 93.4871 34.2455 93.2011 33.4494H91.7091C92.0761 35.0392 93.4061 36.0093 95.2843 36.0093C97.551 36.0093 98.9358 34.5959 98.9358 32.2791V25.9391H97.9609ZM95.2199 31.6237C94.6289 31.6237 94.062 31.3889 93.6441 30.971C93.2262 30.553 92.9914 29.9862 92.9914 29.3951C92.9914 28.8041 93.2262 28.2372 93.6441 27.8193C94.062 27.4014 94.6289 27.1666 95.2199 27.1666C95.811 27.1666 96.3778 27.4014 96.7958 27.8193C97.2137 28.2372 97.4485 28.8041 97.4485 29.3951C97.4485 29.9862 97.2137 30.553 96.7958 30.971C96.3778 31.3889 95.811 31.6237 95.2199 31.6237Z" fill="#414141"/>
<path d="M104.713 25.806C104.146 25.7974 103.588 25.9432 103.098 26.2279C102.608 26.5126 102.205 26.9254 101.932 27.422L101.796 25.9419H101.319V33.2139H101.984V29.0642C101.977 28.7192 102.039 28.3762 102.166 28.0552C102.293 27.7343 102.482 27.4418 102.724 27.1949C102.965 26.948 103.253 26.7515 103.57 26.617C103.888 26.4825 104.23 26.4126 104.575 26.4114C106.055 26.4114 106.925 27.3815 106.925 29.0333V33.2091H107.59V28.9045C107.578 27.0574 106.477 25.806 104.713 25.806Z" fill="#414141"/>
<path d="M110.751 23.5156H109.909V24.4452H110.751V23.5156Z" fill="#414141"/>
<path d="M110.669 25.9395H110.004V33.2114H110.669V25.9395Z" fill="#414141"/>
<path d="M116.631 25.806C116.064 25.7974 115.506 25.9432 115.016 26.2279C114.525 26.5126 114.122 26.9254 113.849 27.422L113.713 25.9419H113.215V33.2139H113.88V29.0642C113.873 28.719 113.935 28.3758 114.062 28.0547C114.189 27.7336 114.379 27.441 114.62 27.1941C114.862 26.9471 115.15 26.7507 115.468 26.6163C115.786 26.482 116.128 26.4123 116.473 26.4114C117.953 26.4114 118.823 27.3815 118.823 29.0333V33.2091H119.488V28.9045C119.496 27.0574 118.394 25.806 116.631 25.806Z" fill="#414141"/>
<path d="M122.832 23.5156H122.003V24.4452H122.832V23.5156Z" fill="#414141"/>
<path d="M122.084 33.5094C122.084 34.5748 121.46 35.1945 120.387 35.1945H120.075V35.7999H120.47C121.855 35.7999 122.749 34.9228 122.749 33.5499V25.9395H122.084V33.5094Z" fill="#414141"/>
<path d="M131.708 25.9419L131.616 27.5316C131.281 26.9897 130.811 26.545 130.25 26.2421C129.69 25.9393 129.061 25.7889 128.424 25.806C127.422 25.806 126.461 26.204 125.753 26.9125C125.044 27.621 124.646 28.5819 124.646 29.5838C124.646 30.5857 125.044 31.5466 125.753 32.2551C126.461 32.9636 127.422 33.3616 128.424 33.3616C129.06 33.3792 129.69 33.2293 130.25 32.9268C130.81 32.6244 131.281 32.1801 131.616 31.6384L131.697 33.2138H132.252V25.9419H131.708ZM128.469 32.7276C127.636 32.7276 126.836 32.3964 126.246 31.8068C125.657 31.2172 125.326 30.4176 125.326 29.5838C125.326 28.75 125.657 27.9504 126.246 27.3608C126.836 26.7712 127.636 26.44 128.469 26.44C128.884 26.4267 129.297 26.4988 129.683 26.6519C130.069 26.8049 130.419 27.0358 130.712 27.3299C131.005 27.6241 131.234 27.9754 131.385 28.3619C131.537 28.7484 131.607 29.1619 131.592 29.5767C131.587 31.3952 130.271 32.7276 128.469 32.7276Z" fill="#414141"/>
<path d="M139.808 31.2231C139.808 29.5546 138.339 29.3163 137.064 29.0946C135.937 28.9063 134.945 28.7443 134.945 27.7623C134.945 26.94 135.706 26.3894 136.943 26.3894C138.18 26.3894 138.926 26.94 138.978 27.8957H139.617C139.562 26.6039 138.544 25.7959 136.955 25.7959C135.365 25.7959 134.295 26.5896 134.295 27.7766C134.295 29.271 135.639 29.5141 136.902 29.7286C138.041 29.9169 139.143 30.1195 139.143 31.2517C139.143 32.1669 138.273 32.7461 137.009 32.7461C135.746 32.7461 134.905 32.1669 134.812 31.1563H134.159C134.254 32.5173 135.312 33.3515 136.997 33.3515C138.68 33.3682 139.808 32.5244 139.808 31.2231Z" fill="#414141"/>
<path fill-rule="evenodd" clip-rule="evenodd" d="M39.4083 25.2051L38.2166 32.4008H39.2414L39.3821 31.5618H39.4703C39.5293 31.698 39.5986 31.8294 39.6776 31.9551C39.7855 32.1156 39.9301 32.248 40.0995 32.3412C40.3399 32.4623 40.6076 32.519 40.8765 32.5057C41.3054 32.5084 41.7268 32.3929 42.0945 32.172C42.4837 31.9347 42.8106 31.6078 43.0479 31.2186C43.328 30.7599 43.5121 30.249 43.5889 29.717C43.688 29.2211 43.6725 28.7092 43.5436 28.2202C43.4408 27.8386 43.2124 27.5027 42.8953 27.2668C42.6093 27.0822 42.2823 26.9709 41.9431 26.9426C41.6039 26.9144 41.263 26.97 40.9504 27.1047C40.7469 27.1999 40.5621 27.3307 40.4046 27.4908C40.2877 27.6142 40.1787 27.7448 40.078 27.8817H40.0161L40.4546 25.2075L39.4083 25.2051ZM39.6943 30.7014C39.632 30.3714 39.632 30.0327 39.6943 29.7027C39.7438 29.3584 39.8527 29.0254 40.0161 28.7183C40.1552 28.4547 40.3564 28.2289 40.6024 28.0605C40.8437 27.9023 41.1266 27.8193 41.4152 27.8221C41.6858 27.8046 41.953 27.8897 42.1636 28.0605C42.3561 28.2371 42.4844 28.4727 42.5283 28.7302C42.585 29.0455 42.585 29.3684 42.5283 29.6836C42.4735 30.0232 42.364 30.3516 42.2041 30.6561C42.064 30.9283 41.8614 31.1636 41.613 31.3425C41.3683 31.505 41.0796 31.5882 40.7859 31.5809C40.5218 31.5934 40.2623 31.5086 40.0566 31.3425C39.8727 31.1712 39.7462 30.9473 39.6943 30.7014ZM44.0489 34.3862C44.1894 34.4135 44.3324 34.4263 44.4756 34.4244C44.7427 34.4281 45.0078 34.3778 45.255 34.2766C45.4979 34.1759 45.7177 34.0267 45.9009 33.838C46.1096 33.6276 46.2848 33.3865 46.4205 33.123L49.6572 27.0141H48.4869L46.4205 31.2114H46.3657L45.6983 27.0141H44.6162L45.6721 32.4604L45.4766 32.8155C45.3758 33.0096 45.2428 33.1853 45.0833 33.3351C44.9684 33.4388 44.8228 33.5024 44.6686 33.5163C44.5011 33.5261 44.3332 33.5059 44.1729 33.4567L43.7724 34.3219C43.8621 34.3528 43.9548 34.3743 44.0489 34.3862Z" fill="#838485"/>
</g>
<defs>
<linearGradient id="paint0_linear_3071_176283" x1="5.70142" y1="17.9751" x2="23.6273" y2="17.9751" gradientUnits="userSpaceOnUse">
<stop stop-color="#F16222"/>
<stop offset="0.26" stop-color="#F37421"/>
<stop offset="0.71" stop-color="#F68D1E"/>
<stop offset="1" stop-color="#F7981D"/>
</linearGradient>
<clipPath id="clip0_3071_176283">
<rect width="142" height="36" fill="white"/>
</clipPath>
</defs>
</svg>
